<mxfile host="app.diagrams.net" modified="2023-11-28T15:46:18.106Z" agent="Mozilla/5.0 (Macintosh; Intel Mac OS X 10_15_7) AppleWebKit/537.36 (KHTML, like Gecko) Chrome/119.0.0.0 Safari/537.36" etag="EZUiLn1Eh02zBB5b2Y6y" version="22.1.4" type="device">
  <diagram name="Page-1" id="2cc2dc42-3aac-f2a9-1cec-7a8b7cbee084">
    <mxGraphModel dx="1266" dy="634" grid="1" gridSize="10" guides="1" tooltips="1" connect="1" arrows="1" fold="1" page="1" pageScale="1" pageWidth="1100" pageHeight="850" background="none" math="0" shadow="0">
      <root>
        <mxCell id="0" />
        <mxCell id="1" parent="0" />
        <mxCell id="7026571954dc6520-1" value="" style="strokeWidth=1;shadow=0;dashed=0;align=center;html=1;shape=mxgraph.mockup.containers.browserWindow;rSize=0;mainText=,;recursiveResize=0;rounded=0;labelBackgroundColor=none;fontFamily=Verdana;fontSize=12;" parent="1" vertex="1">
          <mxGeometry x="30" y="20" width="1050" height="820" as="geometry" />
        </mxCell>
        <mxCell id="SUnPFek8i2u0DkHHfLXl-32" value="" style="rounded=0;whiteSpace=wrap;html=1;absoluteArcSize=1;arcSize=14;strokeWidth=2;fillColor=#ffe6cc;strokeColor=#d79b00;" parent="7026571954dc6520-1" vertex="1">
          <mxGeometry x="20" y="360" width="580" height="220" as="geometry" />
        </mxCell>
        <mxCell id="SUnPFek8i2u0DkHHfLXl-30" value="" style="rounded=0;whiteSpace=wrap;html=1;absoluteArcSize=1;arcSize=14;strokeWidth=2;fillColor=#dae8fc;strokeColor=#6c8ebf;" parent="7026571954dc6520-1" vertex="1">
          <mxGeometry x="250" y="605" width="510" height="210" as="geometry" />
        </mxCell>
        <mxCell id="7026571954dc6520-2" value="Page 1" style="strokeWidth=1;shadow=0;dashed=0;align=center;html=1;shape=mxgraph.mockup.containers.anchor;fontSize=17;fontColor=#666666;align=left;rounded=0;" parent="7026571954dc6520-1" vertex="1">
          <mxGeometry x="60" y="12" width="110" height="26" as="geometry" />
        </mxCell>
        <mxCell id="7026571954dc6520-3" value="https://stocktrack.ie" style="strokeWidth=1;shadow=0;dashed=0;align=center;html=1;shape=mxgraph.mockup.containers.anchor;rSize=0;fontSize=17;fontColor=#666666;align=left;rounded=0;" parent="7026571954dc6520-1" vertex="1">
          <mxGeometry x="130" y="60" width="250" height="26" as="geometry" />
        </mxCell>
        <mxCell id="7026571954dc6520-6" value="Restaurant &amp;amp; Chains" style="text;html=1;points=[];align=left;verticalAlign=top;spacingTop=-4;fontSize=15;fontFamily=Verdana;rounded=0;" parent="7026571954dc6520-1" vertex="1">
          <mxGeometry x="540" y="140" width="170" height="30" as="geometry" />
        </mxCell>
        <mxCell id="7026571954dc6520-7" value="Some default text to fill some space, and&amp;nbsp;&lt;span&gt;something more so there is more text&lt;/span&gt;" style="text;html=1;points=[];align=left;verticalAlign=top;spacingTop=-4;fontSize=12;fontFamily=Verdana;whiteSpace=wrap;rounded=0;" parent="7026571954dc6520-1" vertex="1">
          <mxGeometry x="540" y="170" width="240" height="40" as="geometry" />
        </mxCell>
        <mxCell id="7026571954dc6520-8" value="Suppliers" style="text;html=1;points=[];align=left;verticalAlign=top;spacingTop=-4;fontSize=15;fontFamily=Verdana;rounded=0;" parent="7026571954dc6520-1" vertex="1">
          <mxGeometry x="540" y="230" width="170" height="30" as="geometry" />
        </mxCell>
        <mxCell id="7026571954dc6520-9" value="Some default text to fill some space, and&amp;nbsp;&lt;span&gt;something more so there is more text&lt;/span&gt;" style="text;html=1;points=[];align=left;verticalAlign=top;spacingTop=-4;fontSize=12;fontFamily=Verdana;whiteSpace=wrap;rounded=0;" parent="7026571954dc6520-1" vertex="1">
          <mxGeometry x="540" y="260" width="240" height="40" as="geometry" />
        </mxCell>
        <mxCell id="7026571954dc6520-10" value="Partners" style="text;html=1;points=[];align=left;verticalAlign=top;spacingTop=-4;fontSize=15;fontFamily=Verdana;rounded=0;" parent="7026571954dc6520-1" vertex="1">
          <mxGeometry x="800" y="140" width="170" height="30" as="geometry" />
        </mxCell>
        <mxCell id="7026571954dc6520-11" value="Some default text to fill some space, and&amp;nbsp;&lt;span&gt;something more so there is more text&lt;/span&gt;" style="text;html=1;points=[];align=left;verticalAlign=top;spacingTop=-4;fontSize=12;fontFamily=Verdana;whiteSpace=wrap;rounded=0;" parent="7026571954dc6520-1" vertex="1">
          <mxGeometry x="800" y="170" width="240" height="40" as="geometry" />
        </mxCell>
        <mxCell id="7026571954dc6520-12" value="Search" style="text;html=1;points=[];align=left;verticalAlign=top;spacingTop=-4;fontSize=15;fontFamily=Verdana;rounded=0;" parent="7026571954dc6520-1" vertex="1">
          <mxGeometry x="800" y="230" width="170" height="30" as="geometry" />
        </mxCell>
        <mxCell id="7026571954dc6520-14" value="Search" style="strokeWidth=1;shadow=0;dashed=0;align=center;html=1;shape=mxgraph.mockup.forms.searchBox;strokeColor=#999999;mainText=;strokeColor2=#008cff;fontColor=#666666;fontSize=17;align=left;spacingLeft=3;rounded=0;labelBackgroundColor=none;" parent="7026571954dc6520-1" vertex="1">
          <mxGeometry x="800" y="260" width="220" height="30" as="geometry" />
        </mxCell>
        <mxCell id="7026571954dc6520-15" value="" style="verticalLabelPosition=bottom;shadow=0;dashed=0;align=center;html=1;verticalAlign=top;strokeWidth=1;shape=mxgraph.mockup.markup.line;strokeColor=#999999;rounded=0;labelBackgroundColor=none;fillColor=#ffffff;fontFamily=Verdana;fontSize=12;fontColor=#000000;" parent="7026571954dc6520-1" vertex="1">
          <mxGeometry y="310" width="1050" height="20" as="geometry" />
        </mxCell>
        <mxCell id="7026571954dc6520-16" value="About us" style="text;html=1;points=[];align=left;verticalAlign=top;spacingTop=-4;fontSize=15;fontFamily=Verdana;rounded=0;" parent="7026571954dc6520-1" vertex="1">
          <mxGeometry x="20" y="330" width="170" height="30" as="geometry" />
        </mxCell>
        <mxCell id="7026571954dc6520-17" value="Lorem ipsum dolor sit amet, consectetur adipisicing elit, sed do eiusmod tempor incididunt ut labore et dolore magna aliqua. Ut enim ad minim veniam, quis nostrud exercitation ullamco laboris nisi ut aliquip ex ea commodo consequat. Duis aute irure dolor in reprehenderit in voluptate velit esse cillum dolore eu fugiat nulla pariatur. Excepteur sint occaecat cupidatat non proident, sunt in culpa qui officia deserunt mollit anim id est laborum.&#xa;Sed ut perspiciatis unde omnis iste natus error sit voluptatem accusantium doloremque laudantium, totam rem aperiam, eaque ipsa quae ab illo inventore veritatis et quasi architecto beatae vitae dicta sunt explicabo. Nemo enim ipsam voluptatem quia voluptas sit aspernatur aut odit aut fugit, sed quia consequuntur magni dolores eos qui ratione voluptatem sequi nesciunt. Neque porro quisquam est, qui dolorem ipsum quia dolor sit amet, consectetur, adipisci velit, sed quia non numquam eius modi tempora incidunt ut labore et dolore magnam aliquam quaerat voluptatem. Ut enim ad minima veniam, quis nostrum exercitationem ullam corporis suscipit laboriosam, nisi ut aliquid ex ea commodi consequatur? Quis autem vel eum iure reprehenderit qui in ea voluptate velit esse quam nihil molestiae consequatur, vel illum qui dolorem eum fugiat quo voluptas nulla pariatur?" style="text;spacingTop=-5;whiteSpace=wrap;html=1;align=left;fontSize=12;fontFamily=Helvetica;fillColor=none;strokeColor=none;rounded=0;shadow=1;labelBackgroundColor=none;" parent="7026571954dc6520-1" vertex="1">
          <mxGeometry x="25" y="370" width="570" height="240" as="geometry" />
        </mxCell>
        <mxCell id="7026571954dc6520-18" value="Get started" style="strokeWidth=1;shadow=0;dashed=0;align=center;html=1;shape=mxgraph.mockup.buttons.button;strokeColor=#666666;mainText=;buttonStyle=round;fontSize=17;fontStyle=0;fillColor=none;whiteSpace=wrap;rounded=0;labelBackgroundColor=none;" parent="7026571954dc6520-1" vertex="1">
          <mxGeometry x="790" y="360" width="190" height="30" as="geometry" />
        </mxCell>
        <mxCell id="7026571954dc6520-19" value="See how it works" style="strokeWidth=1;shadow=0;dashed=0;align=center;html=1;shape=mxgraph.mockup.buttons.button;strokeColor=#666666;mainText=;buttonStyle=round;fontSize=17;fontStyle=0;fillColor=none;whiteSpace=wrap;rounded=0;labelBackgroundColor=none;" parent="7026571954dc6520-1" vertex="1">
          <mxGeometry x="790" y="405" width="190" height="30" as="geometry" />
        </mxCell>
        <mxCell id="7026571954dc6520-20" value="Some default text to fill some space, and&amp;nbsp;&lt;span&gt;something more so there is more text&lt;/span&gt;" style="text;html=1;points=[];align=left;verticalAlign=top;spacingTop=-4;fontSize=12;fontFamily=Verdana;whiteSpace=wrap;rounded=0;" parent="7026571954dc6520-1" vertex="1">
          <mxGeometry x="790" y="450" width="240" height="40" as="geometry" />
        </mxCell>
        <mxCell id="7026571954dc6520-21" value="" style="verticalLabelPosition=bottom;shadow=0;dashed=0;align=center;html=1;verticalAlign=top;strokeWidth=1;shape=mxgraph.mockup.markup.line;strokeColor=#999999;rounded=0;labelBackgroundColor=none;fillColor=#ffffff;fontFamily=Verdana;fontSize=12;fontColor=#000000;" parent="7026571954dc6520-1" vertex="1">
          <mxGeometry y="580" width="1050" height="20" as="geometry" />
        </mxCell>
        <mxCell id="7026571954dc6520-22" value="" style="verticalLabelPosition=bottom;shadow=0;dashed=0;align=center;html=1;verticalAlign=top;strokeWidth=1;shape=mxgraph.mockup.graphics.simpleIcon;strokeColor=#999999;fillColor=#ffffff;rounded=0;labelBackgroundColor=none;fontFamily=Verdana;fontSize=12;fontColor=#000000;" parent="7026571954dc6520-1" vertex="1">
          <mxGeometry x="15" y="610" width="200" height="200" as="geometry" />
        </mxCell>
        <mxCell id="7026571954dc6520-31" value="Manage accounts payable and integrate restaurant accounting" style="text;html=1;points=[];align=left;verticalAlign=top;spacingTop=-4;fontSize=15;fontFamily=Verdana;rounded=0;" parent="7026571954dc6520-1" vertex="1">
          <mxGeometry x="270" y="610" width="170" height="30" as="geometry" />
        </mxCell>
        <mxCell id="SUnPFek8i2u0DkHHfLXl-35" value="" style="edgeStyle=orthogonalEdgeStyle;rounded=0;orthogonalLoop=1;jettySize=auto;html=1;" parent="7026571954dc6520-1" source="7026571954dc6520-32" target="7026571954dc6520-33" edge="1">
          <mxGeometry relative="1" as="geometry" />
        </mxCell>
        <mxCell id="7026571954dc6520-32" value="Contact us" style="text;html=1;points=[];align=left;verticalAlign=top;spacingTop=-4;fontSize=15;fontFamily=Verdana;rounded=0;" parent="7026571954dc6520-1" vertex="1">
          <mxGeometry x="780" y="610" width="170" height="30" as="geometry" />
        </mxCell>
        <mxCell id="7026571954dc6520-33" value="&lt;font style=&quot;font-size: 17px;&quot;&gt;&lt;br&gt;&lt;br&gt;083 123 456 789&lt;br&gt;&lt;br&gt;&lt;br&gt;&amp;nbsp; &amp;nbsp; &amp;nbsp; info@stocktrack.com&lt;br&gt;&lt;/font&gt;&lt;div style=&quot;text-align: justify&quot;&gt;&lt;/div&gt;&lt;div style=&quot;text-align: justify&quot;&gt;&lt;span&gt;&lt;div style=&quot;text-align: justify&quot;&gt;&lt;/div&gt;&lt;/span&gt;&lt;/div&gt;&lt;span&gt;&lt;div style=&quot;text-align: justify&quot;&gt;&lt;/div&gt;&lt;/span&gt;&lt;span&gt;&lt;div style=&quot;text-align: justify&quot;&gt;&lt;/div&gt;&lt;/span&gt;" style="whiteSpace=wrap;html=1;rounded=0;shadow=0;labelBackgroundColor=none;strokeWidth=1;fontFamily=Verdana;fontSize=12;align=center;verticalAlign=top;" parent="7026571954dc6520-1" vertex="1">
          <mxGeometry x="780" y="640" width="260" height="170" as="geometry" />
        </mxCell>
        <mxCell id="7026571954dc6520-34" value="Some default text to fill some space, and&amp;nbsp;&lt;span&gt;something more so there is more text&lt;/span&gt;" style="text;html=1;points=[];align=left;verticalAlign=top;spacingTop=-4;fontSize=12;fontFamily=Verdana;whiteSpace=wrap;rounded=0;" parent="7026571954dc6520-1" vertex="1">
          <mxGeometry x="270" y="650" width="470" height="40" as="geometry" />
        </mxCell>
        <mxCell id="SUnPFek8i2u0DkHHfLXl-4" value="" style="shape=image;verticalLabelPosition=bottom;labelBackgroundColor=default;verticalAlign=top;aspect=fixed;imageAspect=0;image=data:image/png,iVBORw0KGgoAAAANSUhEUgAAAfwAAAJGCAYAAAC+6zedAAAAAXNSR0IArs4c6QAAAARzQklUCAgICHwIZIgAAAAJcEhZcwAADsQAAA7EAZUrDhsAAAPzaVRYdFhNTDpjb20uYWRvYmUueG1wAAAAAAA8P3hwYWNrZXQgYmVnaW49J++7vycgaWQ9J1c1TTBNcENlaGlIenJlU3pOVGN6a2M5ZCc/Pgo8eDp4bXBtZXRhIHhtbG5zOng9J2Fkb2JlOm5zOm1ldGEvJz4KPHJkZjpSREYgeG1sbnM6cmRmPSdodHRwOi8vd3d3LnczLm9yZy8xOTk5LzAyLzIyLXJkZi1zeW50YXgtbnMjJz4KCiA8cmRmOkRlc2NyaXB0aW9uIHJkZjphYm91dD0nJwogIHhtbG5zOkF0dHJpYj0naHR0cDovL25zLmF0dHJpYnV0aW9uLmNvbS9hZHMvMS4wLyc+CiAgPEF0dHJpYjpBZHM+CiAgIDxyZGY6U2VxPgogICAgPHJkZjpsaSByZGY6cGFyc2VUeXBlPSdSZXNvdXJjZSc+CiAgICAgPEF0dHJpYjpDcmVhdGVkPjIwMjMtMTEtMDY8L0F0dHJpYjpDcmVhdGVkPgogICAgIDxBdHRyaWI6RXh0SWQ+NjgyNjQyNzYtZGE3Ni00ZDRiLTgwN2UtODA1N2Q4ZWQ3Zjg4PC9BdHRyaWI6RXh0SWQ+CiAgICAgPEF0dHJpYjpGYklkPjUyNTI2NTkxNDE3OTU4MDwvQXR0cmliOkZiSWQ+CiAgICAgPEF0dHJpYjpUb3VjaFR5cGU+MjwvQXR0cmliOlRvdWNoVHlwZT4KICAgIDwvcmRmOmxpPgogICA8L3JkZjpTZXE+CiAgPC9BdHRyaWI6QWRzPgogPC9yZGY6RGVzY3JpcHRpb24+CgogPHJkZjpEZXNjcmlwdGlvbiByZGY6YWJvdXQ9JycKICB4bWxuczpkYz0naHR0cDovL3B1cmwub3JnL2RjL2VsZW1lbnRzLzEuMS8nPgogIDxkYzp0aXRsZT4KICAgPHJkZjpBbHQ+CiAgICA8cmRmOmxpIHhtbDpsYW5nPSd4LWRlZmF1bHQnPlRleHRvIGRvIHNldSBwYXLDoWdyYWZvIC0gMTwvcmRmOmxpPgogICA8L3JkZjpBbHQ+CiAgPC9kYzp0aXRsZT4KIDwvcmRmOkRlc2NyaXB0aW9uPgoKIDxyZGY6RGVzY3JpcHRpb24gcmRmOmFib3V0PScnCiAgeG1sbnM6eG1wPSdodHRwOi8vbnMuYWRvYmUuY29tL3hhcC8xLjAvJz4KICA8eG1wOkNyZWF0b3JUb29sPkNhbnZhPC94bXA6Q3JlYXRvclRvb2w+CiA8L3JkZjpEZXNjcmlwdGlvbj4KPC9yZGY6UkRGPgo8L3g6eG1wbWV0YT4KPD94cGFja2V0IGVuZD0ncic/Pq9namEAACAASURBVHic7J11dFtX1sW3mGVJZobEwSaOG2jSMDdpSil85bQzpWlnptwpM9O0nU47ZcZpp9yGmbEOOoljRtmSJVlM7/vDcWoQ3GcLrftbqyuNLT292NLb7557zt4chmEYUCgUCoVCGdRwo30CFAqFQqFQwg8VfAqFQqFQEgAq+BQKhUKhJABU8CkUCoVCSQCo4FMoFAqFkgBQwadQKBQKJQGggk+hUCgUSgJABZ9CoVAolASACj6FQqFQKAkAFXwKhUKhUBIAKvgUCoVCoSQAVPApFAqFQkkAqOBTKBQKhZIAUMGnUCgUCiUBoIJPoVAoFEoCQAWfQqFQKJQEgAo+hUKhUCgJABV8CoVCoVASACr4FAqFQqEkAFTwKRQKhUJJAKjgUygUCoWSAFDBp1AoFAolAaCCT6FQKBRKAkAFn0KhUCiUBIAKPoVCoVAoCQAVfAqFQqFQEgAq+BQKhUKhJABU8CkUCoVCSQCo4FMoFAqFkgBQwadQKBQKJQGggk+hUCgUSgJABZ9CoVAolASACj6FQgkrdi+DDrcXHibaZ0KhJDb8aJ8AhUKJTxgAlRYX9hvsOGh0oMbiQq3VBZ3DC4vHC7PLC7PbC2+354i4HMj4HEh5XEj5XGiEPGSIeUgX85Eh5iNdzEemmI8cKR/ZEgHkfE60/nkUyqCDwzAMve+mJDxOLwO7l4GST4tegbB6GPzSaMbyZjPWa61odXjC+noaIRf5UgEKZEIUyQUoVggxUinCSKUQYi69GaBQ2EAFn5KQ1Fnd+G+dCWu0FhwwOGBwda5D1QIuzs1W4MFRKUgX86J8lrFDeYcT/zrejm/rTLAGqM2ni3nIFPOhFvJQZXGh2uIKy/nwOMA4lRhXFyTh2sKksLwGhTLYoIJPSSjqbW68UK7DJ9VGuAO88zPEPGyYk49McWLvejXY3HjwQCu+re/o870MMQ+z02SYliLBcKUIwxVCJAn+qJDcvKcZn9aYiF5nmEKIAqkAlRYnqi2ugL+b3rwxPgNX5ivJn0ChJCiJfTWjJBRf1ppw276WgCvULprtHjx6sA1vTciIwJnFJl/UmnDHvhZYuv28iuUCXJGfhIWZMoxWigI+n025/+xMOR47LQVA5/bKAaMDe9vt2NhqxaZWK/ROr9/n/tzYQQWfQiGACj5l0MMAuKdMi7dOGFg97+dGMzxMZ/k4kWAA3FumxZvdfl4lKhEeGp2CBeky4uOwEfwU0R/bJ0IuB+PVYoxXi3F9kQoeBtjaZsOXtUZ8U98BW68bNlqjpFDIoB1KlEHPnb9r8Um1EUuy5JiVJiV+Xofbi0MmRxjPLDa58/c/xJ7HAR4alYINc/JZiT0AtDrcxI9NFfnvl+BxgOmpEvx7fAYOnlWEa3rt2U9MlrA6LwolUaGCTxn0jE0SYcf8Anw+OQs/TsvBLUPVxM89YEgswf+o2oh3K/8Q+w8mZeHuEZp+XSjaWKzwU0VkxcZUEQ+vlabjs8lZkPI4yJLwadMehUIILelTBj29V4R/LlLh3xXtRM892pE4gt/m8ODeMu2pv989IhnnZ8v7dSyrh+lTeg9EKsuJiHOy5ChbWAQBF9AI6TQFhUICFXxKwjFU3mnoYiZoBS83OSNwRrHBa8f1pxr0pDwO7hyu6fextHbycj4QuKTvDzo2SaGwg5b0KQnJMEXgDvMuyjsSQ/AZAF/V/jF6N14jhmgAxjZsDXlSCEv6FAql/1DBpyQkIxRCosfVWFywewd/G/gBowNN3VblCv7AVs9sBD9JwIUgwSYhKJRoQAWfkpCMUJIJPgPgWAKs8g8be/YqHDY50Ps2xwtgdYuVqOqhC1GHPoVCCR1U8CkJCWlJH0iMffx6W0+Brra48NwR3angmw2tVsxaW4OlW+oxaVU1Xj0euOmR3Qw+LedTKJGAftIoCQnpCh8Ayk0OAIrwnUwM4Mu85ukjOrx+vB1cDk5lDXTx+MFWXJKr8Gs93F/THQqFEj7oCp+SkBTIBMRpa4nQuJct9S3cJre3j9gDgIsBdursfo8XKtMdCoUSOugKn5KQcAEUK4Q4YAw+Z3+Updteg82NtS0WHO1wwuz2okguxLx0GUaxqCpEmin9cKsTBLhhYrPCJzXdoVAoA4N+0igJywglmeBXWlxwehkIg1QEdrfb8cShNqzTWvt878EDrTgvW45XSzOgEcZeYa1QJsDsNKnPc/cFB0Cp2n8fBDuXPbrCp1AiQexdeSiUCDGccDTPwwAVZv+57h4GePhgG+asqw0omD80mDF3XQ0rMYwkL5SkQc4n2+a4IMf//j0Q2ZK+xcOgwuxChdkFo4/tBwqF0gld4VMSlhFB4l27U25y+CzJO7wMrtjWiJUtFqLjnLC4cN2uJnw/LYf4tSPFMIUQ307NwRXbGwPelIxWivDP0vSAx2JzU8O2aa/J7saPDWasarZgl96G9l4iny3hY166DLcUq4n9FiiURICu8CkJCxsx8NW452GAq7aTi30Xa7VWbGwlK51HminJEuyaX4Bbi9V9rGvTRDzcOVyD1bPzoBb4v3S0u7wgcC0+BekevsPL4MbdzRj9WyXuLtNiZYulj9gDnT0UH1UbMXlVNXFmAoWSCNAVPiVhKZILIeB0dpwHo9xH495jh1qxvLlT7EcrRViao4De6cF/TrQjWG7MV7UmzEglj+qNJMlCHp4Yk4onxqSixe5Bq8MNlZCHbAkfJAX/NhblfIC8pC/iclCiEuGS3Bx0uL146nAbjgaYoPACuG9/K3KlApyb1b8QIAplMEEFn5Kw8DnAELmQaOyut7CsarHglWOdq8frilR4oSQNvJNq6GWYU3ny/tgXJ7G76WIe65CaVjt5OZ8DQMOipH9zt2jjTAkf89fXBn3OU4fbfAq+mwH+W2fCz41m7NDZ4PQyODNFgr8VazA1hf3UAoUS69CSPiWhGU44KlfR4TxVprZ4GNy2rwUAsCBdhpfG/SH2ADCRYMStmWWaXDzR5iQXfI2Q1++LUL5UQPS4IyZnn2a+HxvNKF1RhRt3N+OnRjO0Dg8MLi9+bbLgnE11WMVym4ZCiQfoCp8Sl1RaXNjSasUOvR11VhfanR4IuRykifmYpJHg7Cw5iuXBBWGEQoQfYA76OBcDVFmcKJYL8fwRHeqsbiQLeXh7YmafMreCH1zCBnMeD5sV/kA69Kst5IZItVYXxiSJYHYzuG1fM76u6/D7WDcDPHqwDfPTZf0+NwolFqGCT4kb3AzwRY0R71cZsafdv8vbz41mPHKwFZflKfFSaTpkPP87z+wsdp2Q8rh482Qj2KOnpficqXcSqLkyQNNbvMNqJG8AmfaB3gO9EXI5OG524bJtDURhSIF6AyiUeIUKPiUuWNFswb1lWpyw+J+H7w4D4PNaE46bnfh1Rq7fbHe2gv9Loxl2L4McCR9X5if5fFyNNfg5FssH77hYpFz29rIQ/HqrG3/e1Qi9k2xOn/r7UwYjVPApMY3Nw+CeMi0+qjb2+V6qiIcSlQhlBodfkdmlt+PZIzo8MjrF5/eL5UJwAZDIwA8NHaec+f5cpIK/wsEGAre6wdwUFinTnT16MsHnc4ArtzfA4mN0ggP0iQEGgGlBfj9OL4OtbTbsbbej0e6G1e2FlM+FWsBDsUKIUUohRieJiKYaKJRIQQWfErPonR5csrUBO3td2MVcDp4tScNVBUkQcDqNWEpXVMHqZxbu/UoD7huZ7NMaV8jloFAmIKoc7D8p9gIOsKzA9+q+3eUlEvzzcgZv+l44TXe6aHd5UUlY7XEzgPvke6NQJsDFuUpMT5VggkYCCY+DaosLX9aa8Hy3OOBFmb7H+CweBq8d0+P14+3ocAe+TdQIeZidJsWleUrMz5DRDmlK1KGCT4lJ2l1enLWhrs/InJDLwc8zcjFJIz71tUwxHzNSpadm4n0d64DRgfFqsc/vD1eKiLcKAOD8HIVfoXqv0gB7kD38xZlyDJGRdZjHI5Eo6e8lXN13MUkjxp0jkrHQh/AWyQS4f2QykgRc3Le/FSkiHhb7EPw2hweLN/Z9TwKAnM+BkMvpsWWgd3rwbX0Hvq3vQJaEj5uHqnHDEBVxSiOFEmroTScl5rB7Gfzf1gafF9Ynx6T2EPsupgcxsWkJMAbHZh8fAC7I9r06N7m9eCOIsxuPAzwwKpnV68Ub7AS/fyt8Nvv3r5SmY/WsPCwKssq+4mRPxl3DNZD42K+5pNd7MkPMw6eTs6A9vxiN5xajeslQVC8ZivcmZvZ5jzba3HjwQCtKV1Thf/X+JwQolHBCBZ8Sczx0oBXbdbY+X8+S8PGnQt+l9ElBZt/VQv/CwsZiV8ABZvsZ13r6sC5oOfuO4RqMSSL38I83PAzQzmIOv7+Cz6ZD/0LC7ROVgIuVM3Nx/RB1n+/91mzB7l6vedswDc7NkvdYsWuEXFycq8DqWXl4riStz3EabG5cs7MJt+xt8bsFRaGECyr4lJhiTYsVb/lxqbsoR+E3onaiRowiP2XyDDHPbzkfYBeiM0Ej8Tnmd9DowFsnAq/uZ6RKce9I382DgwWd0+OzCc4fKf0t6bf3vSH0RbFciCQWI5CTkyUQ+HiLfVzVt2n01WPtOOTDcrmLvwxR4Y7hGp/f+6TaiIu21Afd/qFQQgkVfErM4GGAe8q0fr8/I81/2Z4L4OXS9D43BBIeB29NyAyYZT+MxQo/38dNhd3L4LpdTQH9809LEuHzKVk+xWQwwTb6tz9Ne402N5oJzX3G+9j+6Q+HfQh7k92NJRvr0Wjzv110x3CN3z37zW02LNveGJLzo1BIoIJPiRk+qzHiuNm/4cnQILPrc9Kk+G1GLi7PU2JRhgx3Dddgx7wCzA5wowAAUh4HeVKyleZxH30Fd+xrwWGT//PuOi8lgQNfvMNmJE/A6Syjs4XN/v3pASo7bPA3gqlzevDCUZ3f5yn5XJSo/FeQfmu24LMa00BPj0IhgnbpU2KGYFGmJPu9EzViTNRksH7tEQoRaq3BxepoR8+V3usV7fg0wAW7QCbAN1NzwB/kK/su2DTs9bec33svPRCBtnLYMC1Vigpz37I+APA5gX+5siA3eg8eaMWFuQravU8JO1TwKaw4YXGhrN2OSosLrXY33Awg53ORJxWgVC3COLW4X2WjMoMDRwKskgEELMsPlBFKIVGuvdnNoN7mRo6Ej+8aOvDA/taAj6+2uPBZjdHv3P5gI5Y69PkcYEyA1TUb7hqejB8bOvo49fE5wA1DVAGfWx1k5FPn9GB1swVL4jTC9+GDbdjaZoXZ7UWSgIdkEQ/jVCJMS5FigkYc1s8thR1U8ClBOW524eMqA75r6Ai6Ck4V8XBRjgK3FGuIy+QA8GNj8FElvdODTHF43rLDWezjHzU5UWNx4bqdTUQNav8o02JqihRDCcJ84p1WFimA/dm/ZwDsIxT80UmikK2a86R8rJqVj3+UtWBNixUMOqc7XhyXFtAm+ViHk8gg6Jcmc9wK/uw0KVJEPHxUZcS2k9M1PzeaAeigEXKxrECF24dr+rV9QwktVPApfmm0ufHUER0+qzYSWc8CnSu8N08Y8E6lAbcMVeO+USmQBgiv6WKnLvhFvM0RRsFn0alf3uHAkiw5+FwOXASjVVZPZ1Pfqll5g75pL9ymOxVmV5+oW3+EqpzfRbFcgP9NzYHFw8DpZaAmELAXyvVExz4apLoVy8xOk2J2mhTXFCZhwsqqHg2VeqcX/zymx0fVBrw0Lp14RJISHugtF8Unb54wYNyKKnzCQuy742aAV4+3Y+baGqJ0MpIybZnB/wjUQGEbopMvFeCBUeQjdnvb7XjkQODy/2CATZd+f0r6pON4QOgFvwsZj0Mk9h9WGfFVHVlDnouJ//E8JZ+LYQrfN856pxfX7mzCY4faInxWlO5QwR+k6J3efgm1w8vg5j3N+EeZts+McLFciNlpUlYX6qMdTsxbX4sdAaxQjS5vUF9yANjhw4wnVCj5XOLqQVfj3i1D1ShlsUf8ekU7fvNj/ztYaAtzNC5pYA4AjNdEJ6DI4mHw1GEdbtvXQvyc9AGkBsYK7S4v9ugDf0ZfOqqnToNRJP7fZQmC2c3g1WN6pIt5uK7If5OQmwFu3N2E/9Z1QCXg4sVx6bgkl6yMZvcyWLq5Hpvben5oU0U8vD8pEzNP2te6GeC1Y3o8fURHlP1ucHlx/qY6LJ+Z53NESUfozLYtjIIPdK7ymwj2oLvKrzwO8OaETExfUw0X4QLtpl1N2Dg3H/nSwbmfH+4ufdKGPSmPw6ovgwSbh0Gj3Y1mmxs6pwcdJ29UzW4vTC4vTC4PaqwubG+z+UzmC0SJemDNhVUWF46YnKi1uqB3esAwgIjHQZaEj0KZAONUYp92waHk6cNtRP/uZ4/osJSW9qMCFfw4oN3lxcSVVdA6PFAJuLgwV+m3pPhDQwf+W9d5B21weXHDribkSPg4kyCO9YZdTX3EHgDem/iH2AOdncl3DNegVC3GxVsbiETf4mFw4ZZ6bJlbgPReKzsLweoe6GyAOtbhZGWUw4bhCiHWESTdtbu80Do8SBPxMEopxL0jU/DEYbJSZbvLiyu3N2LVrLxBOYbFTvDZrfDdDLCfcFunRCX2OztPiocBVrZY8HOjGbt0Np/ZDqFivh+7Zn8wADa1WvFFrQnrtNaA5j9A52d2okaCy/KUuDBXAUWIPSH2GRx4249DZm/KO5wwuLy0iS8K0J94HKAWcE+V5w0uL54/4t/oozdeIKAxSBfvVxnxfYO5z9ezJXzM8mNcMztNircmkM+8ax0e3LSnb2d7koD8wv9NGMuBbCx2y7s5r90+XMNqv7jM4MDtLMq98YLDyxBtzXTBdg//kNFBbEU7YQAOewyAdysNGL28Ev+3tQGfVBsDir2Iy8EEtRiTk8X9MldKE/GCZkF0P7cvak0oWVGFJZvq8VmNKajYA503S9t0Nvx9XwvGLK/E6xXtRDfqJHgB3Lq3mdhSmYPwjthS/EMFP04Y2a2p7O0T7X5Hfc7NVuDsTDkyxLxTZeONWmtA21e904NHD/puKAtWFr0wR4Er8pVBzv4P1rRY8VVtz0YmTYBgm958S9gE1R/YhOiUd+uq5nOAtydmsiqZflZjwr+OBzYaijfY2uqyFfxIOOxpHR6cu6ked/yuDSqkEh4Hj5+WgppzhmLt7DysnJmHyiVDcNuwvuE7gTgnW050IT5odGDG2hrcuLs56Gx/IPROL+7f34ppa2pwNARVi7dOGPA7i4baM1MkRJM7lNBDBT9OyOjWUOZigEf8CLSAA3wxJQvHFg/Bqll5px4f6G7+zQoDDH5GncS84G+R50rSWJVnHznY1iMpTM4n63oGOj0BSMru/YHVCr/XhbJYLsCzY/umowXiwQOtWD6ImvjYCz67HUU2CXn9EXyjy4vFG+uwoTX4+ytZyMPKmXm4bZimh3gJuRw8OCoFbOTsvKzg+9kfVhkxe10tq0kVBZ+LJVly3DZMg1uGqjE1RdLjgl/e4cTMtTVYO4DPU5PdjSdZdt7fOXxwx0PHMlTw44TeF5AfGszYHmB2/bjZhYu21APoXKX7W316Abxf5X/vrcMd/CKu5HPxMIsRtSa7Gx9V97Qpnciio/pFgi2K/qARcolvXHpb7ALAtYVJOJeFeQoD4NodjdgXxnHDSMKmnC/hcViv8kg79DVCLgr9JCcG4h9lWqIRUj4H+HxKll+P/GqLi7i8rRFyMT01cNbDY4fa8Pd9LXAQluBlPA6eGZuKo4uH4PPJWXj8tBQ8MzYVv83IxdZ5BciW/HGjZfUwuGxbA3aymH7ozj1lWla/98WZMsxLD/zvpYQPKvhxQouPdLAHDvRNljO5vXj4YBumrK7GfmOnkDw02r8Yb2uzBWy0OmEmKx1eXZiEYhZOcv86poe72/VrUjL5imxTq63fF6hgkHZ2l/sxSnl9fAarDvyuZkYSN7ZYJ5hnfHfYTilYPQyOBIii7U5/VvcHjQ58Xku2XXTTEDWmBNhz/8FHL4w/zs5SBGwufPRQG146SmbeAwBjk0TYOq8AtwxVQ+4jwGGUUoire9k82zwMbtjV1KPqRsLKFgurf6uUx8ELJemsXoMSWqjgxwEMgDJDX4Hbpbfj25NNbG4GeKfSgJLlVXjlmB5OLwMBB3i1ND3gqnOrj6787jTa3NASlGq5AG4b5jv72xf1NjdWNv9xsZiVxq5L+d4yLavcdX8YXF58W99x6likBjytDk8fX3WgM/3t48lZrJqS2hwenLepHg0EzVexzAiF0KfI+GIiYZNaF/sNdmJfifFq9vP371SSdZhLeBzcMzJwSfqHBvLG0vOy/X82v6oz4WUWYj9BLcbPM3KDVjcOGvveOFVaXPik2nc4kC9sHgZ37vMfZe2L+0alIJeF3TYl9FDBjwOOmJx+99gfPdiGnxrNOGNVNe78XXtqpn16qgRb5hXg2sLAoS0HjMFXypsJ9jQB4NL8JGRJyD/Qn1T/saKaqBEjh8Vzd7fbQ9L0dvu+Fty7X3uq2jDCj1OYL3yV9QGgVCXCy+PY7efXWF04Z1Odz0pOvCDhcXAHwf4sB8ANAbwkfMFq/55lhz4D8lX50hxFwHGyaovrVGUtGEo+F7P8lPOPm124bS/5JEexXIDvpuUEHXU7YHSc9Lnvy39ZNMQ+e0SHGit5VWq0UoRbhrJrZqSEHir4cUCgFUON1YUrtjeeypEvlgvx5ZRs/DI9l6jrnGRV+WsT2cVQwAH+Wkz+oV7dYoHtZBmRA/QpNQbjsYOt2BKkQhGIt04Y8G19B24oUp/yuGdjsXs8wH7v1QVJuJ6lqFWYXVi8sTauV/p3Ddfg+ZI0v5MXcj4H/5mQETAj3hcVZvJucraWukdMTugJzZ8uygk8kfKDHzH1xeIsud9K0N/2NhOb9wg4wMeTs5BE0Pj6wIFWv5Ux0o798g4n/nWcvPIAAK+cnp4wEdGxDK2vhACtw4OKDifqbW4IuECKkI8JmtA4W7kZ4IMATXVdpIh4uG9kMq4tVLH6YJkIgkhWNlvg9DJEZeprC1V4sVzns9zdG4eXwcZWKxZmdJbzrytS4Z/H9KduAoLhYoDLtjXg+2k5rPdtv67rwD1lWqgEXNw49A9hZrPCD3aez5WkodLixJoW8i7o42YXFm6oxffTcuM2Xe+mISpcV6TCLr0Nh41O6Jxu8DgcFMoEmJMu65fhCqntcY6EjzSW4367g9jBdiHhcTAtNfB2wY8hKOf/1mwJutXWnTuGJ2M0wYTJAaMD6wN05JP8VhgAt+5t6dF/E4xrC5NwxgB8ESihgwp+P6m1uvFRtQHLmyw44KOEJ+VxcH62Ao+PSWV9AerO+5WGHulT/liao2C9ogQAksZfg8uLnxrNRElXMh4HV+Yn4TXCcvtOve2U4KeIePhbsQbPl5N34RtcXpy9sQ7/Gp+BiwjOz80Ajx9qxSvHOs/vkdGpPcxS0sU8ZIh5QX/mHCDoxZ/PAT46IwtnbajzuW/qj1qrG/PW1+CLKdkBm8NiGT4HmJIsCdn5X1ekwkfVRtQFiWee6cckKhDthOl7pyWJIApw09toc2MXYTOpjMfBXB/uegzg1xPDF+liHm4fTtY7E2zckGQs9dNqIyuL61QRD4+dlkr8eEp4oSV9lpR3OHHtziaUrKjEC+V6n2IPdHYVf15rwsSVVf0eu2q2e/A44Yzr+5UGVBB21HeHpAwIoM8YXSCuYlGaP9DrZ3PHcA3rla3Fw+BPO5tw4ZYGbPdzMTK7GbxTacAZq6pPif30VAmuLep7rlfmBz5/IZeD105PJ1pVKflcfDc1BwUsx8T0Ti+WbKwjtisd7GhOzr3PDTDSJeFxcHM/9ondhONuRbLA2z1syvkLM+U+rZXXtFhxhEVU7u29fAACEexRVwb53OqcHjzE4mYEAJ4Zm0YtdGMIusInxOZh8Fy5Dq/1GicLRrvLi6Wb67FtXgEyWKSD2b0MrtjeABPhjKubAR4+2IrPJ2eRnxyAdMJS6XqtFTVWF9E41XCFEBM1YqLVTu/9aimPg/cnZWH++lriueMuVrVYsKrFgkwxH6erxUgR8eDwMqg0O7Gv3d4j4CZLwseHk7J83vHePyql05+gsqchUbFciPkZMlw/RIUhLAQ8XczDz9NzsWhjbdAVandcDHBXmRYbWq14pTS9X3Gyg4lsCR/fTc1BeYcTK5ot2NduR53VBR4HOC1JjJuGqPqVs1BEeIMZTLd6O0gGwl85n2T7rgs5n4OrC8iremdnyvHIwTafJlxnpkhwZRDHzAcPtBJt1XUxK01KHNxFiQxU8Ak4ZHLg8m2NqOrnrLTO6cEL5Tq8RNi5bfcyWLa9kbg82MXPjWZsbbMRBeV0MSpJiF+ayB77cbURDxEa7FxdkER0/r7c2capRHh/Uiau2t7Yr4jfJrsbvwRoNEwX8/DT9By/AsrnAI+OTsGDo1LQaHPDwzBIE/MhG0BPRp6Uj99m5OHcTXWsZ+5/ajRjS5sVD41KxTWFSQMOhYl3RiiErGyQgzFJIwEHCDrmGej39nVdB7H1r5jLwYKMvoJv8zBY3ULuvHhJrpJ4DBIACmQCfHRGJm7a3QxjtxvZEpUIH5+RFbACsKXNhs9qyG9ohFwOXh5HZ+5jDVprCcKvTRbMX1/bQ+xHK0V4b2ImdswrwKeTswKWGbv4rMZIFFZRZ3XjnI11/c5Nvz9AF64v2HQ0f1ptIo6BXZqjICo1uhnfBzwnS44Pz8g61T0fKorlAvw2Iw/F8uCCwed0CnWhTDAgse8iT8rHyll5KGXZoQ50lvhv/70FE1ZW4e0TBr8rrcMmJ1ayEA1KZ+VgUWZwH4htbTafN7Hf1Hfgpt2Ed80A5mXIfL6ftrTZiBtWAeDP/ejZOTtTjrKFRXi1NB13DdfgozMysXZ2fsA+I6eXwa0sw57u6sfWHCX8cBjGzxWXgp8azbhye2MPAb0gW4F3J2X2EaIvg4yEogAAIABJREFUak34+97A9pf7FxYG3cs9bHLizNXV8KIzhesvQ9XY3GrFbhZzyO9OzCQupXW4vcj/qYJ4m+LN8RnEYTnLdjThuyBdy9kSPo4sKvL7/Z16O5btaAzJqNoluQq8UprBalUUDqweBn/d0zyg5D8ep9O7YKxKjBQhDzYPg0NGB1a3WDBGJcKGOfn0bp4FJywuTFtdHXQUTs7n4PZhyZiSIoHe6cHXtSb8yGLvHgDemZiB/8vt+xl6rlyHpw6TNawOUwixe34Bq9ftLy+U64njn4HOm+qt8woCNjhSogMVfD+UGRxYsKG2xx13joSPPQsK/Y7bbW6z4ZKt9TD7Uc/ac4YSNbD8bW8LrB4vHh2dilwpH9t1dizYUEt87rlSPvYuKCT+wJ27uT7guE53RiiE2DG/gCgc5MtaE27Y3RzwMSUqETbNyQ/4GJPbiycPteHdSgOr/okuxqlEeGpMGqYH6aqPNJ9UG3H/gdYe5dWBclmeEi+NS4/6TU08sqLZgqu2NxJH8HZHwuMQrc4FHKByyVCfzbI37G7Gl4R9ADcPVePZseHvfq+yuHDGqmpWP5Ofp+dgRpB8AEp0oIsAH9g8DC7f3tDnA3x5flLA2fppKRL8OD3XZ/Lb9FQJcbfqa6en472JmadsKCcniwNacPamzurGmxXkLnSX5ZHH25Z3OIkT3nztU/aGpHtdyefi+ZI0lC0swm3D1EQz2Qo+F1fmK/Hz9BxsmJMfc2IPdE4z7JpfiPNZ/G79UaIS4bupOXhrQvQrGPHKwgwZls/MJZq+6OK0JBF+m5GLsUlkz5mTLvM7GaO1k1ex5vkY6QsHd/7ewkrsL81TUrGPYWjTng9eOab32U09huBDPUEtxvKZebiym/tdtoSPV0sziF/f1+X6sdNS8WujmXgP/cVyPa4qSEIyQdb8+dkK/KNM69e+tzevHNVjUUbwC45GyMVQuSDguOA4FXkPQa6Uj8dPS8Xjp6XisMmJPe12VJqdaHd64EXnjUGuVIASlQinq8Ws/OyjRYaYh4/PyMJ+owPPHtHhtyYzSLdxU0U8LMmS47I8JSbH6bx+rHG6WozNc/PxY2MHPq02YYfO1mdSRs7vnKG/Ij8JCzNk4ADgkVbTAuRakPT4dDEhAkY239Z3YDUL0yiVgIunx9CZ+1iGCn4vtA4PXjnm2zbSS9gON1IpxLZ5+fix0QyD04OLcpUDnkUtkglwwxA1/k24cje5vXjmiA4vlgSfDJDwOLh+iAovlJPZZW7T2bCp1Ua0ai5ViwMK/ux+GKUAnalfo1jY4MY6Y5NE+HxyFvROD35qNGO7zoYjJifaHG64mc6KRbqYj3yZACMUAoxQipEr5cPuYWD3MNjQaoXTyyBVxMe4fjQF+mJTqxVCHhdyPgcyHhdyPhdSPpd1rG28weN09upckK0Ag04L5XqbG1wAmRI+ihXCPqXR4QohkTteoChcEeHPVS3ghn223eT24t797MJxHj8t1We8dKvDg0abGzqnByIuB2ohD8UKYcgbcinBoYLfi2/qTH734g4aHbggm6wZTsjlEDm/seGekcn4rMZIvBJ/r9KAG4eoiWJrbx6qxpsV7X77D3pz/wEtNs7JD7qXnxWg/J4vFaC0H1Gmgw2rh0G91YV6mxsNNjea7W4IuBykCHlweBg02lxotLk7vc6D+J4szVHgw0mZITmvK7c3+nWhSxPxkCLiIV3MR6aYjxypAFkSPrJP/pclEUAjjP8dQw46G+SCzfdfmqfEB1XBzam6PrsGlxcVZicmdHv/p4nILseFBBMmA+Wxg22sgpzO0Iix7GRQV5PdjRVNFqxssWC33ubTtVLC4+CMZAluGqLCokw5UU8QZeBQwe/FtwE6p7+v7yCeQw8HagEXd49IxgMHyNyuPAzw0IFWfDkluBlPspCHu0ck45GDZN24ZQYHPq42YlkQdy5VgC2FPxclJcwHvdXhwQmzC5UWJ6p6/cnGzCRW0Do80Do8OBzAFU7C4yBbwkeuVIBCmQBFciGGyAUokgkxchBVZ4BOG+FlBUlBHSnP2VSHUrUYe/V2jNeI8cO0nFPfG0oo5OIwV1j2tNvxLmFcMNBZEXliTBo+qzHhy1oTNrVag9ZCbR4G67VWrNdaUaoS4cMzsoLG+lIGDhX8bpjc3oBmMcfNLvzYaA64DxdubhyiwruVBmIToF+bzNjcZsM0AjOem4eq8XmNiTg16/79rZidJkNegIzrVh/GOkDn/vP1QwZfXKbFw+D3djt+N9jxe7sD5R0OHOtwspqvHizYPAwqzC5UmF1Y5+P7WRI+ik7eCAxXCFGiEqFULYaCH5+VgX+WpkPI5eCdAGJpdHmxS2fDnSOScduwnh74pPvy9jC+lzwMcNu+FlZeHmIuB+duquvR3FcgE+CsDBlOV4uRIebD5mXwQ30HPvcxhbDP4MCMtTVYMTNvUG3TxSJU8LtxjEDo7i3TYkaqNGr+0EIuB4+eloJlO8iNPh7Yr8V6gvK7iMvBe5MyMXttDVFzYIfbi2t3NuKn6bl+93UP+ckaeK4kLSRmNtGkw+3F7+0O7DPYUWaw4/d2O473I88gUWm0udFoc2Nzr73voXIBxqnEGKcWo1Qlxji1KC5uAvgc4KVxabgiX4kPq43YpLXixMkbcymPg7EqERZnynFlfpLPve4zUySQ8ThBvQAMhFG+/eGtE+0oY5n90XW+Xb0PfxmqxkQfNy+LMmSQ8rk+qwdGlxdX72jE9nkFNEY3jFDB7wZJJna9zY3LtjXgh2k5UesCvyBbgTc07dhBaL27z+DA13Umn2YfvRmbJMLr4zNwY5D5+S526e24YnsDPp2c3UfA9xsd2OQjoeuqgqSQ9zdEArObweY2KzZqrdjQavUbnEQZGF1Vge7GREUyAaakSDAjVYo5aTKks8iliDSnq8Wn4pq96Kx0kNzcirgcXJafFLScXmlxodXhCXm2QqPNjSdZGOx054JsBR49LSVoWT4vQBbHsQ4nfm40h2RMleIbKvjdIJXvLW02LN3SgA8mZUYt0OSpsWmYt57cjOexg204L1vhM6GrN5flKdHq8OBBwl6BNS1WTFtdjZdK0zE7TQqXl8FPjWbcXabt44W/OFOGV0rjw2Pb7mWwvc2GDa1WbGy1ss42oISOSosLlRbXKT/3YrkQs9KkmJUmxfQoVtyCwQVYVbJuH6bBh1XBDaY2tFpDftN8d5mWuGm3i1FKIV4pTScaC+1we/FuZeApo1XNVPDDCRX8bqQQdskCwMZWK85cU42nx6TholxFxJvPJmnEuCBbEdS6tot6mxtvHG/HHYTZ2X8vVkPJ5+KO31uI3O1OWFw4f3M9RFwO3Azjc5b85qFqPD02Nabdnnbo7diotWKd1tKn1EyJHY6bnThudp7aLy9RiTA7TYZ56dK4Nn7JlfJxZUESPgzS8f/G8faQCv7yZgt+YmERzOcAd49Ixt0jkolK8AyAv+xuRm2QtMgT/Qwoo5BBrXW7YXJ7kftjBauGFaAzTOevxWpcQBgYEyqqLS6MX1lFbMaj4HNRtrDQ5/6hP3bo7bh+VxOqB/BB1Ai5eOK0VFwVpKM/Ghw2ObFea8EGrRWb22zoIIwjjlVCOZaX/1OF37G8WEbJ52JuugwLM2VYmCEjMp+KJUxuL2asqQmaqvjp5KyQNBBbPQwmraoKKsbdeWZsKm4ZStZ062aAW/Y04wsC2+DpqRL8Mj2X+Dwo7KCC34vpa2tYN610oeRzcXaWHGdlyjAnzb+FZih54EAr/nWc3Eb3+iJVwJjeBpsbYh6nx0XS6mHw8lE93qxoZyWIXeE/dw7XRORnQYLdy+DHBjOWN5mxvtXqM543nqGC35eJGjEWZshwVqac2AI32hwwOjB3XW1AW1uNkIe1s/NQNMBxtocPtvk1G/PF2KTOcCaStc2edjtu3duC/YT9LjcMURGZhVH6BxX8XrxyTI+HCWfRA8FBp8/25GQJxms6u42HKYQhzzI3uLwoWV5JfGHmcYCd8wv8xsOetbEO52crcNOQvtGbRpcX39R14IfGDuzQ+Y7ylPE4mJIiwaJMOS7MUcaM+cqaFiu+rjPhx4aOoF3Q8QwV/MDkSPg4L1uB87IVmJwc26ZPK5otWLajEdYA79c0EQ+fTcnGGf202j1icmLqmmriUCoOgDWz83oYBvXGC2BdixVvVLRjFcuo5u+m5hDFjVP6BxX8XuicHoz+rTLgh6y/SHgcjEkSYdzJLt6JGjGGyoUD3v//d0U77ttP1mAHdDbOfTkl2+f3Jq2qxuX5yj4zwr1xM0CN1YVmmxsOLwMpj4tMCQ95UkHMmOnsabfj61oTvq3vgHaQreT9QQWfnEwxH+dly3FBjgJTYjSLYE+7HRdvbQhYieIC+FORCncN1yBL4r8PycOgx4KDAbBwQx2268h7Va4rUuFlHxVCo8uLrTobljeZ8VOjuV+Vs7FJImyaG3x8mNJ/qOD74KnDOjxXTpZLPVBUAi7Ga8SYoJZgcrIEZ6ZIAiby+cLFABNXVgXd8+vOL9Nz+3jhtzk8GPLLCTwwKhn3jEhmdQ6xQq3Vjc9rjPii1kRsTjSYoILfP9LFPJyTpcBFOQqcSWBSFUkabG7ct1+L7xsCN9VxAcxMk+LMFAnSRXwkCbnQ2j2os7qwS2/HIaMDBxYVnUrz/KjaiL/tbSE+jzQRD3sWFGK7zoZKiwv1VhdOmF04YnIM+LMm4nKwYU4+Nd4JM1TwfeDwMpi6pobIiCfUiLgcTEuV4PxsBc7PVhDvff/QYMZVOxqJX+e0JBE2zsnv0WHbVSl4riQNf/FR0o9VurYavqozYrsusUfnqOAPnFwpH5fmKXF5fhKGxJDd64ZWK5463Nav9/gwhRC3DtPgsjwl+JzOSubpK6pY/X7fn5SJC3MUyPjheEidI7kAPpmchXOi6GCaKFDB98PRDidmr6thPZcaSkRcDi7IUeC2YRqiO98FLMtzl+cp8crp6eBxOPimzoTb97XA6mHiZh/tp0Yzvqg14WcW40SDHSr4oWWCWozL8pW4KFd5amUcbY6bnfi02oT1WgsOGB1+998LZQLMS5fh/GxFn2rejbvJuua7mJ0mxQ/TclBndWP08sqBnH4PpDwO3pmYScU+QlDBD8A2nQ1LN9fHRJPX2ZlyPD02NaCT1e52O+asIzfjAQABB+BzOafu2MVcDiqXDIU8Rv0tj5udeOuEAV/VmmBMcDHyBRX88LEoQ4ZlhSoszpRF+1ROYfcyON7hhM7hQYfbCzGvM352mEIIpR874k2tNpy9qY74NURcDrbPL8AQmQDrtFact7k+JOd+ZooEr5amY3iQJEJK6KDGOwGYkizBqll5uGJ7Y9T3g39pMmNNiwX3jUrGrcM0Ps1rJqjFuDBHETDxrzcuBnB1u6G5OE8Zk2L/S5MZb1S0Y1Nr4prhqIQ8KPlcJAm4SBLwoBRwoRR0/l0p4EHK4+A0ZejGzi7PT0K11QWt3YMWuxu11sTriejOb80W/NZsQY6EjxuHqnFNQVLUx03F3M5GYFKcXga37SPftweAu0ZoTm1tDPQ6yOMAc9JkuHGoCgvSY+fGKVGgK3wCLB4Gzxxuw39OGOAMMBcbKRZlyPDepCyfwlxjdWH8yup+naeMx8GO+YUB0+8iSYfbi89qTHj9uJ6VKUi8MUwhRLakM08+TcxDmpCHNDEPKSI+MsSdmfOaGDGPsXsYGFwetDo6m8EOGR2ot3lQa3WhzuqKSt9LtBBzObg0X4m/Fav9jrnGGi8f1ePRQ+Rjx8VyAbbNKziVG/LwwVa8ciy478fkZAkKZAK4vAwUAi7ypAKMUgoxPVUaF0FIgxUq+Cxotnvw2jE9PqgyRL3MPzZJhF9n5vos2z1+qA0vHiU30uji1dJ0XFsYfTe8KosLb1a046Nq46CJlU0R8VAsF6JYIcQwuQDFis7/J81Ajyc63F402dyoMDuxt92B42YnjnU4/SYnDgbmpktx81A15sf4qnXEb5VotJHfPP88PaeHVfGyHU1Edt6fT87CErovH3NQwe8H7S4vvq0z4es6U1S7wuelS/HfM3P6mPk4vQxmrK3BYRP5auvBGBjF29NuxwvlevzaFN9NeKOUIoxRiTBGKcQYlRhjkkSs7IwHM20OD06YndjXbscBkxP7DfZ+O1vGIsVyIW4brsFV+cGTKaNBOosO+0vzlHh7QkaPr81dX0sUIrU2iDkPJTpQwR8gtVY3fmsyY53Wik2t1oh7sd82TIPHT0vp8/V6mxvnbqpDRZB89hQRD6+Vpkf1bnxNixUvH9PF5f78MEVnmXK8WoQxSWKUqOLDujXWqLG6sK/djm06Ow4YHCgz2tERxw2DORI+bh2mwbLCJKKEykhBukJXCbjYu6Bv7sbwXyvRZA9eITiyqAjZAUyAKNGBCn4I8TDAPoMdO3U27NLbsVtvR02YG514HGDDnHyfHuHtLi8eO9iKj6uNfUZ3kgRc/LlIhduGaaIWLfpDgxkvHtXF1QpvqLxT4KenSDAtVYIMMb2ohYs6qwurWyxY2WLF5lZrXE5laIQ83DpMjeuKVDGxd11ndWPO+hq02AM74b1Wmo5rem3veQFo/nesT+S1L/QXDCNK0aNEFir4YabV4cHudjt2623YobNjh84GR4gb/+akSfH9tBy/3293ebGuxYJaqxsSHgcjlEJMSZacasSJNJ/XmvBSuQ7Hg1QfYoE0ER9nZcowK1WCaalSKvBRpMriwspmM1a1WLGlzQZLHCUbJgm4uGGICrcM1UQ9X+K42YVlOxpx0E9PxRkaMVbOyutjcat1eDD0lxNBj6/kc1F/7tAQnCkl1FDBjzB2L4MdOhvWaa34qaEjZKK3fnYeTo/xPbOv6kx45rCOlQVwNJicLMH8dCkWZMhpiT6GOWB04Ku6DqxsNqOcRb9KNJHwOLhjuAZ/L9awttAOJQ4vgzcq2vHPo3oYulVOUkQ8rJ2VhwIffh+HTU5MXl0d9NiFMgHKFhaG8nQpIYIKfpQ5ZHLgf/Ud+LDKiNYBBLwEi72NJj82mvHkoTaUx+jIlkrIw1kZMpyVIcPc9MjEGlNCi87pwW9NZnzXYMaqZnYJbdEgU8zHQ6NTcGWUm/tsHgZrWiwo73BCzudiaY4CaX4aTDe32bB4Y3DDnglqMdbOzgv1qVJCABX8GMHhZfBVrQmvHW/v1yxzppiPo4uLwnBm/ee3ZgueOtRGnIUdSVJFPJyXrcC5WXLMSot9G2EKOW6GwU6dHZ/VmvB9Q0dMN/+NUgrxzNg0zI6D9+AvTWZcti14XkewLUZK9KCCH2N4GOCdSgMeOdjKegb98KIi5MRAZ+yWNhsePthKNL4TSTLFfFyQ0ynysZaIRgkfO3Q2fFhtwk+NHTDFqPjPS5fimbFpMW0z+2WtCTfsbg76uHOz5Ph0clYEzojCFir4McoRkxMXbqlHPQuTjB+n5UR1tdpoc+OeMi1+jKEwG7WQh0vzlLg4R4EJmtjucaCEn116G96vil3xv6ogCY+OTkFqDPo2fFBlxK0EtrxX5Cvx5viMoI+jRJ7oLwcpPhmpFGL5zDzMJRih6UI7gB6AgfLSUT1eKNfBGiPOeEtzFLg0V4GzMqnbF+UPJmokmKiR4M3x6VjbYsGbJwxYEUN7/p9UG/FNnQl3j0jGXcM10T6dHtgJp4tEMeQ7QOkJFfwYJk/Kx6eTs7FwfS3R7KsnCsWazW023LynGdUx0Hk/NUWCS/OUuCBbASVtvKMEYU66DHPSZTC7vfi61oT3qow4EAP9JjYPg8cPteHDKgOeGJOKC7IV0T4lAICbUPAFVPBjFir4Mc4ZGjH+VqzGq8eDB1bIImjsUWd14+6yFvzaFN3VkVrIwzWFSbimIClgdDCF4g85n4s/FanwpyIVmmxu/LvCgPeqDFGf86+1urFsRxPeTG7HcyXpKI3yiCjpckLAoYIfq9BlUBxwz8hkJBOkpUXKyvLZIzqMXl4ZVbGfkSrFB5MyUbNkCB4bnULFnhISMiV8PDkmBTVLhuBfpekxYQ+7XWfHzLU1uGl3M3TO6G3bka7cY2NTj+ILKvhxgILPxXVFqoCP4XM6Q1vCyZY2G0pWVOHpI7qwvo4/kgRc/LVYjT3zC/Dz9BxcmBMbpU7K4EPI5WBZYRKOLCrCihm5KI0BU6vPa00Yv7Ia/60L7oUfDkgzAaKxtUghgwp+nHBJXmCDjgkacdicu7QOD67d2YRFG+tQFYW9+gwxH8+NTcWxxUPw9JhUFMfw6BJl8DElRYINs/Nw+KxCXJkf3fhovdODP+9qwvmb69FM2MwbKtQEVUYAfXI7KLEDFfw4oVguCBhyc36YGnv+c8KA01dU4dv6yK8qcqQCvFaajmOLi/CXoeqoWpFSKDlSAd4Yn46Gc4fiH1GOkl6rtWLCyip8WGWM2GuSRjxb4yjjINGggh9HDPOzshVzObg0SAWALb8bHJi6pgb3lGlhivAHeJhCiPcmZuDwWYV9ErsolGij4HPxwKhktJ5fjBdL0oj6a8KBye3F3/e1YOGGOtRayf06+gvpvzPSEeEUcqLfkUIhhuun+3VZYRI0IbzoPHNEh2eisE8/OkmE+0Yk49zsxJ6dt3sYNNvdaLK70Whzo9nmRpPDg0abG1q7G1aPFw4PA5uHgd3jhd3b+f8WtxdLcxT4cFJmSM5j9rpa8DgcqIRcqIU8qAQ8aIRcFMgEKJIJUCQXxqRBTKQQcTm4YYgKNwxR4b91JjxxWBeV8dRtOhvGr6zC42NS8ZchgXt9BkKulKwx1uCKXmMhJTBU8MOM0eXF8+U67NbbUaIS4bZhGmT1s/O32d73Lj5JwMW9I0NTXqyyuHDtzibsbY+sJe7oJBEeGpWMxQlmkmP3MDja4cQRkwOHTE4cNjlwxOhg5a4YTirNTrQHcaOT8LgoVghQJBOiUC7AEJkARfLOv/f3fR6PXJyrxMW5SvzcaMY9ZdqI/w4dXgb/KNNidbMF/5mQEZYbMTmfgzwpP2g1gdQojBJ5EucTGQW8AJZuqT/lKb9NZ8MXtSZ8OCkLc9PZWeDWWF0+Vw9Pjw1NSfH9KiPu36+NqFNeiUqEB0YmJ4QbXqXZhUMmBw4ZHdhvdOBohxPHYzQ9kA02jxf7DQ7sN/g2rBmlFHXeAMiFKEkSYoJGMqhHKJdkybEkS47Pqo2472AbDBEeo1vVYsHEVVV4Z2Im5qfLQn78UUoRgeDHxg0rpS9U8MPI2hZrnwAZo8uLi7bW49/jM3A5i33358v1fb52QbYCVw0wXrPV4cGNu5uwusU6oOOwoVQtxv0jk7EwI/QXpFhgt96OHTrbqVX7YZMD9hixHI40Xf/+7qiEPEzUiDFBLcZEjRjj1WLiDvB44YqCJFySp8R7VcZ+BWENBL3Tiwu3NOBPhUl4tiSNeJyOhEnJEiwPYkVsdHmhd3qhEdIWsViDCn4YOWLyverxMMBNu5tRb3Xh7hHJCPZx/Ka+A59U9+zGHZskwpsTBhZQsaLZElEzjwKZAE+PScWSrMGzoq8wO7Fbb8eedjt26e0R3w6JRwxOD1Y1W3rk1o9UilCqFmGCuvMGIBbm3geKgMvBTUNUuKYgCS8f0+PZCPfFvF9lxAatFR+ekYWSELn0zUuX4fFDbUEfV2F2YhINq4o5qOCHkWBWt08e1mFvuwP/mZDhc+SOAfD2CQPu3a/t8fVhCiG+m5YD6QDG1O7f34rXK4Lb9YYCKZ+LfwzX4PYYCwPpD0aXF2taLFjZYsHKZgvaohhYNJg4YnLgiMmBz2tMAAAxj4PT1WJM1EgwL12KmamxnxfvDzGPg/tHJuOWoSpcv6s56Ao5lJywuDB9bQ2eHJOKvxerB3y8EpUI6WJe0H36g0YHFfwYhMbjhpEDxs7RtmCkini4fbgGF2QrkC3hw+phsE5rwT+P6rGz15bAOJUI30zNQVo/m3IabW5csb0ReyK0Er0yPwmPjE5Gujh+7y0PGR1Y2dwp8lvabNE+nYCEsks//6eKoE17kULG52JeugwLM6RYkCFDmih+309lBjsu3troswk3nCzOlOGdiZlQDDBz4+GDbXjlWN8txu5cVZCEf5+ePqDXoYQeKvhhZuGGOmzTkYsEn+Pfqer8bDnenJAJWT9X9uu0VlyzozEiF/EJGjFeLU3HmKToBn70B5uHwQatBStarPityYzGGOmaJ2GwCn5vxmvEOCtdhv/LU6IgDpsAGQAfVRvx973B8+VDSb5UgC/PzMLoAdhwV1tcKFlRFdAzv0AmwP6Fhf1+DUp4oIIfZnbq7Vi8sQ5OwmhJX0h5HDwxJhXXB/HTD8TDB1vxyrHwl/BVQh6eHpMSdQtSttRZXVjRbMHy5s5SfbySKILfnRKVCOdlybE0R4kieXyJv9XjxZ2/t+Kzmsg55om4HLw4Lg3LCvr/Gb1pdzM+rzUFfMyeBYUojrPfx2CHCn4E+L7BjGt3NqI/jbqLMmR4riSt36uYFrsHV25vwA59+Ev4/5enxDNjUoktOKON0eXFt/UmfFbTgV362C7Vk5KIgt+dEpUYS7PluChXQWwUEwscMjpw3uYGaB2RqyZdnKvA66dn9MuyusXuQenKSpgDGOffPzI5ZB4hlNBABT9C7G2348bdzThKMHvNBbAwQ4bbh2swOVnS79fcZ3Bg6eb6sHfhF8gEeP30dMyIk8aqNS0WfFZrwjdRSh0LJ4ku+N2ZmSrFVflKnJOtiIscBg8DvHhUh6cOR66bf4RCiP9OzUZ+P26OvmvowLIdTX6/nyflo2xhEeLgR58wUMGPIB4GWN1iwVe1JpQZHKi2OOFmABmfg0wxH5OSJZicLMFZGXKkiwe2Sv62vgPX7vT/YQwVdw7X4JHRKWF/nYHSYHPj/SojPq42DmpjECr4fVEKuLg4V4mr8pU4PQ7G/Rptbpy/pR7lpsgYM6kEXHw+JRvTUtgvLl48qg84pveAMy4JAAAgAElEQVT2hIyQ53xQ+g8V/CjiBcA5+V8oicTI3ViVCG9PyMCoATT/RIJ1WiverjTgl0ZztE8lIlDBD8wIpRBX5yfhynwlVDFu9vNxjRF/3RO5pr6XxqX1q0/onUoD7v5dC1/vlEwxH3sWFELOp8v8WIAK/iDC5Pbi8m2N2NgaXte8u0ck46FRsbs3Z3J58XmNEW9VGnHCHP/2tWyggk/OBTkKLMtXYk4YLGhDhd7pwXmb6lFm9G3iFWquKUzCa6Xsx+m262y4flczaqx97b8vzFHggxC9JykDgwr+IKHS4sIFm+tRFca0riK5AO9OyMSEGDXUqDA78UaFAZ/VGCNqZRpLUMFnT45UgKvzlbimMAkZMeoX8UGVEbfui8xq/wyNGF9PzYHahxlYICweBi+U6/D68fY+U0k3DVHhuZK0kFczKeyggj8IWNNixVU7GgJ2zA6Um4aq8djolJhsfvq1yYy3ThiwThu5PIBYhQr+wLimMAm3D9PEZMCP1u7G2ZvqiRp/B0qelI//Tc3BMIWQ9XNrrC48f0SHL2pNPTxFZqZK8eSY1JDZ/FLYQwU/zvmqzoTrdzWH7fg5Ej7+MyEj5jrwzW4vPqsx4V/H21Hro4yYqFDBDw0X5Spx5zA1RseYcRQD4N8V7bh/f2vYX0vO5+DrM3P61cwHAE12Nz6uNuKbuo4eNykpIh5+nZGLEf24maAMDCr4ccxz5eEd4Tk3W443T8+AgmVpL5yYXF68XtGOfx1vh8WdmGIUCCr4oeXsLDnuGa6JuTCfOqsLCzfUoT4CLpAfTsrE0hzFgI7R5vBgd7sdFWYn9A4PbhyiHvAkEoU9VPDjlFv2NOOTmsBOV/1FIeDinyVpuCSGxmmsbi/ePGHAK8f0MCa4CAWCCn54WJwpx8Ojk2NqKsXDMLh5Twu+COJ4FwpeHpeG6wbg9EmJDajgxxl2L4MrtjViVUt47F/PSJbgo0mZyJLERvOS3cPg/SoDXijXRyzGN56hgh9e/i9PiQdGJseUf//KZgsu2toQ9te5tViNJ8akhv11KOEjdmq1lKDonV4sXF8bNrF/bHQKVs3MjRmx/6LWhHErq3Dv/lYq9pSY4KtaE8auqMIdv2sjnnbnjwUZMlQvGYKh8vDuib96vB1X72gM62tQwgsV/Dihye7G3HU12GcI/TxuhpiP9bPzYiavfrvOhhnranHj7ua4SqqjJA7vVhpQsqIKjx/WwRQDVRCNkIfd8wvw16EDz7wPxPcNZizeWBfWiSBK+KCCHwdUW1yYu64WJ8IwYz9RI8HWufkxYTlaZ3XhT7uasGBDHX5vD3/YD4UyEGweBi+W6zB2RRX+fTz8SZTB4HKAp8em4n9Ts8P6OpvbbDh/cx1MtGk27qCCH+NUmF2Ys742LN241xWpsGZWbtTT7WweBk8c1mH08qpBGWhDGdzonR7cd6AVo36rxJcRaKALxrx0GQ6fVRjW6ZqdejsWbaijPR5xBhX8GKa8w4l562vQ5gj9/vXbEzLw8ri0kB+XLV/XmlCyogovlPccLxTACzknsWxxKfFNvc2NG3Y348w1NdgTgTjqQORIBTi+uAhjwugjcMDowML1tbS/Jo6ggh+jHDQ6MH99LfTO0N5Bp4h4WDMrN+oJVgeMDsxZX4vrdjf7bH56QbEO9alv4EX5Wiio8FPiiINGB2avr8U/9rfCGsWyt5THxaY5+bg8jJ/18g4nFqyvhTYMixJK6KGCH4Ps0tuxYENtyOfNRyeJsGVuPiZq+uecFQr0Tg/+trcFU9fUYLefVdAIvh7LJIfABXCDpAx7NR/gIlF5ZE+UQhkgb1a0Y/yqaqwN01QNCVwO8J8JGXgpjNW842YX5q2vpQ22cQAV/Bhju86GczaFvgt2ZqoUq2bmIjOK4SDvVhowdkUVPqo2BnzcM/KN4DF/3Oyk82x4X/krflJ9g0KeIdynSaGEjAabG+dvacCfdjWHZWuOlOuLVFg+Izdsx6+2uLBgQy0aqOjHNFTwY4h9Bgcu2FwPa4iT3i7JU+Kn6TmQ86Pz6z5hdmLu+jrc8bs26AjTDGE95gprAM7JkB4OB2AYgMPBTEEdyjTv4y7pjgicNYUSOr6pM2H8qmp8HcWmvjNTJNi3oCBsx6+1urFoYx1aaXk/ZqGCHyMc7XDinI11sIRY7P8xMhnvTsgI6THZ8Hy5DqUrq7FLbwv6WB4YvKhY30vse/0JQMChncGU+KPd6cF1u5tx4dYGNEXJtGeIXIjqJUOgDFMHf7XFhbM31kFPG/liEir4MUCF2YWzNoR+rvXfp6fjgZHJIT0mKfva7Zi4qhpPsgj3uUZyCCP47T5FvuvPeq8SL1snhf6EKZQIsarZgvErq/FxkK2tcKER8nBsURGGyMNjD1ze4cSSTfXooHP6MQcV/ChTbXFh0cbQjrZIeBx8NzUbVxUkheyYbHi+XIeZ62pZ53bfId/T+T+9xR4n/w7gAfMMOBiaskWJb8xuL/66twXnbq6PSOJdb6R8LnbOK8CZyeFp4D1odGBpGLYnKQODCn4Uqbd17nm12EMn9lI+Fz9Pz8HcdFnIjkmKzunBkk31rFb13VmgvxA/OIZ2/sXHCn+dMw/fOYYFPU4yN/j2AYUSC6zXWnHmmhqsjkInv4DLwa8zcgccfeuPHXo7LolAqA+FHCr4UULv9GDJxrqQdrUmCbhYPj0nKmN323Q2nLGqBhtbrf0+RoNHjqsMi7C4fSkOuFJ6iL4HHNxjnhX0GPOEVTiseRv/kG6DiEP3ESmxj8HpwdItDXjsUFvEX5vLAT6YlIlrC8NTDdzYaqWiH0NQwY8Cdi+DczfVozKE3vipIh5WzczDuCh44j9frsPCDXXQOkJz87LZmY3p+kvxV9NcaBkpwAAf2U/DUXfgcB8eGDwj2wAJ3HhAthU7VR/gbGFFSM6JQgk3Lx3VY/HG+oiP73EAvFqajrtHhKffZ3mzBTftbg7LsSnsoIIfBS7f1oD9xtCl3mWK+VgxMxcjlOGNx+yNwenBuZv7X8IPhBccfGwbhXFtV+NF60Q8aZ4S9Dk3SvZhOF9/qjJQyDfiC+X3+DXpKwzj6UN+jhRKqNncZsWUNTXYoYv8ttRDo5Lx7Njw5N1/XmvCs0dCf52gsIMKfoS5flczVrf0v+zdm3yZAGtm5YY9C7s3e/R2TF5Tg/Xa0P1bfGFmhHjcPAVt3sDbFClcGx6Ubf3jC922A6YJ6rBd/SGek62FmkNT+CixTYvdjfkb6vCv45G/Sb15qBofn5EVlmM/fUSHb+tpOFY0oYIfQV48qsdXdaEz3ig4KfY50vCM1/jjrRMGzI4xK80HZVsh53adT985fj68+ItkL35Xv4MbxPvABe0epsQ2Dxxow7KdTbBHuNP9/Gw5fpmeE5ZjX7uzKeyLBIp/qOBHiO8aOvB4CJtyCmQCrJ6VizRR5KxyrW4vrt7RhLvLtBF7TRLGC5qxTHLo5N84Pf/koEe3v5rrwIvy1dik+hjTBHURPlMKhR3f1Xdg5rpaVIWw34eE6alSfDc1OyzHvmJ7I46xHNmlhAYq+BFgm86GZTuaQna8YoUQa2blRVTsK8xOTF1bi+8bYq8k94BsB3joZvLBOaXynf/5mOsfw9Pi16Qv8YniexRQf35KDHPk/9k77/imyv2Pf0520qR70hZaRrHIKFBm2SIKCDhQ1Ou4iOPqvYIbvTgQ0evC8bteFw6cOAAVBQTZQwsUKC2z0FI66G7a7H1+f7Slp2lWk+ekSXrerxek52n65HlOkvM9360yYsLOi/i9SuPX170qIQxrx5E376stNszZV8F12OsGOIHPMhe0Ztx8gFxaygCFCFsmpSBO7L/iMwcb9Ji8qwzFmsC8K1+kugYf6IfDQvM6Vea7jJPKffPE53A48jMsl+2FlPKvFsXB4Slqsw23/HWJlQBZV8xOkuPz0UnE560yWDBvH1eYx99wAp9FNBYa8w9UECuZO0AhwrbJ/jXj/1CmwtV7yqEm3KqXJEqbBEvVkzFWeSf+MKa1DNpX6gMcC30aEFNWPCbNxdGoT3CT6DTsbhU4OAKG1880YP6fldD6sWztTSkK/G9kAvF5T6qMuO8wOcsnh3s4gc8idx+8hHMaMlpjf7kIf0xORYzIf5r98yfqcW8Q5c8WWaJwU/P1uLHpepTaIltHXQh9O+GfzFPjc8Wv2BHxFYYIAitOgYOjjW3VWkzeVYYynf8sUnf2icBbWfHE5/31kgZvnuVSZv0FJ/BZYsXJevxBqFxmvFiAjROSEe0nYa+32jD/z0q8UxScX8TtpjSMarwLz2omQkWL7Hz6cFGrv+U4W1iFfRFr8K58K+J4XEQxR+BRpDYhZ8dF7PJjxPu9fSOxYnAs8XlXnKzHtm4oLdwT4QQ+C/xG8K5VJuBh48Rkv6Xe1RotuGp3ObZVB/cX0Ejz8X+6kRjeuBDfG64Abf9Rd+LTbxvnAVgozkd+5MdYLD3ElenlCDiazTbM21+B1SX+Czp9JCOalTK89xysIlp5lMMxnMAnzCmVCfccIueX+n5cLwwKFxObzxXnNSZM2lmGEwSrAHY3dTYZ7lNdi6uabkWepS34yLVPv/2YBwVlxErZLhyKWI3pwhI/r77r1BLqs2600VAGcNwGRzuP59fiP36sYvfO8ARcnUi2OZfKYsPNByqhsXBBfGzCCXyCKM023HSgAgYbmQ/tF6OTMDlORmQud/zVoMeUXYFVTIckeeZEXKW8Ff9UX4Namwye+PRbfwAApPObsSH8R2xQ/IAMfuCWCCWVr13GaVtBxX9ON+Dpgjq/vBYF4IdxvTA4gqwick5jwsJDl4jOydERTuATZNGhS8S63z03KAY3sNS20p515Wpcs6ccqhDX6GgAXxmuRFbjQrylGwUjWrMdHPn0mTDGp4tKkBv5GV6VbYecCrw0xUq9BecIpE/+5uecbw7fef+8Ev88WuOX1+JTFHZN7Y1ECdm4oq3VWrxxJjhjh4IBTuAT4t1zSmI18hemR7LWucqed4sacU8PS43R0CIs107AqMa78YtxQMugM6FPMQP6WgL/BLDhIekR5Ed+hDvFBQFXpvcPAvEXP5QHXoElDvd8VdqMuwm6FF0h5lHIuzodEj7ZRNaXTtX71GabwzkUTdOBdbUKQo4oDZi6q4zIXBNiZdg8iZ061va8dbYRy7uhB3egMUFYgXfk25EhaARoulW2tz7amMcUQNvQLvxbxgut8ViqnY79lt7dtgcmcgEPh65OQ4rUu3oN31xU4cEjwZOOydGZ6Qlh2MBSaVx7LmjNGLb1AtE5Y0R8/Dm9D5Ik/qs50hPgBL6PNJltGPNHKaoIBEsNVIiwc0pvKITsG144Yd8RAWy4R1qAZbI/EUXp24U8ADA1eJrueAz6csbfL8YMPK27GpU2/7hiXDEiSoLfJqZALujaZ+m0yoiZeyvQaOKyEoKdiXEy1prg2LOlSoMFf5H1v4+NkWDb5MC4iQ4V+MuXL1/e3YsIZm7PJdPbPkbEx7YpvRHrh5K5759X4tkTnLBnYgOFI5ZEfGEYgki+CcP4tYzqvFSHNH5QPLQP0JfN/lcIGnCP+BgElA1HrEmwwH9FkuypMlhwqNGAm1IUEPA8M7luqFDjvsPVqONqnIcEZToz9tfrcWOKAkIPPwPeMkAhAihgf52e2JwVegv0VhumxpPNCOjJcBq+D3xY3ISnCHWO2zO1N4ZHSYjM5Yr3zyv9Fs0bzAwR1OG1sJ2YIKrorOnTdhr+5R/bzf+VNgWe1U3DetMgP63YMRFCHm7rE4E5SWGY6CDjQ2+lsemSGquKlDgZQumYHO2MiZHi55xkhHXR2uMNt/11CZsIB3yuHdcLs5PkROfsqXAC30sKm43I2XGRyFyfjUrC/FT2zcD/O6fEM4WcsO8Ks0Xn8Yp8D9J5So99+swYgP2mVCzVzUChlXxZ0q4SKeJjbIwUGQoRwvgUchv0yG3QQ881MAl5RkRJ8OuEFNbdhVYayP6jlGijLbmAwl/T09DHT8XHQhlO4HvJyG2lRNKfns6Mwb8z2Y/I/7SkCY/mc/XhvUFMWfGo9BAekR6CjDLDU59+myXARgNfmLKwXDcFSlrqv4VzcDAYGS3BlompxKPq7dFYbOi3qZjojeSIKAl2T+X8+b7CpeV5wbOFdUSE/dR4mV+E/XdlKk7Y+4CR5uNV3TiMVN6D74yDHJTpbTumWv7ZpfjxKGCh6BjyIz/EfeI8CBDa9Q44ApMjjQbcnst+YRu5gIcDV/UhOudRpQHvFCmJztkT4TT8LpLbYMCMPb6n4KXIhMi9qg/CWTax/XZJ45cveU8iW1CFd+Xb2jvqufLpdxhreSyyxuBp3XRsN/dje6kcHJ24Ky0C740g3+7Wnk9KmvFYPtlCQIevTsNAhYjonD0JTsPvAgYbjXsIlX78cVwv1oX9tmptQAn75yOOIU0Q/AVd8ixJmNh0F/6pmYlaW5jTcrwOx2kgg9+ADfLvsEHxHdJ4nNbC4V++LG3G62fYLw99b98IXEu45v5CPxUVClW4tLwusPR4HXYTqAD1f8MTMIPwF8GefXU6XH+gktXX6ArzZaV4Leow7pGfg5yyIM8UC1M3pq35Cg0KBZZ4fGYYBgrACGE1BJSDvP3LBfo63wT05TXiHslRhFFm5FmTg/p8cAQXe+v06BsmJF4P357rkxVYc6EZWkL+/FqjFSIehfGxXCyMN3AmfQ/ZV6fH7H3lPs9zc2o4Ph2VSGBFzilSmzB1dxnUAVIbX84z42Dir0gVaC+buWutEqxoHo6vtf1hs69dH4Sk8ZvwVtj2lo567qL37Y8poNYqw4uGafjaOCzACvVyhDLrxiezrnxU6C0YtIVsp0nOtO8dnMD3AK2VRtbWEtQYfCtIcmWEGLum9GY1SrbGYMGUXWXEmviQ4MXIY3g0/KRDn3ahORpLGscizxTXXcsjynTRBbwq28noqOc4T7/D7xjHeZZkPKWfgTyLf8qicvRsJHwKf0zujWGR7Gr66yvURM3xgyPE+JNwYGBPgPPhe8AzBbU+C3sJn8JXY5JYFfY6iw3XH6gMKGGfwtfiIcWZloNOPm0ehggasSNhCz6O3odkfvA3zNhuSsfYpoV4VjcFarRdRB204nVynC2oxA7FGqwO+xnJPJWfV8/R0zBYaVy/vwIlGnbbId+UosB8gt0/TzQbua56XsBp+G443GjAVbt9j8p/c1g87u8XSWBFzpm3vwK7agNLaK6N24vZ0jZXiBPzduu4zsbHu+rBeEc9GHo6+JtmxPF0eF62F3eLj3f8hQeaPgDoaQFmqu/CUWsvfyyXoweTIhNi99RUxIvZ+96ZbTTSNxUTbcNdcE060sK4gjyewmn4brifQOvYqxPDWBf2Dx+tCThhP11ahdnSCuctZ+2i12U8G54Jz8fRpJ9ws6wk6D37dTYZHtZci5zmhThs6QV3+7e3gJTRkThpZT99ioOjQmfG3H2V0FnYi/sR8ij8MTmV6JwPcV0duwQn8F2w4mQ9irW+mbpiRHx8nM1ukN7qkiZ8UdrM6mt4Aw80Kq0yRj95xmOHPvOtx62NaJJ5OnwavRc74jchWxT8pYALLfGY3nwnFmrmoNIW3jLoyLzPHAeFZ3RXw8hF7nP4iVMqI24/yG7aW2a4GEsJFhvbX6/HVxc515encCZ9J5xWmTBme6nP8/wyIQVT4zs3LSHF4UY9rtrte/YAW0gpCx4JP40l4acg41kdm7Evm7dbo9sZteppmsYPur74d9No1NnYby7ENlLKjCXSQ3hEkgsZZekUrd9Wq3+7KR03am7r7uVy9ECWZsZgGYsVQGkA2dsu4ByhuIEIIQ/Hr0lHtIi7OXYHp+E74T4CpvxFfSNZFfaw6GEr24QMkZa91/ARPS3Af5qHYOSlOdioY5rzHJm36U6aLgVggawE+UnrsURxAmIquFu36mkhXtXlYGTT/fjFNLDj/lsfjTQfz+iv7u6lcvRQXjvdwKp7kAKwbQq5uvjNZhue4EqHewQn8B3w3nmlzz3u+8qFeGUIy6lmZb9hjOASctMO4NW404jisxtp6wuVVhnuqJuIWTVXo9Ac1TrquU9bQZnxUkQeDiX8hDlSMl0Ku5NKmwJ3qq/HLNVtKLQldNjv+8YxOGuN7d4FcvRo7jp4CRd9dGe6IkbEx5djyAWjrqtQ44+awFV8AgXOpG9HtcGKYVtLfO70tHtqb4xgs7991S6g4QRjgIbSKsTLDQPwSVNqQBez4YHGHfISPB+Rj3i+Ac6i1NvHmWMtP+83JmJp0xgUmqP9sWRW4YHGvZJjWCbdCyt4GNr0D2horqgIR/dyZYQYf7Gc63717jIcbDQQmStFKsCpmX2JzBWqcALfjoeOVONrH4NA/jkgCv9hU7tvOgNUbm/52YEP/JHawfismWw0LBvIeWY8GX4CDynOtJvqO/i0KcDW0afPrGBnA4UvNQPwkmpkSPj3oygDMvgNOMgV3eEIEG7tHc5q0LHSZEWf34qJzbdsUAyWXsF+B9JghRP4DM6oTRj9R6lPc6SHCXFwehp7BXaMSuD8t60H9poxUGGRYPiFiTDSweOtSRNosDLqKOZKW+sdOM1TZ/zMGFfZBHhDnYUPNYNgpLnAHQ4Okrw3IgF3pUWwNv+a0mYsPkqmq56UTyH/mnQkSYK/jgcbBI9U8AOPHvP9Q/f5aPaq6dE2C1C22YWvG3iuLiOohD0AlFrkuKNuEmbVzkCROdzjPPW28XCeBS+FH8bhhA2YLqnw/wY4OEKYJ47X4rTKt5gmV9ydFoG+hIrn6K00XjhRT2SuUCS4JAOLbKnW4kC93qc5/jUgilW//YmSw4BZ5SB/veVxpzYG69VJrL0+2+w3xGNs1Rw8oRwFJS12mqffQcln7D+Nr8aGmG3YELMVGYIm/y6egyNEMVhp3J5bBQOhjnf2UAB+m5hCbL7vylQ43sTeDUowwwn8Vp457ltaR1+5EM8PYi+y+uPiJuQUxODG8iyUWlpT/RiarpWmsLQ20+08V4g0SBMGVkU+JhZQ+Fg9EFmXrseHmkxYQHWovd+u6VPtNwF2Nz/TpZXIjf8Jr0fmIorHffE5OHylWGPCoyymvqXIhFiaSS4A97F8Mi6CUIMT+GgRpiU+pqC8NSyeNVN+YbMRT7TekGzXxmBUyVg8WzcAaqsAbcLui+YUnDW5b3P5QUIBDvfZixdjz0DOC5wmO/YobSI8pczG2Oq52K7vZZen3+bjB5xV8BPwaPwj7CTyE37E/WGnIEBgtArm4AhWvrnYjO/L2Ktq9/QVsZALyIikw40GfF/OVeCzp8cH7aksNgzeUoImHxo6XJskxw/j2GlwYrDSGLO9FBcc3JDE8U14Ob4IV4U1YsyFsai3uk7lmq+owmeJ+ZcD4mqtYqyoz8DXqpSATuMDgOmSS3g1Kq/dVM+M2qcop33m28aLzBF4WjUW2w3kTIccHD0NKZ+HQ9P7oA9LDWtINSsDgEQJH0Wz+hGZK1To8QL/xZP1WHXWtzaLp2b2RYqUnajQpwrq8OF5pcvnRPHNUFpdfwHlPAsO9tmPVKGhU/R7oVGBJbVDkGdgt8GPrwhA4x55EZZF5DNM9bTT6H1Hef3bDSl4rDkHpRZyrTo5OHoSY2Ok2Ea4CQ6T6/aVY2+db/FUbSy/MhaPDQz+Wh2k6NEm/UaTDe+dcy1M3fHowGjWhP2+Op1bYQ/ArbAHgCejS5AqNLZrxsDlxyFiNXakHMDqxHwkC8gUwWADCyh8rBmIrKrrsUYzoMUq0cmnDzgKaGwbny6uwOH4dXgx/BDkVOBWJuTgCFRyG/R434Prkrd8RbAC31tnG6FlKdgwGOnRAv/1Mw0w2rz/MMSI+Hj6CnbuHtVmGxYdJtP6MUVgwENRreVoHXRlazmksEBRiaN9duPp6CJIA7hmvdImxmLlOEysvg77TYno6NNvw0nZXoqCmLLiUUUB8hN+wF2ys+CBuyBwcHSF5SfrHboZSRAl4uM5QgHQKosN7/howQ0leqxJv1JvQeaWEp/m+Cg7Ebf1Die0oo48kFeNtYQCZNYm52N2WI2DrnRU5yI3rceVZjGeb8jEOnVywIvDOdIyrIzMQ7pA43Q/jsdbzkOhJQZLm8Zhvyl4Uxo5OPzNiCgJdk8l1wSHiYWmkbyxGHqr78G2Mj6FUzP7ct300IM1/FdPN/j098OjJKwJ+81VGmLCPoZvxnCJykn/eTgdTxYa8WnCMexIPYBREvbMdyT4Vd8bo6vn4bmmkVDToi7ss0XoDxE0YnPsb/g6+g+k8bnIXg4OTziqNOCdIna0ZwFFYf14MqZ9nZVmbZ3BRo/U8Eu1ZgzdesGnOf6YnIoxMVJCK2pHb6UxdOsF1BjIpcxJeVYsiSrFozGlkMLSJU0fNA0aFH5Q98K/6wehziomti42iOMZ8FzEMdwVVgSew/K8riwAFIw2Cu9rh+AN9XBoaHYikTk4QonCa9JZi9qfuPMikSI6Yh6FkzP7Il7cs7X8Hinw7z1chR/K1V7//execqwdy04a3tKCOnzAUkBMssCA1+LPYq6cGRvAePuddqtreVTbBHi9cQA+bE4P+PK9Q4RKvBZ5EBPEDvbqQa3+WpsUK1TZ+Ep3RcC7NLwhltIhk9+xkEqeNRl67iaHo4tMjJNhE8FKeUyKNSYM31ZKZK5/9IvE68PiicwVrPQ4gX9aZcKY7aU+zXF0Rhr6y8m3Lz2lMmLsdvZ7vU+QKfFa3GkMkWjau895oOm3PZaaw7CsPhO/agPf532zrAQrIo8gmdfaK9sDnz6zK1+eKQ5PqcYjzxQ6F4qHJbl4SrwXETxjh/1X0Qq8aJiGb01Z3btAjqCDzQY7C/6qxJYqMr3ui2b1Q6Kk52r5PU7gLzxUhfUV3mv3C9Mj8e5wdi7+k3aVIV/pn7Q4HmjcEXEJz8eeQzzfiK5o+m1j+/UxWFo/GIVGdmIZSAcCF0gAACAASURBVCGlLHhEcQJLFCcgoyxwlaff/tC+Vxo0ftANwHL1aFRa3VczDFSuEZ7Hf2R/oD+vNX7Fyf7zLMl4TD8L+VZ2rFgcoUeEkIfj16SzEhhXb7Si7yYyLXQf6h+FV4ey2Lo8wOlRAv+8xowR27z33csEPBRek444FvxAH55X4qmCOuLzukPOs+DJmBI8FFkKMUV3SdMHKNhoGl+qe+OlhisC3r+fzNfhhYg8LJCVgPLQp99uAaGhhwBvq4fhXe0w6Ongab/Zj9+It2W/Y4qwtH0/bt0bNNaah+FZ/QzU0cF7k8PhP25MUWDNaHasfk8V1OLD8743xJLwKJyd3Q9RwsB2SbJFjxL4/zxag69Km73++6WZMViWGUNwRS1UGywYvq0UWkv31XtPE+qxMs7Ov++hpg8aUNNt/v2+Ae/fzxbV4fXIQ8gWtfqwPfDpM8crLTIsaZ6EbUZ2UpJIEU4ZsUy6Dw9KDrUP2r93HcY6v89aiPCmYSJWGSeyvFqOUGDd+GTMSCR/g6i32pDwy3kicz03KBZPslQ/JdDpMQK/2mBFxmbvzUIxIj5OXJuOMELNHZjcl1fNalOKrjBB2oh3Ek4hQ6hx4eu2H2/3fV8wSfF4/VBs1wW2z5sCMF9WghXhh5Es0Hns02973tyGWdhtDNy6/IvER/GcbB+iqdbOiE4tF55ZdEqtkXjWcA02mt13ZOTouaTKhDh5bTorc39Y3ISnfOxqCgCxYj5KZvfMGvuBrYoRZNVZ3/LuHxsYxYqwP6o0BIywB4D9+miMvZiDJ+oGtZTs7WL+frpIjw1JudiQlNty0xCg0AB+1PXFiJqb8LZ6CIzgw74iX1uevv0+1+v7BaywnyAsx8HIT/G2/A9EU/rO5YUdVB7sMO7kfU7jN+Fr2ffYHPY5MnnstUnlCG7KdWa8y1LO+6J0MkGB9UYrPrvgvaU3mOkRGn6DyYr037zX7qNFfJyZ2ZeV9rfjd1zEiebA7NkexTfj6ejzuC+yrKW9bBc0fdA0LKCwujkNrzYOhNJGPquBJGkCNVZGHMZcSanbPP3htQtQYZV342o7k8pT4VX5TswRnoVTHz0FwObgfaMowOZE03fo66fwqWkkVhimQ0mTr0XBEdwohDwcn5GOWBZinf53XolnCMQ69ZEJUciSJSKQ6REa/rtFvuW1P3VFNCvC/svS5oAV9kBLU56ldZkYe3ECtuviPNf0WzVIAWg8GHEB+b234/6IEgiowL23LLUocEfDNMyqn4VCU7RTDfgtTVZACXsZZcZy2V6cjP4Ic0TncPl9cNRLwF6zdzXuah4Ai0R5KFC8gwdFuazujyP4UJttWHGqnpW5F6WT6eh5UWfGL5WBa4Fki5DX8JvNNgzcXAydlx2TEiQCnJvVl/CqAI3FhiG/X0CDKXCb1NgzPawer8aeQoZY2yVNv228yCzH0/WDsV2X0H2b8AAeaNwRdg7Phx9BPK/dB15hk2N4zc0w0q41l6cVR9CLp8EL6rFQ2tjLXLhLUojlsn2I5escxx64isanaRTT0XhYMwtRPD1WSrcjndfk3KfvRNMHbUMxHYNH9HOwx0L+e8IRvByanoYrwslb9l453eBzaXSA3V4AgUrIC/yPipvwpA+BHm8Mi8MD/aIIrqiFZ0/U4/+CsL6zgKJxT0QZlsWcQxTP1DrqJHr/8o8dhcZ2XTyerh+MInNg96SXU2Y8GX4cD4WdgJiyYmHjVKzXuxZqKXwNjsWthZiyQmkT42X1KHymGwQLQWNatrAKb8l3Iotf7Vgot/1Mo+N4q7Cussrxgn4KvjMO7jDvY5I/sVSyD9K2tsGusjQu30u0/26LeSD+bbgWxTbymSwcwceEWBk2TyIf66Kx2NBrI5mI/R1TemNUtITIXMFAyAv8YVsveN3GkS3tvtZoweDfL8AQxH2ao/hmvBh7Fncpytpr1nuo6QOAhQY+UfXFisZMaGyBndOeJlDjLtlZrFBlu33u55HbcZOsuIMmXWSNwtOq8djuYxpfIk+LlfK9uEV8Bk599C40fQME+K9uFN40jHNaQjeO0mKFbCf+Jszvsqbf9vz3TOPxinEqNHRg12XgYJ+fcpJxVQL5NL2lx+vwQbHvJcgXpIZj9ahEAisKDkJa4O+v12PW3nKv//6NYfF4oB8ZnxGTJcdq8fkF34tIBAJDxCq8FncKE6SNcKrpt8oERxpjrUWMFY2D8LW6N2yX/cbByVRxJX6J2eRUSG43pOJpdQ6KLF2zGEkoK5bI8vCo7DBklNmp5u5Q028d+9k0EMu0U1Fu86wqYha/Cm/JtiBbcKmLmn7LeD0twwrjdKwxub9J4ghdRkVLsWNKKvF5G01WpPkQiM2k9Lr+iBb1iHA28JcvX768uxfBFs8V1uOM2uT+iQ6QC3hYO458adGLWjPuz6t2/8QgodYqxjeqFJwwKTBSokIkz8wIAGt90mVN0S4QDhTCKAtmyasxO6wKRWYFyiwyf2+BCHzQ+D5mK2IpQ+dAOLQc9xWqUGKNwGGz5zEMN4jP4fvIX3Gd+DyEFN1xXnepdqBw2hqDv2luwH/1o6DqgsZdTSvwhWk4ztuikS24hHDK2Gk/7a8LxnjL+yyDGTOFZ3G94ARO2JJQQbNTZ50jsLmktyArUowBCrK+fCmfh2KNGSdVvgc9KwQ85MT2jGyTkNXwa41W9Peh/vIjGdFYMTiW4IpauDevGj8EUN49ScSUDf+ILMVT0eeg4Fk89ukzNcaN2l54tnEwSs3BVc51UdhpvB2xv/XI3tLR8njWEomxdQtg9cCSMURQj1WK3RgruuT5eWRo+vW0DC9pc/C5YZiXO2pHSpnxqORPLBH/2dJe2UOfPtMS8ZN5MJ41XoNyG3mLGUdgMyxSjH3T+hCfl0SbcwCIE/NR3EMK8YSsHcNXkzkbpvxzalPICnsAMNI8vKvsi6zSqVjT3Bs2qvXj5UADbDnsrDHODbuEw6nb8WL0Cch5Fv9uwEtieQYsUxxpL9bjKHURwDOqHLfCPoZnwH/Dd+JAzFqMFVU51dw7WRDafk8D7+mzMbTxXiLCHgD0tBCv6CdjhOqfWG8e5PR1O77PHdd9g/AEjsjfxbPi7e1BgRw9guNNRvxS6X3DMmekhQmRSSALoM5o7TEpeiGr4ffbVIw6o3cpb/OSFfhqDPkmELflXsKmSz3jgwUw/PsSZk6uZ5o+0OIuWNE4CF+p0wK6J70ANvxTfgJPKY5BQTFdSO372WFMxQ2Ns1zOszjsGJaGHWbMYX9e2v5zHI2/1ZSOpzWTUWwln1XCZKygHKukWzCE3+aacu/TZz7vkk2BF4wz8L2Za8PbU7giXIRD09OIz/tXgx7X7PE+TquNCbFSbJ5EPtYg0AhJgb+pSoPb/rrk9d//PikV4wn7dM6oTBi9vZTonMHCzYpLWBFzCslCg9vofUdR53nGaDxVPxR5xsBueBHH0+O58DzcFVYEHt3aCImmYQQfE+puxFknwXrXii/iP4r96CdodhN13/bIiL6naRTbIvGIehr2mPybU3yX+BieF+9EPE8LT6L37feTZ0vFY4brkG9N9uu6ObqHL0Yn4YYUsqm4NIBev5yDlkDG08HpaUQsBoFMSJr0v/ShTvLQSDFxYQ+0FIvoqfyo7oURF6filYaM9rayHtZwByhkixuxI3kPVscdRrJA79/Fd4E6mxSLmyZiYu0N2G9qtRBRFN7XDnEo7DMETdgY/St+iNrcIuxbn3/50el5aRGmTTYxntJOwfCGv/td2APAl8bhyFI/jHeN4zuu01VgIeN52fxy7A37AB9J1iGO0vp38Rx+57Uz5OuOUADeGk6mkJcvnVSDhZDT8OuNVvT1IVjvw5GJuL2PZ6lLnlKiMSNrm+/BJaFAssCA5TFncIuiouXS74mm3zIAgILOxsO7zRl4pykDejcV77qb6yQX8aj8GOY1zIaGkfcezjNhmfwwHgwrdKm5u8p/X60bgpXacVDaAqNoSBpPidekWzFTeLZlwFNNv3VfGpsQq0xTsMo0uRtWz+EvNuQkYzrhvHyTjUbsz+d8nqcndNELOYH/3nkl/u1lc4VoER+l15F/w+/Pq8Z3IRys5w3Zkia8HnsC2RJG8Qw3Pv3LYzRQaZXi+cbBWKdJDWj/vj33hZ3EMnkeovkGB8Kc8XOH8fbn7Tcl4xH11C7n8vuLKYILeFO6GRn8eo99+sx9XqSjsMwwExstV/ptzRz+IydWii0s+MqfP1GHd3zsmQIAP4xPxrWJwZUh1BVCzqT/eYn3ZhnSmj0AVOjMnLB3QJ4hEldVTMCimhGotEjdRu+3Hbb9Ppmvw0MR58ELEnE/WXwJB+PXYVX4AUTzjZ2j7JlR7sxof8bzGmkpVmrGBqywB4DdlnRkq/+JJ/QzoYTMaZ5+y2Hn97kPpcTXsm+xWbYambwav6+fg10O1OtxTGkgPi+p8udrL4b2tTqkBH5BsxHnNN4V2gGAewl1YmLCht8qVKAB/KhOxoiLU/F20wAYaZ5HPv224yfqszzKae9O0gRqfBv9B36N2YRMgbJLsQv249GUAb9Hb8CaiN+RzA/sbI+PjaORpXoYH5tGe+zTZ45P4JfiYNi7eFvyC6KowI3b4Og6L7MQz5QsFSAtzHG56K7wU6UaSrONwIoCk5AS+N/4EHQxPlaKvnLfPzBMlCYrvugBgSC+oqf5eKEhE6PKpmKjJtGDvHNgvSYFR4yBq+nKKAtejMhDQfz3uE5aBoBym6fvqaZ/o/Q8jsZ8hWXyg5BSgVurQElL8YR+FrI1/8J+c5pnmj7zmKKwSHgQBfI38aDwgP8WzsEq26q1OKPyXjFzxuvD4onM83MF+ZoBgUJICfxvfTCd/z2NfOnPj4pDo16+vyg1y3BH9SjMqhyPQlOEUw3QSPPwXONgZ9N0O3+TncPxxB/xqPx4u9C+7Mt2VrSmaxqwlLJiadghHI35CjdLzrK/KR8ossZilvbvuFV7G0raOuk526eD8xIBA16TbMKxsFWYwidTP52je/mohPy18ap4MmW515aFrpIWMgJ/U5UGzV6aYhRCHm7tTd5//4kP8QQ9mf36GEwsn4R/1WWh1irupAG/1TwQFQFYcz9bVIc98RvxQfR+JPD0jHXz3FfM88Kn3xLLoMGnEduwI/oHZAm9bwPtDzabByJLvRjPG66GmhbDE58+8zz04zVio/QT/Cj9Av149Z1fgCNo+PaiCnorWdO5kEfhfgIVUnMbDF53WA10Qkbg/1juvRnm9t7ktft15SrUGgPX3Bro2EDhS1VvZJVdhbeV/WFsTcGrsMrwljKjm1fXkUS+Hp9G78XO+E0YLmqN2eggxGkHGi3ajwG8rx2KYTW34TPdlR3GPfX1jxLWYG/0d/ggfDvieDpW9kmKd4w5yFIvwVem4V3cZ8t5vEZwFsfCVuEV8SbIKd+bp3D4H73Vhi98qJfijH/1J+PmW+eDPAlkQiYtL/GXc9B5WW0pd3ofDAon27t7+u5yHGrkgo1IkSbUYWXMSfyk6YX1msCozCahrFiiOIHHwk+0NJVxkTfvLB99tyEJjzZPQLGl/aYzU6DEuxF7MFZU7TxP31lrXJqGFkK8oRmFt3SB35p2CL8a70p/RTavvMN58fQ81ttkeMk0A5+bR3fPBji8pr9chKMz0ojPO3BzMaoM3pVVbyMrUoy9LDT86W5CQuBvqdZiwZ+VXv3t0Egx9hN+YwuajJiw8yLROTkCi5tkpXgp8ihSOkTL03Y5586KCAHnLeF4pnksthqc5yRfLynBy+F/IZWvYkznOk+f+VhqCccyzUT8agz8YiLzhSewQrIVKTwV3J/HtrH2+gWnbfFYYrwBudY0v66bwzd+zknGNMKFeNaWqfAAgRbkRbP6IVES2MW9ukpImPQ3+tCJ6RbCtZ0B4AMuWC9kGSJUYlvCNnwesw8pgrZysFS75gk4jjpvNe8320T4d/MYjKi52aWwB4CfDX0xsu5WrFSPgc4m8Min374eIE2gwjcRv2Fz1HpkCgK7tPM682CMUC/BK4Yp0NOt9czdduVrj43I5NVim+wjfCH5BqmU7wVYOPzDxyzEOc1MInMDsaEi9HLyQ0LD77XxHDQW77ZRPLsf4sTk7uJ0FhvSNhXDQKCZA0fgEMMz4sXIY7hLXgznGifsxjtqqGu0GXixeSQavCiHm8jTYWX4n7hFeq7Lmn7b+Cf6IXhJOz5gyvE6I5mnwkuSbZgvKGgdcbyfTueg9dAAPv7PNAmrTFOhB9lUWw7ylMzuh1iC12AAGLO9FKd9TP0bHyvF7yHWQS/oNfzdtTqvhf2kOBlRYQ8AGyrVnLAPMRaHn8bx5I24S1HSOuJE47zsg+6oeeeaEpBTMw+LlTleCXsAqLbJcG/TdEyrvxGFltj21/NA0287vld2AvnRa/CgLN+rNfiLSls47tHNxzTt/Si0JTrW9JmPdvuUUFY8JdqJY2FvYIHgmD+XzuEFbDStef7KOJ/n+LNej0aTb7EAgUbQC/xfLnlvzl+QSt6c/02Il2bsScyUVuJY8m9YGZWPcF5bxoWLPHo7oVtuCcPfG6dgRu0sFJrJtPbNMycgp/5mPNQ8DTVWGRwKQRfR7lE8I16T78GxmC/Qjx/Yrqc8awpyNA/hIf0NqKHbvque1i8AelEqrJZ8j53S/yGL512MDwf7fMNC6fEpcWQ6nv52KbArWnaVoDfp9/n1vNelEKvm9keYgNw9z0WtGUO2XiA2H0f3kCFU4c3oI5gire0YVQ94FEWupwV4S3Ul3lUPhoHFjn4yyoyn5Xl4RJ4Ph1327KL3HUX7f6gbhpXacVDRZLNUSCOjTFgq3oNHRXtbRzzLgmDuf611JJ41zkIdLff/Bjhcsm1yKsbGkG1Lfs2ecvzV4Fum1IyEMKzLCYysIBIEtYZ/qNHgtbCfl6wgKuwBdu5UOfxHOM+MN2KOIS95S6uwh9O8eWcBZet0fTGs6ga8phrGqrAHAB0txPPqcRha+zdsNvbtvD4P8vf/IctHYczneEAa2GZ+HS3CC4arMVTzGH6zZKKTps/I0wfjkPm82wRHUCB7DY8Ld/l59Rzu+IoFy+i/B8X4PMe2Gi3UltCprR/UAn9vnfcFRq5PJn+Xz4YvisM/3Bd+HoWpm/GA4hwcm40ppz5j5vNpAHw/d/ArtYbjVuVMzG2ciyJLJBwK+bZ1dohybyGKZ8Qb8l3Ii/4CU0Rlflq1d5TaonC77nbM0i5Cka21drq73guM8TDKhBfEv6NA9irmCk74ceUcrtjAQv36cYQsBjtqAruQVVcIaoG/zweBP41Q3eU2/mrQo1LPVdYLNiZI6pCXshWrYvIRxTM50dyZ0fhoH2c+r/Xx5rBSHEn6Bc9EFEBC+TfgZ7cpBdn1t+NJ1UQ00ZL2dTrT9NFxPEOgxMbIDVgf8VPA+/f3W9OQrVmMxw1z0UjLPPDpd9xvGk+Jr8VfYrP0Q64NbwCgtdjwLWEtX8SjMD3B9+v8lqrQ8eMHtcD/s947/0xWlARRIrLm1s1VWvdP4ggY0gRarE34C5uT9iJD1PaFthcabcMuNH2g07GMZ8Uz4cdxNOkXzJf5P6bjI90QDKv7G1brhngUvW8/frX4Io5Ff4435LsQHuCla1ebRmOo5jF8YBrnIE+fkTUBONz/BF4JDspW4W3RBkRRoaPJBSNsuEQfHei7WX9TCAXuBa3Az20wwGjzznRKWrsHgM0hdBcYysgoK1ZEn0BB762YHVblsa+7gzDxUGNO4WvxWex+7EzYgiyRfwvfKG0SPK6ahDENt2G/qZebfTKLBuHy+APSfBTGfIYHpIGd2qaiJVhqmI1szRLstvZ34tN3/T4vEuaiQPoqHhTu9/v6OVrYV6cjbiUdHe17zQmVxea1chloBK3A31/v/d34VMICv0xnxjk1+f7OHGS5Q1GGgt5b8UjUudYR9xrg5WMAlTaZZxqz3U1CtrgeexM2YXXMfiTw/XvhOG2JxqzGG3CbchbKbBFO1s1jjLf+az0vUZQBbyh2Iy9qTcD794tscZirW4hb9HfhvC3Gbp9O3mfGcQTPgNdEv+CY7HVM5p8Dh//55iLZOCgxj8KMRN8r74WKWT9oBb4v/vvJcWQF/i8+lPblYJ9siRIHUnfj/fijiBeYPNfoWx8bbWI80TgSmeVzMKnqGuQZoz326TPdAQtkF5Cf9DOeCC9kZZ+u2GRMx+C6O/GiZhw0NmHH9bVpwswMXbvzkiFQYmPEulb/fmCXrv3dMhAjtI9hmWEm1GgN3HLj02eO96Pq8KvkY/wo/pRrw+tnvmYhWn/xAN9rYPxcGRoCP2jz8ON+PueVSX96Qhg2EM6rnLm3HAdCxOQTSiQLDFgRcxI3Kyqd5KPDbf72e80D8GrTIKhsHUu03hhWhpeijiOVr+3wfNd5+tTl/PeLFhmea87Gz7o+bJ4ChyTydHhR8Sduk55xm6fvLK//ff1wvKIdH/D5+7GUFs+Kt+Me4UG4ep9d1S94zzIZr5hnQBPgew0V/picijEEc/KNNhpxP/tusTkyIx0D5MFdqpm/fPny5d29iK5yVGnAp172Ur69TzhyYslp+HorjcXHuCjfQGNp9DmsSTyCYWKVC42+TcvrnL/9qy4ZN1ZPxE/aVBgd5NOfNkfgfdVAmMDDaHE9hBTNmJfxOp0C+1qI5Jlxg6wUEyXVOGqKRb0f69traCF+M/bFWv0VSOer0F/Q5EADRsd122nGo4TVuEdSAAMEyLMk+W3tXUUHEX63XIGfLUMwhF+FFF7rdaPNQuMuqp+iMJp/EXcJDqKZluK4LcW/G+iB0KAwuxe5tGkBReGo0oBijdmneZIkAoyPJVscyN8EpUnfl/z7q+LJtmIMFd9OqDBXXo3CtJ1YFn0GUsrmxueOTuNFJgVmVU3G32rGodzi/sZwVfMgDKmcg281aYADM37H+Zmv17KACeIaHEzciLejchHF829EfKk1HLc0XYe5yhtQ3Ja/3+m8OK/VH8kz4rWwXTgW/RmmCAPbv3/aFo8Zugdwt/42VNCRjKJKtIPPRef3LQ4a/Fe8Dgckq5DNC+y9BjtsXFPvTovweQ5f5E6gEJQm/RsPVGC7F8UQwoU8VMzpT3Qt9xyuxrpyrsJed5Mh0uCd+BOYIG2AN93kGm0ivNyYidWqvl6vIUvUiP+LOYwsUaOb12392W6dzTYhXmnOwgeaTK/X4AsPyfLxjPwQIijD5SV25TxuM6ZjqXYqiq1R7C/WBySw4FHxHiwR7oWMMjG26MAN02G89Wca+NE6HMtMc1BNh/tlzT2NrZNTiRXOAYB6oxV9NxX7NIeYR6Hu+gGEVtQ9BKXAD99Q5NXfzUtW4KsxZM2Pyb+eh9rL8r4cvhPOs+D52CLcH1HaMuDMF+2w9nrL40eqvnipMbOTn95bbg0rxYtR+Uji6zv7hm3u11dkicATyjHYbfS/qTyGp8fz8lwslBR2yafPPH7fMDIo/PvJVDNeEm/BfGEBXPZM6LTPlvOhgxirzNPwhnl6d20hZHl4QDReHhJLdM7EX85B52MnUzZq/vuToDPpH2w0eP230+LJvlE7a7ScsO9G7ossQ2H6HtwfcdG9L9ZBNPZufRyyy6fjyfqhxIQ9AHynTUNW5Rysah7U0bzvzL3QYX1AhqAZG+O34bvYHUgT+DcDpMEmxRLVVIxpvAO5bvP37cZb9/eQ5CiOR3+CRZLArs9fSUfgHsOtmKZ7EIW2Xh779NseZTDhOeHvKJS+jDl8/2dehDIbfeiC6oy/p0f6PEewm/WDTuDv9+GEX51A1n+/uZqrrtcdjJU24WCfA1gVfxpRfLPjQDkXvugSixy3Vo/G3EvjUWRmp3OanubjxaZhuLJyLn7Tp3rs00dbJT8amCWtQEHieqyIOAIZ5d+yzact0ZihnI+7m2eiwqbovE5XwpECYig93lbswMHIzzFBWO7XtXeVPGsqcnSL8bDxRtTZwjzy6beP0+jDU+Ib8RpslryPDKrWv4sPUS5qzThLuLbJDcm+t0PfH+TZWEFn0r/1r0qvytimSAU4NdN7/6wjhm8rRbGGK7jjL1KFBrwSdxbz5DXomo++5T+NTYDXlQPwjrKfP5bbgQmSWrwTfQgZQpXHPn2mObnGJsXyppH4Rkc2BsUTJJQVj8rysER2BDKKGensPjaijV9N/fG0ZhrKbYHt85ZTRjwj2oGHhfvQFZ8+c/wjSw5eMs+CivZf5kUo8sawODzQj1w8iNpsQ/Kv532aQ8KjUBvEfvygE/hpvxWj0dT1piTzU8Px2ahEYuuoM1rRz8cgEA7PkPKseCy6FEuiL0ICi10etXsfPSjg6+YUvNCQiTqrqHs20cr9iiIsiyxAFGX02KfP9CUfM0ZjSVMO8k2+1wjvKsl8DVbK9+Emybku+fSZ+3pbNwqv6cdDRwd2PnM/Xj1eE/+GGfwzLQMe+PSZMQCNtBQrzbPwiWV8t6w/FJjdS461Y3sRnTN543mf293mXZ2GDEX3Xke8JahM+uU6i1fCHgDGx5C9295azaXj+YP54TU4mv4XlsZeaOk+d7kyXNsznPjoW82vecYo5JRNxEO1w7pd2APAx+oMZFXOxWpNhnOzeMsP7Q+MGIDhokbsjd+I1dF7kcj3rz+x0irHwuaZmNE4H4UWB61pnfj0meOPyg7jeNRq3CEObJ93sS0W8/V/x1z9vSi2xXrk02e+n9GUHm+J1uGg5HWM5V3w9/JDgt215D/fN6b47sLLU3ofR9bdBJXAz1N67z8hmeIBALtqg9uXE+gMEOnwR58j+KzXCSQLjXY+ep7jiy7juNIswT3VwzGtfDwKjYFlRlbaRHi8cRTGVs3GPkOCU9+wvU+fKVwWyIpxPHE9nlQc9/v6c829kNN4Oxarr0KDTQJPfPrt4zQSeDq8L/8d+yK/wCjBJb+vvyvstvbHcN0TeMo4BypI3fv07fL6M6lqRLxjewAAIABJREFUbJP8F1+J1iCW4pSErqC12HDEhyBtR8zu5bsfn/Sa/ElQCXxvT3SYgIcrI8imCO2u5QL22OTblEKMkTbDseZOO9C4WtDTfLza0B8jSidhnTpwK8ABwClzJGbXTscddZNw0cIMjENHYdJ2bKcxSykLnos4isLEHzFHetGPK29hjX4whjQsxP90wz3XgBmWi2GCWuyI/AafKX5FMi+w+1F8aM7BMO2TWGMZ0zLQlewFAPMEBVglXO/HFYcGuwlHxWdF+i4HjnAavn847KXAn0C4HOIplRF1Ru9cCxzuuTeqEgNFOoeaeycN6/IxhQ2aJIy4MBGvNPSH3kE53EBloy4VQy7Nw0vNWdDaBC2D9lkHgNP99xFo8E30DmyO24IMQZNf166hRXhGMwnDG+7GblNv56mHnTT99vH54jM4Grka/5bth5TyrfwpmzTQYVhsvBE5ukeQa01zG71vv88bBMfRl+Ka8XSFPYQFfoJY4PMcRzmB7x/ym7w70aQLJeyr48z5bBHJt+D5uAudhZ1D33DLRbXQKMeM8tH4+6WhqLQEb2T0G82DMbxqHr7Xprvw6dtp+oznTRBXIS9hA96M/AvhPP9mjxRbIzG36UbcrJqHYmukxz79tvVLeRY8Lf0TxyJXY774tF/X3lUKbUmYoX8QCw23owJRXdL0FwiO+Hm1wU1uA9lrLUWR6ZZ6rMm/ZbBJETQC/7zGDL2XVZJGRJEVAoeD+A4v0FkQXoNIgRUdVEI3mu7bjenI1fteVCMQqLZKcV9DDqbXXIMT5igHPn041vRbfgAA3C8/jcKEH3C//JR/Fw9gqzEdwxv+jn9rJkELUcf1OfHpt2jALbEKvXgafKb4FdsjvkKWoNrv6+8K6y3D8KEpp0uafhJFtt97qGOw0jhG+Ho7k0BjnhNeKp/dTdAI/BPN3t9RjSQt8AnfdXK0I+TRzjUm2I23XlQ/SyrEtt6HkSkOnaCoQ8Y4jK+ajYcax6PWKnGv6duNR/FMeDMiF3kJ6zFBXOX39b+nG4HBDffgK8Ngj336zPHRgirsjfgCH8o3IY4XeNXNJvAvIE+2CivFm1sGPPXpgwJH1/DWleuMMdG+ywNf5FF3EjQCv7DZuzc9LUyIcCG5bTaYrLigDVw/Y9BjrwFe7lcPl0JvrLQJB9Nz8U7CqZbqeyHC19p+GHrperyrutIzTd/uOEPQhM2xW/BN9Hak8v17Q9Rgk+Kf6quRo7wDh82JHvv0mce3i0+gIPIjPCH9y59Ld0oarxHfSr/GZulHyOC3+eOdWVzgRNPn6AqkLap9w3yvAVHICXx2OenlCSZuzue0e3a5LNNcm62d+fTviaxEQfp+PBR10Z+rZhUdLcBzTSMw9NL1+N2Q2jrq3qff/jwac6QXcTLxezwfngepn8v0FlricFXTbVjUPBOVzDK9Lnz6zDoLYZQJz8v2ojDyA8wTnfXr2tuQUSa8KN6KgrBVuE5wyvn5dqvpc3SVPMIafpTI94Beb+VRdxM0At/bOyoSaRhMDiuD840OKlz5ei8fAw6FHoAIvhWvxp/FsfQDmCxr8Nuy2abUIsctdVMxt+5qFFsUcO/Th90xhScUx5Gf8CMWSH0rMeoNPxqvwIjGhXhVN659XW58+u3jQB++Cl/Jf8Lm8G+RyfdftPtdwiM4HvYWHhW3ldt1cpPlkabP0VWKNSaoCDcp8zVzS2m24ZLevzfOJAgKga+z0ijXeXdyh5PW8Bs5DZ9NaA+jnV0L/ZaLcj+RDr+mHsEPycfQTxR4fmBv2W1IxPCq6/F0Uza0bSVq3fj0mb7jJL4Oq6P3ID/hB8yS+NcSoqcFeEU7Dlc23otfjAM89ukz9zNBWIaDkZ/g3bDfEUOx933M5ldgb9gHeE/6ExJ4mnb3Utu62pbVFU2f8+F7xUHCltWZSQQC91TBp/wFhcAv8CEFIiuSrMAnbV7i6AjF+N+hr9dDnz7z+Fp5PY6l7ccrcWch5wXfXbkz3ldnYvClG/G5NqNlwAOffusPAIC+AjW+i/4DG2M3+z1/v9wajjtVczCj6VactsZ57NNnji+U5ON45Ad4WHKI6NoSKTU+ka7DTvnHyOJfcnMeqa5p+hxeQTr3PTva91TtM6rga5wWFAL/vJcd6eLFAkQQDNgr1Zqh8bHxAodr2t2cjn3UR40R2K6J9tCnjw4BU/+KvojC9H1YFBHY7Vq7QoNNjCWNY5FTPQd/GuM99ulfhqIwRXwJefHr8HrEn37P388198KYxrvwmHY6mmySLlt0wnkmvCzbgfzIDzFLeM6ntUhgwTOS3TiueAe3iAq7GEsCgAbWWkbiEh3h3nLB0SUKCPvM+8h8L8DjrVzqToJC4J/zsi/ywHCyzVJ8sTRweAYFuNDcgWqzCDeWD8XN5UNw3iRr/72T57fAQ9tADN+MtxNP42CfAxgr9a9WyyaF5ihcW3st7m6YhAqb3I1Pv+1rz/CZA/iH/BQK4r/DfWH+z9//RD8MgxvvxYf64U58+ui8H4Yw7stT4rvwddio+BYZ/K7HbdwgPImj4e/hGfEuSClrp/lbBzoG3jHWV2hNwiT9v/CA4Wbo2uoPOFo3F7jnFaSj4mPFvgfunfdSLnUnQSHwvb2TGki4hWFhEPpsghY3QnyrJgYjisdgWW1/qK18j3z6l39NA5liLbalHsQXSflIFoSOm+YnXRpGVF2P/6iyoLfxnfj0aafnK5pnwqqIA8iL/xETRP7N31fRYjylmYbsxoXYb+ndpQp2beNThBeRF/Ex3pBtQzjl/vs6hF+DbfLP8UXYOqRQzZ65iS6P02ig5VhsuB45usXItya3T+zi5oSj65RqzdARtK6KeL6/D5yGzxJea/gKsj23OQ3fX7jw0dvx38ZUDC0ehy+akjz26TOPb1DU4Fj6PiyLOdeu2QU5BpqP/6iGYUT1jVivS3O8f0exEYznteTv/4Zvorb5PX+/yBqNWU234DbVPFxoK9PrSNPvFOvRvv4HJHkojHwf94vzHL5GDKXDf2W/4YDiI4wVlrdP52llQxr42DwOw7SPYY15lN3sbnz6HF5xnLCWf3WCbyV2qw3Bd70ICoF/xkuBn6Egm5JXGKTlFIMLN75bB07QBqsQD1ddgZySUYwSu658+uhw8ZVQNiyNKcHR9H24WeH/qnRsUWmVYWHDZMyonYlCc7Tzmx8XPuo50os4mfAtXgg/BJmf8/c3mfpjmPJeLNdOhJYWd1yfq5u7VgtAFKXHm2HbkBfxEaYISy/Pu1iSi4KI/+Fu0THnFgMXsSG5lj7I1i7BE4broKKdBAV3uHkAJ+wJUEhY4ZoQF+bzHMeDTAkMeIF/Ued91bQrCPrwm802VARh3mVQ4jZK2zGFRjlmXByBhZcGo8IsRueLNXP+tgHq8vzJAiM+TTqOnb1zkSUOnZrnucZ45NTMxWLleNTbJOgs9NF+7KTewePyfBxP+A63S4v8unYAeEs3GlnKRVhrvBIONX2X+wEy+I3YKP8WPyp+QH7E+1gp2wEFZXR7s2N/PmqgwN91t2CG9l4U2eJcrJhqryPQhc8vh2tI+/GHEqjREmxm/YAX+GVa74RsmICHJInvkZhtnOL89/6h7RrrVtN3znpVPEaUjMMr9entbXIdaIAOXw8UsiVN2NvnL3yQUIg4fnB9oV2xRpuBoVU34X/qK+FKM+4wzjgvCTwdPozajT2xGzBSWOvXtdfYwvCAeiYmN92JY5aEzkLera8fuEZ4Hn35TY732eH5dCdh/YZxMoaqH8EG82APVkvbuUvQpc8vh2POEg6SIxGpX+6DQtodBLzAr9B7d0L7yMj670uC7E4uaHGmcXXRB2qgeXi1Ph0jisdhvTqxfb5OvmsnrwfgbxGVyE/bg0ejS7zeTqChoYV4pmkUhlffiC875e+DcUw7PS/DRfXYFfsTVkfuRKKfG9scsyRictOdeEA9E9X22QgufPoOx93GegBbzANxpfpRvGSYBj3t4TXF3fwcXlGiIStcYwiU2K0MMqtv4At8Lyvs9SHQIIFJiZeWBo4uclnYwEEKFLqsIFVaxFhYeSVmXMxGoVHhge/68gsCABR8K16MOYvjaXtwnbym6/sJUIot4fiXMgc5NfOQa0zw4Lx0FmILpOeQn/AdnpQf9e/iAaw1Xoks5b14yzDm8nrs1+dYc+/4NGfPL6WjMVdzFxZob0O5LcKLFdqvB3apohxdpdZo8bpFuiMUAt/Fn7fyqbsIfIHvpYbfm9PwgxeK51pD84JcfQRyLozGw9WZqLOJPfLpM4VBulCHb3sdxeaUXGSIQqcNb6E5GjPqZuHuhqkotyk89um3HctgxnPhh1EY/w3mSfxrCdHRQizXTsKVjQ9gk7F/589LJ8sFo/6Ag1r9oChobCI8b5iOoaqHsduS7uXKHMUAMHz6HF5TTPA6LCCQmlfppXzqLgJe4Fd6eQeVRsA/w6SYa4nrR+jOF20XqXld4YumXhhWPB7/Vfbx2KfPXMcEmRJ5ffbizfiTIdWG9yd9Gq6suhkvqUZCaxN65NNnjvcRaPBV1B/YFvMzMgWNfl17uS0ct6lvwKzmW1Fki3Hh07erx8BYP0DhB9NgDFP9C+8Yxvu+qE7nizHO4TWkzfojo3wL3ONM+oTxWsMnbNIneWfJ4QZnPldCF0uNjY9ltQMw/MJ4/K6J9dinz/z9/REXcTxtNx6ILCWypkDhDfUwDK+Zj2+1/T326TM16bGiahyM/xFvh+9FFM+/ga77zanIVi7Ck7rpUNISdLg5cWExOm2LwzT133Gv9nrU0b6narW/XtthJz8Ch5dc0JK9Dg+P8q2mfp0xuHLxA17ge3sHRTJor8FkhZpwe0YOx9CgHGiWDnz6BCg2yXBLRRbmlY/AeXOYRz59ptCP5JnxRtwpHO6zB1Nl/mvXyjbVVin+oZyEybVzkWeO99inz7SYLAo7hYK4b/CPsEL/Lh7AR/oRGK68Dz8aMzuuj7nO1g/UYt0sjGm+H3mWZMeTeYsX2SUc7iEdSzUo3PfUvAtBZP0NeIHf7KWgTSVo0i8Pojc02KE6mPPbBu18+oTZpY3GiJLxeLo2A81t5mw3Pn3megaKtPil10F81ysPacLQacN7zBSLabVzcK9yMiqtYY7Pg/0xQ7ON4JnxumI/jsWtxRRRhR9XDjTSUnxgyO68Tsb6GugwrDFmkX9xZkCgo8BTDq8hnQZHwhIcTFp+QAt8X0oXRhFIuWijyhBcfprgxrEm5g9N6X1lb2SV5ODzpmTGOuDSd83U5GaF1aAgbRdeij0NGS94LgLu+EHXDyNq5uNVVRb0dOuNtBufPvO89BM0Y2PMb/ghajPS+Cr/Lt5Vnj5buCoKxGn6PlFD+FocJ/JdBDaYgue7HtACv8Hk3ZubLCUbsFfNCXw/48aXziINViGWVGdiTOm4ljK9Hvr0W45bLBFLokpQ0Gcn7gwPnTa8elqAV1QjMKJmPtbp+3ns028/pnGtpAwFcd/g5fA/Iaf8ZDVzlafP1ufJRV4/h2/UEK5fH01AMaznNHwyNHh5IuMJVtgDgrNJQtDjVDPyz1XztFGOGWWjcHfVMJSZJY6FBnN9doFt8QIT/hdfgAO99yJbEjpteCutYbincQqm1c/DMVOsxz595vv5sOw4jsd9g7ulfmjD6+qmhO3XdbR/Dp+oNZJVvhRCAho+4TWxSUAL/EaTd/77eAK9jplwAt/POI3S9/9SflInIPtCDlbW9+tYppe5oE4X9fbjISIVdqYewGcJR0OqDW+eKQ6T6+bhQeUkVFtbI9vdafpovymK4+nx38g9OBDzPcay2obXTe19VnDxueDwGZIuVhmfhMAPHvkQ4AI/UDT84LmDC35c+Fy7ySxqoHl4vaEvhpVMwI/qJM/LszJqss9XXMKRPrvwTHQRJFToZHx8oxuArJqbsUqT1YXz0j4+RNiIbdE/4fPIbUhmpQ2vC186q0Vw3Oyfw2tqCOa+iwgU36nnfPhk8PbOKYET+EGME99wAJhFqy1iLKoagmllY1BoUHjs02/5NQUZz4ZnootwtM8u3Ci/5Pf1s4WOFuBFVTaurLkVv+jTPPbpM9/nmyTncTT2WzwjPwQJRfgCysy68IfFqEOWBzqb9zl8guT1mIC85zR8Uqgt3mlCsQQiL5nUcgLffzjz3beOUwFgFs0zRCDn4jj8q/pK1FvbWjC7813j8sU+RaDHmsSj2Jp8AEPEfo5aZ5Fyqxx3Nk7HrPrZOGOJah1179Nve5+llAXPyPOQH/s1RhDoxkdRcPo5AsXeJ4miO9zdtL9uANy0hgKkNerePqZwe5s63h0EtMDXeinwSTRFYNIURG9o0HPZ3OpY0w8kBenL5mQMvjAJ7yjTW0dc+a7RaT/jpEocSNmD9+KPIyaE2vDuNyZhdO18LG6eiDqbFJ749C//HkAvvhYfRWz3eR10239MywJD06dZEvm0vVunU219Dl9o8jK2yxm+WoS9lVPdQUALfI2XJzKcQOQlk2B6Q4OeDhdndNbQAgydjY/n6zIw9MIkbNHGwVOfPvN5d4WXoaDPDiyOLPb7+tlkjfYKDKtZgP/TDIWnPv225w0UNOE+GYEqfW4sRqzgSWVCDq9REb4ex4t9E/jeyqnugBP4bvA2cJDDB9xogIFIqVmKBZUjMKciG0UmecugU59+Z2Gg4FmwMvYUjvbegZlh1X5ePXtoaCGeVY3B0JpbsdmQ1jLogU8fAF5U5CLSp3r89jEgjNfrUMyJMMx5L3fl4xLxSUHa4hon8S2ry1vXc3cQ0ALfe5M+ubS8YPLPhAaeaYCByh5dDLJLJ+Cpukw0WYUdhf7lfdEOttEy0F+kw/eJh7Cx118h1YbXCgq2tlLFgGuffssPkFNmjBf6mLLn6nPklyh9u+MA//wGAyozWSUsTtRzTPpkw9kJ018ugtmLL2UCwUp7VprGxDgZsfn8iclGo1JvQQXh+tOsc1njA+PibAtoDd+eD5V98L2qF56LOYd7I8vs9sNj7Idu3y+jjPAUaR3yeu/EB03peLnxCqhsZLs/+gsJZcUTinwsDiuAhGftXC7Z6ftMtz/6ArMoEuxezy95+B3f10D24feXi5Ag4YMX4N+zFCnZ78LgSHHQXuO7SkAL/Dez4rt7CegvF2HTxJTuXoZP6K027KvT48uLzdhYGSRaY4eLJYLCrG+P0irEY7WDsLqpN1bFn8IEaYNj8zVTCNoJwwcjL2CBvAIrGzPxiSqtu7biFTdJS/BSxGGkMPPrHQnBtvPRKXqfgBncmdBlO0XO2ec3wDT8J6+IwZykMGRFSbp7Kd3GDcly3JAs7+5l+IWANulzkEHK52FGYhi+HtMLa8f2QhjhLAbyMHzejEP2zbDscNokx6yK0bijagRKTdLOwt5ZgFfr76MFZrwVdxwHU3dhgiTw2/BmCpuwLW4TPo/ZjRS+tuO+XBbnAeOYoI+90/nl+UHYO3rdwBH2GQoR8mek47lBMT1a2Pc0Av3Kz0GY2b3k2JCTDCmBkpLsYqeJsV0sxQ9s1CRgaOkUrKjPgI4WdPbpdxBCnW8KMkUqbE4+gG8SDyFVEHhteMN5JrwZmYuDCT9jrLi2g8HiMs6i1l3VL/AJRzdXLAbsAZ330cnC0L30l4uweVIK+sqD003E4T2BftXnYIFxMVK8FQDuEqc40ghDKMj5zcZ+yCqdjO/Vya0jzOh9ysX+W8bnhFXhZO9teCH6FGSkq9J5ySL5WRQkbcD98jN2mjpcWzDsjx3VL/AZdwGChHG6f16r8O8+woU8fDeul8+paBzBCSfweyh/6xOOCbHS7l6GA5g+bTjxdQc/1RYx7qseiknlOcg3hnfUaF3tn3H8eFQR8nv/gdsVZf5dPINsUT0OJm7E21EHEc0zdn6f7H307hrLsKnhM+fvjlr6JN0UXvL4wGhkKETun8gRknACvwfzz/5R7p/UHTjVCEPv45pviMCkshz8o2YYqq0Sj3z6zPFEvgEfxh/FnuTdyJYo/bbuRL4en8Xsx86ELcgUNbev06EQd1B/gAbW6geg3CJ3qen7Ug2v3VDg2LJAsR2lH2BldSV8CovSI7t1DRzdC2fX6cGMjZWCRwG2QAyEs/d9dnZyhxTfqpLxsyYRT0Wfx2NR5x1otsyYBrtH0BguacLOXnvwvSYFzzUMbrl5YImnIk7g8fATkMLixEdtn2oIxnqBPGMcHm8eh2OmWBxKWN9xf/b79IEzlmjMbroJnT43rYdmNvUdZ9kI3Wihyo6SEK9CyhFccAK/BxMj4qOPTIgL2kDL03cg1Lr5YukPdDY+ltcPxKfNvfFa7ClcJ69p+QUFF6lszPxyCgvk5ZgTVoVVygF4o+kKouubJa3Ef6LykC7UMF7X5nI9zLz3KlsYXmgeie90/dsndZSXzzj25R1X0yLsMyW7fyJpHJnxGTdn3UV/zpTf4+Fu93o4sWJyVQmJYG/OduT7DXHKzVLcXjUSsyrGosgst4tdcO7TbxOSMsqK56JPo7D3VlwfVunzevoJ1NiY8P/snXd8G+X9xz+nZUmWPOQd79hOHJI4g4QkZJABSQgrjDDLplB+FAoUaIFOCk2BUjYts+AUCARaVqCEkRASyCpkO3GWHe+9rS39/pBkn6Q7jbvnTuverxcoOsl3zw09n+c7nu/zNdZmf4NS5VBoORa07SaHHI8PTMHU1ou9xd737+mvsTy4Ywhf+N2/CJBHeNlwidhDEnyJ6CPQPPX49er7scVowIz6M3BP5yT0OJQhxfTpWe7FSiOqc7Zjw5jNmKAKfxleLWXDI+m78WPBeixUt9H27ytaPglptPZ8MFyMU9suxJ/6psPoZBGcYPP0Y40RS55pUCYhETkkwU9wOs3RMa3LC6apeFGS+BQJXuotxuS6xXixtwShWfq07aAwW92F7QVf4enMH0Nehvcq3QnsLViP21MPs1v0vu2gHbfGmoal7ctxTddCV2IeKz6DuFgX+xFY7kcEn9+OaPytS4iKJPgJTL/Vgbqoi9/DJ+bp/i9Bxd5Dv0OBezsmYsbJM7DFlOHeGszS93b3X59Sh92Fn+O21KOsx5mq6sHmMV/i75k7kC03s88aYJw6R6HTnoRf9MzGrNbzsc0cSq0H2n1mnacfozBZ+hH0UG3vMkbu4BJRgST4Ccz6lsHo9ZAzWfgSqLXosKJxDq5smYE6qxahxPTpFnqqzIbVGXvxY+EGjFcOjOw3Q27GC5m7sDn/S0xV9dD2C+/9B4jdPzdQiaqWlfjnYEUYZ0S7z/GUq8F6vSLVIGBfnzn2FtKSIIqUxZHAvHK8N9JNAACkyB0YpzZjbJIFC3RDox8wZDlXJJlxTUY3jplUOGFJQrM1McuDfjKUi0+GcnFP+hHcazgKDWXzv14jq/KBZmE6AFAoUw5iZ+EXWNNfjEPWFPwq7SBSZG4x8NqP+4ABsvH/ayrA/d3TccymD/s8nB7LnmVWhiMGXfvOkcqJ8LvukWZNfT/un5AR/IsScYkk+AnKm/X92NltEvWYapkTkzUmTNWaMEVrwilqM8rVZqTJPbFFJ83lyWC5Op2oUJvxXGGD++tOmJwUak1JqDWrsXtYg71GLX4watFvj7LZBwLx154KrOkvwkOZNbhC38AsngyWvkeNrk6p95nvTv++01u0AC8xPmbV4a7umdhkyuHc/lEvvs/x3PBxQebLB3GNpsZ7hyM4YXQo8NTwqTyOwAzlV4/AtdXzaSR54WgPLirQY7w0RS8hkQQ/AdneZcTdu9tFOdZkrRmrDAM4K2UQEzUWAG5Lh81iZCq6QtG/797m/js1nKjSmlClMeKStJ4R0ag3q7B5SI93e9LxzWCKKOcaKdrsSbilbSr+3luKJ7L2Yaa6x/+6stU1CLhd5n2f3Nv7nCqs7p2IF/rH82+8lyUs877PPLVxjGwI9+t20g4E2qDCiS6nRhDB9851YBg0RZA+qwNXfN+MzxYUIEeappdwSHc8wXjnZD/u3N0Oo90h2DEKVTZcnjGAVYZ+VGos8Ops2WqMByoq4/V90DpPlsECnChOsuBqVSeuNnSixaLEe70GvNNrwF6jVrDzjjS7zalY0jgPl+kb8VBGDfLkxgCWvpsg19HXQn11sBwP9UxGj4OQhei1f6f/fSayf5bnS6ifgO/5MF33CHJ00IJzvm3EKzNypaVxEwxJ8BOAPqsDb9b34cVjvYJW1VuRNoybs3uxONXo4571FXE3Xpa7pxNmEn369307bbZBwqiFmqey4vasVtye1Ya9RjVe6srBuz0GmJzxmbP6zkABPhrMwz2GI7g99SjUModPTJ8uqqF5ALYYM/HLrlNRYxXAWxJIlPkSbFApBAzhj5HfQ5RQO2DBgo0nsSg7GT8dm4pzxwSaOikRL0S14D9d240NbeGv+/23qdnEYlQdZjuu29FCZF9iY3U40Wi0CZqZmyp34PrsftyUPYAilRUjcfiAFmMAS5/y+b5XjfUg32eqve+TgFalMeK5gjr8Ka8B1d2ZeLEzB43W+ItnGp1y/KmrEq/3FWN15n6cr2vxuV4I6TrW23V4sLsKHw0JXKKW8bkgYBIzPkcCW/ie4zI9/9Gk+gA2tg9hY7srUbZcp0KOWg5ZFIQeAjE3U4sHJhiI7W/tyQGsqe8L/kUW9AoKa+dEoIQzB6Ja8FtMdnzbEb7gNw5biQm+TkFxakO8k6Gw464x/bgpqw9aOZgtx1BjxkyWfsgxfW4x6nSZHb/IasMvMluxtjcDf2kbg+OW+HNvNtg0+EnrTMzTdOGJrL2YoOyHt6XPfB0HHXI80VuJJ3oJxOmD4nufgJGYPs/dBhwUCilsvoOpGFgL4uigBUcHI92K4JTryA7Qv+8y8urjS5JjZ6ZQVPs09QpuzesiWFFKI5dBLY/uH6qYZCodeKSoBwenNuGOXLfYs8aG4RcDZnR30r/H9H0n7e+YYvrhHG/k/ejfXZ7Whd3j9+H4bsQ7AAAgAElEQVTlwuMYqxJ35oJYbDFmYNbJRbijYyq8xM73+lIU1g/lYVrDMvHE3tMOenvcosxneVy//dJfhRZf1udR2MMmAgYVWdk6yTPMmRpDKxBGtYWv53ghuy1kS0hmqORoMtqI7jMW+UXeAB7I74VG7gxsSdPdp6FY3gCMDhlqTSp0WOUYdMgwYJdh0CFDn00GrcwBvdwOvcwBncyONIUd5UlmZCrsnGL6XoMTmoV7WXoXLkvrxD+6cnBfc3EErrDwvN5fjN8YDiFbThvY+Fj6rw2MRZuAy+v6EeA5okhkulEU4GDyIAmE16DCP6wkwY8MFdkpt4cHQys3zUYsLTkc1YKfwtXCt5INzhkSXPBzlHa8VtGN+XpfkWBwj/plXcMvpt9vp/DNgBbfD6hx2KRCrUmFenP4brE0uR0T1CaMV5sxWWPE2an9KFBaae1hywHwaZfP+fwsow2Ldf247mQZ9pviNKs/gIdFVE3ye14YRJIjzXYdVg/OxIjK0sNNAPtiPnzxuoDkzkfChYGw4PP1CKcqY6fmR1QLvo7jyImkSx8AMqJtCVkROc9gxAtlPUiV2UOIjYMm7t4x/f8NqvBlvxZf9WmxbZCM9dhrl+P7oWR8P5QMAPhlYz7Gqc1YqB/AmboBLE/tB3sOQOBY/7gkI76r2I/7W4rwfGcukfZGDb6Jj17bhcxkC9QelvvBgyZ7MlYPCDDPPhhMYSvJwicG6f6Y7xRlyaVPCK4xfNIufdIjyljhmbG9uC7bU+o2iCXGsL1mWIn3u3V4tysZdRwseC7UmpJQa0rCSx2Z0MkcuCCtF6vSerBYPwAvi983Z4DlfFbnncQSXR+uPVmOAUd8PAcUwBx+cW/nHTfn1CiW5yhWYfVcRLZZ8QDJGL7Vwf8Zkyx8QnAVWuIWfoIJvkHhwNvjuzEnxUKLdcMv1stm6b/ZqcczLSmoMUZ2utugQ4Y3uw14s9uADIUN12V04Y6sNqTL7fCPrbKfz5n6PmwsP4BL68bFSSa/b3hD4Jh20Lb4PFcxktXOjo8HJebPJ7rIUJGTLRMBwY8lfYhqXwTX0o/ELfwEcumforVhS1Un5qRYA2S7+7x3v77SpseE3YW49XhmxMXely6bAk+05aDy4CQ82JyPNpu7ffSYPkB7pbzOf1ySCd+W78e85H6RW04eyjenwb2V/qnosGW1xyQ+Fr1fTF+CD5kE+2OjjX8IK1cT1XazF1Et+Fkcb2wXYcHPT5Ca00vTzfhqUhcKkhzMog74Wy4A1nToMO6HfNxdZ0CTJboHR0aHDM92ZKPigEv4B+1yuLL34T4fj8UJv/PXyx34tLQG1xvEWYdAKCi6yDMM6kR36VO0f7A9dzGFp90+z1XMnk/0oJFTRLPi+wkIfl4M6UNUC75GTnHK1Cdt4RdpY+eGcuUcgxnvVfYi2XOqIcxr3zagwtx9ubjtuAGt1ugWeiae7cjG5EMTUd2d4ZVgCCDg+T+dfwI3Z7SJ32CSMM1Pp+c0iNkOr+vruz1WocfuR99K8KOMcNGdTgLh3zxN7PR9US34ADd3icnuJGrlF8dQJSUuXJ5lwtuVff7uehaLq88uw0+PGrD0QDb2Dcf2temyKfDzhiLMrZ2A/WZtSOcPUPjrmDrcl90kfoMJQAEMUxLhP+gRAycwUlHPy9KP4SlsDM+L93MlwZUiLdn+hsTaIrFk4Ud9S3PVCtQOhF8Y4eSQlVgyBelRZTRxdbYJz5f3Y9QiAYPbfjTxaPeQCpceik2LPhD7jBqcfrgSzxScxHWGDr/kdaas9t/kNCJFZsdvWosi1Wzu+CaUed1nkdvhNzsCI+LIJ7ygp6yYqupk/tDphBUybLMINOXS6/rC+zwlOFNE2Piq6edXdAeIrVlcUS/4XEdP9cNWTCO49GOeWoEWU3wV37kw04znywcwUoEONAuPIXv9uVYdHqiL77Xl72gswrdDejyTX4dkuZM2S4E5q/+OzBb02BV4omNMJJsdFhRTcRvafRZ/Wh7D4GOk0h53xit7sT7zU9ebkWJLo9NOuhxqlLZew6/pjNA9J/TEPZnk1udJMeEEuR97+JXSjrVwb/S79NXcRk986yP7QnpkGWkWplnxxvgBBsvK/QWf2OpVtelxL/Ye1vWkY9HRCWi2KEOK6f8+twGr0roi0FI++MSWaecX+Sx9knEFhlwF+nbBYHpepHn4fCHdDx/oN/P6+1hy5wOxIPgcR3QnCZfCJR07iiSnaO14s3IA3u5G+HeGFIU+O4Uz92fg4+54mH8eOodMapxxpBI1Rk1IMf1XC49ibvJABFoaPpTXvyiG3A2xG+T73PnG9Anu3zdHQ1DYBhsSXCHZDzuc/JP28mJoSh4QA4I/lmP8vJ6whR8viXt5Kgc+nDQAvQLMiVu0+diNZhkW78vAjoH4OPdwabMpceax8dgyqKNfFver3wa8W3wY45OM4jaSAzJgNKbsgWbpi+rSZ3juiOYSBJhlIiz+g+fYry8QeYoJutCHeJbUBYDS5NjK74p6wS/jKLQNw4Qt/BgbybHx2vgh5KicLNnonrcUTpplWLLPgCPG2ElIEYIBuxwrjo3DV/0p8Jun7yMierkDa4qORKilYcA0G4Nu6YsJm4eJlMfBa0lkAfbPRACPmQR39EoZ0ggmyHUTmJJXrostYyjqBX+cntsI6sQQ/+xLOhNSYmskx8Rt+WbMTXU/5GzufIrCgI3CRQfT0GKJ+sdDNK6qL8NhkzpoTL9SbcKfck9GoonhwWbpih3DD1bvga9FHGj/Qp2oVz0DscIH8c+klCSi+2sy8vcCx9oMrpjo0blkQhoJz8WfnEr2YRObCo0Dq8ea4GXKM4m+E7i0JgW1CW7Z+zLskGHl8Qq0WZVBY/q/yGrFLO1gRNoZCl4xfIaYdmSy9MEwCCGYuMdk6Qtp4bN5FiQ4M5FwH3x8iL8XmGvIOVLEhOBzvagkM/W1CllMJ+6tmTDs/hdLbNH9esMRPbb2x+55CkmTVYkLj1dgyC6jdebuD30sun8WHUWyjGzFR1K4DFsmMYpEfj6DCDNV3iOxf0bLWyBYxV4Sfa5MJOxl/V8P/3wbrrPIIkVMCH4ZxzgJiaIKdCbFqJV/Z4EFpyTTxGckYcu7M3yqSYP3OmLzHMViv0mDWxtLaBYcLaZP6+QLlBY8mBOdlfhkrO58V3cgruw7EdBjwqsxTIMyJ4MIk8Z3ECXF8ElwCuH+95t2foJfFYN6EBOCP5ZjJuQBSfCRqXTi18VmsLrx3du39ivxuzptJJoYc3zQm4bnO3OC1t7/eWYrCpX85vkKAeWVBU8Xo0hUgvMRdd/ryLc5EcnSZxhUkDqfBGZqGtn+9+ggP30YG2MJe0CMCD5XC39/H9nO9pQYTNz7XYkZWo/Xid7p0Mp9tlhkuLJGF7E2xiL3Nxdgh1EXtPb+o2OiMYEvQMzcGYEYvqBZ+vT9jxxwtAKeEPiKO92zIFXa40SBVgmNnJxctROomhprCXtAjAj+BI7ZmQd5VlHyJdYs/EnJDlyXZ/OOXTJ0rtcfSkaPTTI9wuXqulIYnXLW2Q4AcG5Kb3QW5GGLaUc6S5+0BR7pLH2hzivBIB2/P0Ygv+sUwrMGxCAmBL80WQmtPPwfSpvJhh6CmfpcpwhGikfK3C6rAGK/rkOF7/rjo8aA2LRYlVjdlsccG6aJy2NRZuVTQotsOPi68wWJsfueJ+14QsAWlpDEnjOkja3/8ayhDwCTCYcYxCAmBB/gfsP3EnbrTye4II+QTNE5sCjNjkBZysN24METmsg1MsrRy4NX4nqqPQfHzSp28aQoTFYPY6m+T7iGhg3L1Ez3cxERC5/V8uYdxPc+jlhZ+qzXV4ILpKdFf94yxHsflTFmAAIxJPhc52AeICz4p2XEhkA+WGINkDjker/6pBqtFsnqYKK69CQ+Lj+BZFlw0b+ryb08LtP8a/f1fiCKMvZH16ALnMgpXoMo5vek3fqi1dL3vb4yKWGPJwuzySYU7+jmZ+FPiUHrHoghwedq4ZPO1J9jiH4Lf1KyA8sz3EJFT1QCRjr3RoscTzfG3ghVDKpLG7AyrR/TtUasrzgR1NLfOKDH1wOprjcssdvp2uGoieV7G7j+oi+uIeorvoRj7BHJ0qcdz29tAEn1w6VIqyS65rzR7oSRZx39WC3EFveCTzpTfwHhkaYQ/LLYhhGTwkkxupmfboi9KSViUF3agJXp/e53FKZrh/FZxfGgov9Ee87oG5aY/j3ZLYK0OVxkXoMRf4+E6PPw2eap8xVlCsxhFqFr6Y8cn2EQIxE2szPJelUbh/kn7MVaAreHmBH8qjRulvUhwpn6GSo5SqJ45bw0hRMXZ9Fj9+4PaBZGn41Cdatk3ftSXdqIleluK5waUQtUaUxBRf/bQR1+GNaC1U1OUVii70eBkqzHiTOBstejoR0kLGHGIj6EPQhsMA0yJDgxm7BXdSeBhD1J8AUmWU6hkGNN/R8J3GA6s6M4jn9JtiOoRfNsowpG/itDxhXVYxux0uBxuXuu1+jPo0pjdIs++6yPJ9pzvTcwWPqr0rqJtpsLanpeAoOlL+o8fCGnrtHDFowJlWQO439c2uDCL2dAEv5wmUO4v/13I//QGlcDNNLEjOADwFSOF3lbF9k1yudkRO/NviTHE7unWzTebtuXmqVpeHTeGNuElemDzJXnaBZnlcaExwvY3fIf96WizpI08v2R/dA6/YujQPBZY9qeLH0xffoBpoySPY7P8QSvpU87ntersIeNN3QKGfFFczZ3DAf/UgCKtAqkKWNKOkeIqZ5/pkGDj5vDX4Xs+y4Tbi0n1445GdEZx89WOXF6qgOgVxLzWKpO1/a1bTL0SkV2Rqge2zwq9nSL3EkrSeh+f8Ckxv2NeQH3t6Y7A7/Na4GXalKU6/pTFKo0RpQlmXHMHEGXoN95gnb+DlFF6bSGJQLuncF973d/hTou5X58PLk0UqU9LpD2pnaYbTDZ+d2EmYbo9fAGI6aGKadxjOXs6CZr4VemqKCPwhHepTlusQd8LLfRzu2ttujNPxAbl9jTY/ZgjWkfMGmworYUPfbA2cJvdRu898dg6V8SDVZ+gOx1pzOOBoS+IitWlr5nsC367ID4grQ3dXcP/5yumTEwU4uN6FOtAEzjWPSm2WhDPcGlcgFgcXYy0f2RYHmGp2djjt23WGTY1BNTt1wwqse2YKXBU3yDJXvbI/ZGDVbUlgQVe8C1hO6mAT1zFrh78LUspZ/xb8UjQMw8Hi1Q0bP0RQpTJABLcsj2s5+1hu8h9kWy8EVCI6c4L0n4PeE4/pk50efWX5DOUJaUZlm+2RpbazcLRXVZC1Ya3D98v+sFr0SyA0Y1VhwpDknsPbzdY2Do5EfvxwzNUEgFfQQlgEcjvjTfx9NFvx1CZ+kzrVUgETIZKjnxyqbrm/lX2JMsfBGZydHFs62LbKb+OXnRtbrc/DRPrBAMiUKu7f/tirnbTZzqslaaZQ+GLHVqVOxNbrG3hTdQ+m9fivtfLG5cisKcZP6WBmfYLN2RLP04ZCSXBd73WQi8EgSd/r9HiZA4K5esdT9kc6CF5yp5XMPK0ULMKQBXdwrpTP3MJHlUrZY0L93dTbNYbsMOCjv6Y+52E6W6rM0l9gGz1F0cMKmxorYobLEHgB67HAdMGv/9Y/S483URFPwgWfrxBf08RUqcY7y+iNPrKxxLCbvzawf418CIZXc+kECCf7DfjAErWTfqmYRHoHxYkOYc7dQY5v9+2xtzt5ooXmLPFrseidknYUVtISex97B5QOctoj4x4/m6CJbZDRLTFnUevhgwhbno7wU73sgGcSr7xRmkLfzPWxPbnQ/EoOBX6LjXVf6G5/xLX86Kojj+3HQEzArelMCCX13ejpUG970Plo1vVPMWewDYPKgLmLg1Q0v2WQybAFn6cYWf50KsLH22XBphDxsvzMrQIJXwTKg36vivWDmHcJlfsYmpefgeFmZrOVVL+rJtGOeOIRd7PyNLC61ChmFbZBOw8pIw2pnQ55PT5v9u70tMwR8Re9/51/T3nnn2xiSsqM3nLfYAsH1I67f/kRvkfl+ksuCkJRIljqmRugBM10XMGH5NyRfIV5ho7fBMLXW9ntt8OjYbs7gfgLG+AgS2uCmf49LbIdAh44ylhI2pfqsDTUZ+8fsKnQp56piUzBFiUgUWZnF7GD4nMCXDF65tIUmFFqyxaM/2mqHEMy2qyzu8LfsAsesDxiSsOExG7AGg06bAgF0W8LjlSWTXeQiLgFn6Yj4rDDF2+na+bQnk0RGypGAQT5JEYJbmkk2KJjFLa1EUeXS5EpuCz3HFuiajDUcIJG7QWZob+YegfKQJPutuuzvRdguFIfYS8HFJdXkHVmb4uM2ZRMUJHDCRFXsPh81q/yxtWkw/YoJP+fzDx50vuiSx5jrwbQlzjoLg4QvR5vvHJwUaBfH15tfU83fnL4qBlVKDEZOCX5KsRBGHhXQA4Is2/okbdC7M1xPdHxfKRyx8ZnE5Osyvw9HIgJkpsbPazhvlnViZYWSP3dK2HzAlYcUh8mIPAEdNSbTYrb/olEVK8JlE1eN2hsjz8Bmui3d8isD+fV+FzpZPhNwIAbmwICX4l8Lkyzb+OTMLo7DYWrjEpOADwCKOF/8LAjeeTrpKzrktpMhXw78Tp70/YuTe2WhkwEdTTPhqqhHz06LfTVBd0YkLPWIfMBvdiVqTCisOjUGPTZifwUi9fEZRA4pUZKs/hgzlfR1c14WKjCgFqkhHEbgvTn+PjvBZ+p5XydLnwkX5ZN35xwctvPOsZhrUSJbH/v2LWcHn6tb/irCFDwAXF0S2CI9aBpZYoauza+MYxXCJvRmzUlwJXuurTFEt+tUVXVhpcBdYYrToRjv/WlMSltfkCSb2ANBoVcLPgqa1J03OL4mIF37Py+h20S18xvYQtPDFdOcDzBX2hB5kxAkFGgVOJTz1bX0L/z6fq95EGzEr+Hys6i8Ji/5FBZF166tkbJ2ZK6ZvdoTfybjE3oJZKXbQLZRoFf3qim6szPARe5bYba1JieU1uegUwI1Pp9PmCTtRrv98xCdNEakwib/I0zeIPw+f4T6RdLvTs/SF2H8ox4OAx4sjLi4k785fe5L/2hWR9uKSImYF36CScU7sIO3W1ylkWBbBIjwqCvCLUdMsfGOY+jwq9syr70Wb6FeP8xH7AOWFa00qLD8ovNgDQJdN7m+p0iz9NHkkryGb+FGCJq8HbYfv/eO9Z/b9C+XLUFN2cXMG4ogLCbvzjXYn9vXxy5XRKSjMi/H59x5ielLhuWN02NMb/s38onUIj1bxmNvLwMUFeiKVnLigGhm20SwL2qs5jH5NIwM+mmrFLL3Dxw3t8Nr/+ioTztmrxre9kV2Qp3pcD1ZmmBnnuY9OvXK9usQ+WxSxB9yC71sXAZ5mOiNn4ftcF//7LB7XtkxDEuUAm/t+r5m7xee3R8/5uc/fSSJHgMZyTSNWp+5AgWKYNuvA53mUYKVAoyC+WM7Gdv59MukpgpEkpgX/nDwdHjnYFfbfHR20YE+vmejUD5IFfcLFJfj0GLW32JnD6MOnpzhplr3T30Kh7f/9SSZcdkCNjT2REf03xvW6LHu6mPqKvvt9jUmFcw5mo1PAmL0vXTaFz/2gfUhRSKYiJPh+OQ0M91kkdpjSBD7CyGjG/ZZ8At04ZR/+mrYDC9XNrg0suRGS6AfmEgHc+S8c7eW9j0j27aSJWZc+AExKTUKumpvYvM+hUl8gdAoZzifsjgoVk4MuxoCvG14tC72T2dpL4fL9ytH9MMzr92xXyyl8ONmEReniu6arx/XiwkxTgCldo9trTUqcUyOu2AOAgvIovK/IRDimyzp7wfUuXmrpj5yFr8i6xZfvWabIrHg0bSd25X2EheoWMOeMuP9zi/2wI6ZtLEG5sois4BvtTmwmUE59aRStmcKXmBZ8ALiI45zN9xr4J3L4QvqBDZUhOxhjsa4XCvowx0SfdspGRT9gFrXrVWzRrx7Xh5WZ5sBTujAq9ssPZqPTKv6jrpMx50B4TP1BewR/fgFyHUQN4QuI63FlGWTxPM+bdLXYm/cBbk05zOoB80qGcLfjv6ZCHkeNX6akJaEyhWyZ6Q0EKqsuydEiRRHzMjlCzJ8JV3dLo9GG7YSXzF2Rp0Nmkvju7UE72LOCnUAyB6PCS/SDWPpiin71eAax97TDg7t9LrHPiojYA0CK3EFrjxsn4Jlf3ueIVP4DW4Kcz3WMeZg9Xv7vQ2deUju2563H3ww7YZBbQqj3MPraYNdhk3lM2MdMBH5SnEp8n8+TcOfnRb6wGkliXvDnZWo4j8DeI+zWB4BrSsg/uMEYsoHWucDP4gjXwvcQbZZ+9fh+rMyweLeDNRtfieUHMiMm9gCgkztYrpdrcNZvj2DCY4D7GTs1FQNDUQyxe1pMnwpjcFOsGMLarM34NPdLTFD2gen5Z62w595+V88cPqcT11xB3J3vwDYCBt05cRS/B+JA8AHuVv5/GskvpnN9JAR/pIdmFsFUJfdoZbRY+tXj+7Ey0wKvBjCJvhOoNSkiLvYAXNPuAliAA5Gy8NksXfdrfETwAaeT7TlxPRfOECx8LWXDH9L3Yl/+R1ihbRrdH62IE9vvzrN9kzkP01ovwgZTAYGzij8uLtAjhfBSuOub+fftM9LVnHPEopW4EPwLOBa+aTfbsKmd7Jz84mQl5oo8Z7PVDGZL1/UPlPCc6cLF0l9mICf61eMH3GJPOx7L/GqXZZ8RcbEHgNIkq1/76O2OmIXPlEBIa2e8JO0BYPEE0QapAbhKdwK7Cz7F3SkHEfC5Axh/F0dtKVjVtQTndyzFMVtk8ntigauLyV+bZwm481dGuKCaEMRFyujZuclIU8rQaw3fGfle4wDxsonXlqRiayfZ/IBAHB/GqOE7Mv/XMdK5lSePJopxxSP6aydZ3ftnmr/t2U5h3SQTVu1X4/NufqJWXekWe98YPcO8e5fYp0eF2ANAhdpdK58+JYv22mYV/+enphyj94t+32jXUcww/k/TGpCpsHjfTxrvDeThiIVbljTl9Xz6T9WkWCz805K68NeMHzBV1cN43wB4P/f0/TqdGIISf+mdjKcHJnJqdyKRq1ZgcQ7ZLPhBmwM/9ph47+cSSfCjl5UFerx+IvwlED9qHsRz03OItuXyohTcs6cd/RwGIFw4OuzbKcErpp+pBPQKYIBn6XYv0ffKRnYfCPDazlf0qysHsTLTyjBvHPAa3MDpcuPvjx6xB4AKtQXe7fYWnRoT2SVAw4JxVof488R/mt6ASpXb/TqS1T4q+nvMKZwFfyRLn0HsmbL0c+UmPGzYi0uT670Hswx1HfwsevfnbwyV4w+909DliOC9jSGEyHn6Vz3/GVjzMjUYo4kbeRwhenpHnqziOD2v12IXZIrepQIUkWDjhNHddY10Pp5PRjujcYScGOHG9NdN4uber64cGhV7euyVrgmebHxj9Ik9AJSrrQgU6z1gJFtVLBS89Jxy/49+3yByov6IRwreIur1OU9Ycj0856um7LgvrQZ7Cv+LS3X13oMEtr/32f82Uybmtq7A7d2zJbEPg2tKyPeTT9d2896HmP23mERXD8mD+VkaZHGcEvd6HXnBv6VM6ApiowzYgPaREDdz5zRJT85yCzemH67oj4g9fb9MnTCAWqMSy/enRZ3YGxR25KtszNfFfT41xkgKA+X1Qrf0xYzhO31F1Od6OXi0haL93zv85Hql4MSFyU34oXADfpN+EBrKBqb7FGiw0GhPxvWdc7G0bSn2WdI5tzURuSBfjyKtMvgXw2B/nxlNRv6rUHLNC4t2oquX5AnXUdnmjmE0DJNdm3y8XkU8NhWImkGm7HXPpxTmp5PtxIWy9Ksrh7Eyy/ODDWxhuSz71KgTewBYoHfncPi6heF632OToTkCMXzP8d3/8H4V2Z0/cuQA2e6ycObO+eAc+T+FEU8Gbf8GhRVv5GxHgcI4cjxaq/yfO1r7hp1y/LmvCtObzsX7Q0Wc25jI3D2O/ADp0UP8rfuzc5ORTnjWQLQQV2e1qpD7qOwVDvH/YNxRLp6Vv63X0zEyd1ZnGMh35lws/fMy2Uff1ROGsTLL6v13bNn4RgWW70uJSrEHgAUpPiLic10i4c4fObpflj49FwNeBeJEaRHL80LMne/7nmXWhNfgjMkz4P7euqEinNp0Dv7SOxEmZ3xN2xKLORkaTCO8UI7R7sSHTfxrq6yKUMVUMYjO3pIj09PVKE3m5iKqFkDwF+ckY7yebLlINrb1OgOIJJCjAsYnCyz6IVj6b55ixnmZ/pZ+9QQjVmbZffbDfD7RLvYAsFBv9I9F0yz9fZEUfD+PiYz2nqJ5hsRqlK+Hwff+8yDAc8SceAfAdxU9dzhpnzUdi1uW4MaOOWiyk53Zk2j8QgDrfh2Bde/VMgrn5MVXsR060dtjcoRricYuix0fNZEvxCPEg83E9j7PjAD2zm0BYbe+h3At/TdP8bb0XWJvY/m+51s0N36Ui32+yoZyjTWg5fpFf4QX5GDMjXDCM7NSvHbQXpksbr6jD6bBBP14jOEir1Er2u1JuK1rJuY2nYVd5gx+7ZFAuU6FFQKI6lNHenjvY1WhHhq5+KEtsYjeXpMjP+GR9fl6HXkr/yfFqchOEj5WO2gD9g3QsvVd/xh97wQuyBHuQWa29Bk6UZqlvzLLhuoJJpdlz+oZoEb2U2uUY/k+PTqt0f2DvCB9KGDWudEpw5d9kRF8im1KGeBv2YrBSJY+5X+9KH4L3OhlNE+SXy4FxSL27va43z/fV4GpjWdjzUApj5ZI0LmjgrwRdGTAgqODluBfDMI1peKFYSNB3Al+nlqBszgmy33ZNoRWE/8MT19uLhOn3O7WHkfAzmtBOoU8ARPD/S19emzYvzOvnmAedeOzegZcL8dNcizfG/1iDwCXZQwG9HRs7I+cO3hkLLyMDUMAACAASURBVMWYG+EaZIlaac/Xk+Nzvbi0RE058EBGLdbm7QTTc+c1imCJ6X9qHIOqk8txf/cUDEpL2hIjM0mO60rJ94dPEJiKV65TYpYhMqE2sYg7wQf4FXN4VYBY/k1jxRk1vt/qGC0OwhK7vChH2Fsebkx/dDvb911iv2yvLibEviTJhmk6WhlghvP8rDfCMcIgMW1Rc/Z82xNovnsIXKRvwQ8lm/Dr9CPQyNhWK2Q//1qrHue3zMflrXNQZ4ufddCjhZ+Xk7fuh+0O/JvAQmjXx7l1D8Sp4F+Qr0Mqx2kVLx3jX4PZF4NKjp8L4MbyZXuvA41m9xvfTs39emme8Lc83Jg+u8XpFvs9yWizRL/YA8AVmYPMokU7z096IywkoSSyiQbbc4GwRh4TVIPYULgNr+fuRoHCxGq5s3nAep0q3NtZhRkNZ2KTMYvPCUmwYFDJ8X8CCP7fj/bAZOc/TL1SgJr+0UZcCj7APXmvx2LHGgFi+feMN0DLcRnfcHinxc7cmbvfT0uhMEknfKcebkzfq50jYi+LKbEHgJ9kDjCI5+j7XUNqdNkiN5VLBjC3j7ZdfAvf80p/Lmgx/QCky614OucAthd/i9maXvjWOwiUS+E53sv9pZhSfyZe7BtL6owkGPhFRTrUAiTEvUBgoZwL8nXIUMX/FMu4FfzrecSJniGQ7emLQSUXJFnFl3UtDv8YJf0VFH5dJs6DHW5Mn77dZdlrY0rsr80aRGESLSeB4Txf7RB/+WRGfMIm9HaKK/j0++8z/z0It6bXY2/pt7g+tYGTJ2mLMQMzGpbglx1V6HGIM302UTGo5LhVAOv+/YYBdJj5r8x5bUn8u/OBOBb8cXoVZnAs7HB4wIKNhJfNBYA7K9JhEHgUeXDQgT0D7o6T3onSLJ3zs2WYKIKVD3CL6bvEXhNTYg8A9+V7PEPM7uMeuwLvd0fDHF9q9D8mS1/8ifiBs+V9WKjtxg+lW/Bo9mGkyqzwttwp7+eKYf91tmRc2TITK5pOR60lGu5H/HPnOGGs+z8f6uK9j3yNAmfmJEZdhbgVfAC8RpTPHyVv5WsVMkHKSfryXJ11NAbK0on+aqx47qtwYvrHTTIs262OObG/NnsQhSo7/ESTdh+qO/QwOSJ7Xq6j02x4hudD7EJ7fu3wmn8/er1KlEaszd+Djwr/h3KVkfn7ATwXgw4F/tA1AVV1i/HJUK4AJyPBhEElx8/KyPd7O7uNODLAfyqeEJ6HaCWuBX9VoZ7zgjobWodQN0S2vj4A3FyWjhy1sNN83mmxo9XEUHmP1vmtzJFhSop44hNKTP+4MTbFHgB+PaYvcCzaCbzSHiVJQZ759my5FGLCmOvgeev6h1Zmxx+yjmJv2XdYoetgzI2gf997u+t38FZ/PqbULcLfesqEPycJL+4SyLr/00H+1r1aRvEK/8YacS34AL/R29MCxPLVcgr3TzAQ368vLzXYmTtxWuf4ZKW484s/7ZThqv1KbOmVYUufHFt6KferDF90K7Bsd1JMiv2DBX3IT6JNAWOwOD/v06LeHPn53CMWfoBYt0NEE9/JlljnDket0Hdiz9jvcXfGSdp25nYzbd9hMmBB/en4WdsUdNilOL3YGFRy3CKAdd9itGETgbDrtaWp0IuQTB0tUE6nuEtliE23xYGST45y+luNXIbDZ5ciTYC4+9QNJ3B8kLwHwYNBSaFusRZwOkZj+RQAh/vV/f6WfVa83eIItjsJFoqTbNg3rZXl+lKu6w8K3w2o8LPjWaiLsOgbFDbUTTow2l6fdsLpxCk1k9BoFUccd5TtQmXSsHd7gIDtoz+/bN9vtqrw+85xeKd/jCjnIcHME1Oz8VMB6pDcvKsVawnUzt+7rBQlHNdfiUXifmhjUMk4F+Ix2h145Tj5efkA8OfJws717bY68dfjFm+xZ3CXPjJeAV3kDc+Y5bGSPu/53iwW5+l6C/ZOacQjhd3QySM5wPJpH5vFHMn2AKzXMdh2E+R4rGssptXNl8Q+wkxKTRJE7NvNNiJivyIvOaHEHkgAwQfAq+jN00d6MGQj30GvyNNhXqawmaGPH7eixeSE92potFdQyFRS+PM4SfG5cFGGEWenm/zFKsBshNtz+7FvSiNuzObfYXGBuZa+dztFLa3rbhXjoCnMSo0fDOTi1BNz8XBnOYyO+J9THe08Nz1HkP0+uK+TyH5uKxc+tBptJITgV+pVOCOLm7j2WR2CzMsHgL9NzRZkvx6MduDBWiu8YrYMltF1BXJcJkIFvnhinMaGF8p6Eb6FCmQoHHiypBvbJzVint4kbsOB0CxmseFo0YOiUGNOxtKTM3FNcxUarBrx2izByiWFekwnvN49ALSbbHiHgHVfoVNiflbiPSsJ08vfOY77aO6ZIz3os5K38itTVILX2X+vxYatPe44ZwC388uTlJikj72EuUiQLHdiXWU3tHLAywRlu74+YRTPhglaGz6tbMGbFW0oSRIun4MOxdAOP0taJEpUJmQqPPPofa4j/ZXF0u+2q3BXayVmnZiDbcbEKJwSC2jkMsFClr/e10FmPxMyiewn1kgYwV+So8WUNG5LxQ3ZHHiSwGpMTPzulAzoOdb9D5W7D5rBGruldaJvT1UiRfLuB+Xl8l6Uqj3VvXzE0+/6slnQoxb/eWnD2DulEauLuqAXK77PME/d016hW6CT2fFIbh32VuxCpsLGcl0Ce0xe6CnCpGOn49XefIFbKxEu94xPR64AU4+bjDa818B/kZyxyUqsKtQTaFHskTCCDwAPnMJ9VPf3oz3osvAv4ehLmkqOByoziO+XTs2gA3+opRWoGEnk8+5MizUyrJ2aWEks4fLHogGcmzGyQpH7hcFCDTkWTY18/7bcfvw4uQHXZvHv1NigvNrD5jYXjhvS27B33A+4PaOJvR0BYvqbhtIx7fhs/LqtAoNSnD7qKNAocK9A/dmv95Kx7n81Qdj+NppJKME/OzcZlXpu042MdicePySMlX9bRTrG6oQV2r+dsGJXn3tqE1PillsK5hnkeHWyJPpM3JhjxF0Fw7TrxTCfHRR6bTI8eDINvTZZSDF9+vZslQPPlnRgy8RGzBUgvi/zDS8wxMaF0Px5yf3YXr4HT+UfR6bc6nNdnP6DDZ/2HbVocUlDFc4/ORXHLIkXe40VnhEoUa9uyIoPm/gPhAs0ClxRFCUFsCJAQgk+APx2Incr/4WjPWg12Qi2ZpRnpwnzQ6Fz414fy5TJwnICq/Lk+E255NunszTdgifLBkKI0TtxRW0Gnm3RYdKPufh7iy7kmD7doq3SWvBZZTPWlLWiUEX6mWO5/wIE8UtUZrxVXItPSw9igtqnHO7IdZGxekD67XI80F6G6cdOw4bBxMuqjiVW5utxZo4wSz+Tsu7v5+HljQcSTvDPG6PjbOUDwGMCWfnzs7S4iuOSvqFyYtiBX9Z4XPuBY/r3jVXgrhLJZQoAi9IsWDPenRkcKEYP4I8Nqdja73q++u0y/Ko+DTP35GBjvybEmL73fi8wDOPAlHr8oaAbWhnJ6Dp7ghyJaXk6mR0P557E3vF7cG4KfZYL03PnH14CKLzek4spR0/Dc10FvNsjISwpShkemyJMot7+PjM+bRnkvZ8CjQJXJ8Ca94FIOMEH+MVwXjneK1iFvL9UZQm+mt7LJ614pcHHYvTqdKlR8RqnxN8mJLalf2mWGR9O7IdGFiQbH8DnPWo80eS/+tphoxIX1GTistosHDcpEDCmz7R/ULg7twd7qhrwk0x+U5Io+vGYYuYYLV7HlesNHdgzfi/uyG7D6HlR8PMksOQ6bBtOwdzj03FHSwW67FJ4KRZ4aFKmIIl6AHDHj21E9iNUbkEskZCCf3GBHuN5WPl37W4n2JpRUpUyPCHw3HzAlbW/sctjLTK4m2mW502FCrydoIl89xQY8co4d9wwkFg5gUazAtcdCTw17LMeNabuycPvGtIw6JB57yeELPUcpQ0vlHZg68QGzNbxjO8Hmu/OkXnJA9g+7gCezq9DltIn+z6EMMZJqxrXNVVi6Ykq7DMJ4xqWIM8Mgxo3lAozLfKDpgHs6uafy1KoVSTUIjlsJKTgA8DvecTyN7YP4fPWIYKtGeXiAj2WCBQHo3PFjybsG/Qx5Vimkp2TLceGmUrkJJGP8UYjapkT/6gYxO9K3DFntli3+/q02+Q496ABQ/bQrs9TzXpM3ZOHNR26sC19OIHJWgs2VDbijbJW5HON7wfIjg/XwC9RmfFm8TF8WlbritMHylVguI5GpxwPtxVhxpFp+HdfYsdYY5GXZwi31PB9e8jE7h9I0Hn3viSs4J87RodJqdzm5QPAr/YKY+UDrpKUyQKv4DRsd+KiXUYcHfZ074Fj+rPT5dg2R4VFGfH9yJSqHdg4pR9X5lj8s/EBP7HqssmxfL8Bx03hhWLarXLcdtyABQdysX0gKSxL3/N6YfoQaqrq8Nv8LnfIITgjQ5IRtz6Ys+NDQCez46G8JuydcADnpfWxt5vJk+BmXV8WptROw2MdBTA54/vZikd+NSEDZTphFlr6c00XkSTpCp0SVyV47N5DQv/C+FSDOj5oxTMCFePJ1yjwBx4eiFBpMzuxfLsRR4aZLH3/mH6GisKH05W4vyw+4/oXZVrx/bR+TEx2+FioMjDVcO+0ybFsfzqOGrnnXeweUuGsgzm48WgGmqzu6+o1Tx+slr6nffeO6cHuSXW4IiP4tKXRGD4A0NdYGL3PoQwdrjV0Yc+EGtyZ3Qbf6xJsFgNAYZ8pGYuPT8KNDeVotUnL1sYiFXoVHhRoTnu3xY6/1PBf7x4A/jhJ2IXKYomEFvyF2Vqcnsl9Tu/qQ93oMJMvxgMAt5SlYS6PtoVKu8WJpV6i79tpw89Cu79Mjq1zVJiRGh8u/hK1A+9OHMLrlUPucrnwES26m9310mOTYfm+NNTyEHs667qSMX1PHh5rToPJQcH/PgQW1TyVHS+WtmLzKQ2Ykcwe86S87qeT8T4HytKfnTyE7ZWH8GxRA7IUNvZ2slj6bTYV/q+xFHOPTsauYf8ER4nYofq0PMH2fQ8hV/60tCScO0Z6zjwktOADwCM8rPwhmwN/OEBm5SYm/nlanuBldwGgy+LEsu1GHPCN6bPM0wcoTNZR+HqWCv+crEC+OjaFXy93YvVYE/bOHMTydJt/jJ7Fcm21yLB8Pzmx92B0UHi4MRWn7s3Dhz3akGP69PnsU7UmfD2hEf8c28Ie32eJ3Qdy5xeqLPhXaT02VBzFBLU5QOVA+F9Hd7uf6szDlMNT8K8eyeKKdX53SgYm8giJBuJAnxnvNZBZTfJPAi9DHmskvOCfmq7GOXncR4Br6vqwt9cc/IscyFUr8JwIBXkAoNPixJnbjPiiky17n1n8Ls6Vo2a+Eg+PkyMzRjyzGhlwe4EFe2YO4bZ8d10Clhi97/nvH1ZiwZ401AwLN32ywazA1UeycPbBHBwyei5qaJa+x1S/2DCImqoT+I1PfN8rhu8XW3dZ/PRhn1bmwB/HtOLAxMM4P7WPuR0Bs/0prO9PQ9XhKvyupQDDjoTvcmKe2Rka3CPgFLdbfyAzDW9hthYLOK6SGq9Ivz4Av5/EL15+O6F5okxcWKAXrRTkkN2Ji/9nxLN1bsuQbsGxFEfxvL+jWI4D81V4dLwcuVGazZ+icOK+IgtqZg/hkVIzMlVuaWOzUH3EdHO/EmftTUGrRZyfzdaBJJy2bwzurMtAl02G4Ja+561sZPt9ud34YVIdLjV4LCam8/QcUeY1Cf+ajB7sPaUWd+V0BonR+wwa3PuvtWiw4tg4XFFXjjqLMNaghLhoFTK8JqAr/8VjPdjdQ6ak9ENS7N4PyunkW2YjPvjl7na8fLyX898/WpWFW8vTCbZolGGbA7O/qkfdkDhLqALANQVKPDeRbrI7R1+dDNsAmlg48WazA681OrCzL/KPV4XWgZvybLg61wad3An/dtP+7bV99Hv/bE3CL45GzlpIlTvwQEEvbs0ZgFf7KHi1c2T7CKP/3jGYhKdaDXirrInl+67Xy48V4oG8dlRpTD77YP6+73XstcvxcGseXuqUOtx44x+n5uJKgTLeO812TP78BIZs/CtK/qQ4BS+cKtx0wVhFEnw3PVYHpvz3OHo5rnuvkVP4cWkpxmiEyWDf02vC/K9PCrJvNk5NleONKUko0tAtNwfN4gfgoImOn/hQODBgxz+bXAOAIWHyG1m5IteOa3NtOD3V4d2+kXZ6zsez3f0eo+c3bHfigeNavNYaHfGKcWorHivuxuJUd40A3+vudZ6082EbJAS8LlTg77s2eG1/qSMTj7TmocculWWON87O0+GdOWME2/8FW5qwsZ1/fROdgsK+5WORIXDV0lhEEnwarxzvxd08qugtyk7Gh/OEW5/70ZouPEJoqkqoJMspPD9JhYtyPQMZ56j7mNXS87Ew3WKwq9eJHX2j/zUSXAwuUwnMSnVgZooDp6U4MF3vhFZGt+Z92scoWvD6/tc9ctx2RIMmc/RFvpanGbG6qBtlamsI5+N7PxBQtL3/jgrhPjuxZVCHOxsKUGuWXPfxSL5GgW1nliBVoCTij5sGcdX2ZiL7emRyFm6vEMbbGutIgu/DzC/qcHjAEvyLLLw4I1fQmPu53zZic8ewYPtn48oxCvz1lCS3S5yrBej9d702oGbAgdph4PCQE4eHgG4rMGh3/2cD+mxAshzQywG9AtDJnUhXAuO0TozTAuO0DlQmA9lKB4uFSmunb/tY2t1tk+G+Y0l4tz36Swr/PLcf9+f3Qi+zh2bph3D+4Vj6x01KPNg8Buv7pMIm8cy3i4swJU0tyL6Ndgcm/7cO7Wb+RXZKkpXYu6yUQKviE0nwfdjaacTZmxs4/71BJccPS0sEWwSnx2LH7C/r0SLQMr2ByFJRuK9MiVuKlAg3pj/ynuZdDh4T9rU4weH7YbQPTlS3KvH7E0noskZn4iETGQo7HirswdWZA2HF9EOx3L3+jnYdBx0yPN6ahSfbpDh9vPP4lGzcUiZMrXwA+PkPbaiu6wv+xRD4aF4BFmZLmflsSILPwLXbW/CfpuBVy9i4uECPfwqYyRqJeD6d3CQK945V4qdFyjAt/XBzAHy2UxTgYDkeo7s+RE8EBbzTJsfqehWOG6PPfR8qk7UWPFXSiZk6c3BLP5TEP5br+GZ3Gn7XlIMOW3xWXJQY5fx8Hf41S7i4/a5uExZvItOXnZ2bjHdOFy6kGg9Igs9Ao9GGaZ+fgNnB/dJ8OC8fi7KFWwTn1eO9gq3aFyoFagp3lipxc6GCU0yfMTve1zr3/D1vS9/zfe/j/btDjj/XKVE7HLtC78slGYNYXdSNHIXHC+SkvXiugY/o07/Hch13DWlwd0Medg8L49qViC4mpCRh06IiaOTCebumbjhBbLnxPctKUZoc/WG4SBI/vRxBCjQK3nPzb/1fG/o4ZvyHwo1j00Sbn89Go8mJe2osqPjGiOfqrDB59CJYBTdK5r2dqdiN73vn6NvRWDTD953Bvk9hyEHhxSYFTtupwXUHk+JK7AHgvS4dqvYUYnWzJ3GJaZ6+x3IPfh2brUrcVJePxYdLJbFPEJIVMqydM0ZQsb9rdzsxsf/jpExJ7ENAsvADMO+reuzt415FT+hpLAAw56t6HODRRpKkKyn8rEiB83NkmKjziArAakk6AVAMMfagbmbaNqb9sngWtvdRqG6V4702OYzCjcWiinyVDY8UduMiwyDCjembHMAzbQY80ZoBo1QhL6FYd3o+luUK56Hc3DGMc79tJLKv8XoVdp5VQmRf8Y4k+AGo6bdg1pd1vPbx3PQcXFOSSqZBDDQOWzH7q3r0C+hN4EK+msLKHDlWZMkw3yCLWEz/8BDwWZcMa1pkODIcO4l4pJmrN+HJkk5UJplDysb/T7cODzRmo8kixekTjV+ON+D3Aq7W2Wd14NQNZLLyAWDLkmJUCVTXP96QBD8IDx3oxF8Pc18GV6uQYduSYpQI6G7a0jmMFZvJjJaFIFkOnJ4uw7x0GeYbKMxIoQsv2Zi+yQF82wN83kXh004KjebEFXkmrs/qx2/zu5GptDNexxqjCr+oz8a2QeFXapSIPi7I12PNLOESjgHggi2N2NhOZmrxnePSpRK6YSAJfghM+/wEjvEoazslTY1vFxcRbJE/6xr6cePOVkGPQQqNDDgtTYZyLYWxWmCslkKpGijVuj4LZV5/g9GJehOFRpMTDSagwQScMAI7+qiEcddzJUXuwIP53ZistXhd33e7U/B6hzSfPlGZlq7GN4uE7adeO9GLO38kk2xcqFXgwPKxRPaVKEiCHwI7u01YwnPqyN3jDfiDgG4yAFhd04XVIlfik5CQiH3yNQpsWVIsaDnahmErTv2iDiY7Gcn5/IxCzMmQPFHhIGXihMBMgxo3jeVXeOJvh7uxpVPYCnn3T8jAqkLJQpOQkAgdrUKGD+YVCF57/sptzcTE/vrSVEnsOSAJfoj8aXIWCrX8Ephu2NGKAYGT616dmYt5mVKlKQkJidB4a1YexuuFXRzq9wc6saeXzGyiAo0Cf67KJrKvREMS/BBJllN4dSa/ZJZWkw037Gwh1CJ23pkzBmW66FjdTUJCInr529RsLM4RbvodAHzaMogneSQ++/LaaWOQLGB9gHhGEvwwmJ2hwc95rnn/eesQHhU4zq5XyvDB3HxkJUnLQ0pISDDzqwkZvEOVwWgy2ogmE/+8PB2zM6TiT1yRkvY4MOXzEzjBI2sfAD6cV4BFAi/yUNNvxtJvGgSt+CchIRF73Dg2DU9OFd4tTrIwWGmyEnuklfB4IVn4HHiNwMI4V29vRuMwmbKSbExIScKH8wqgU0i3WUJCwsUlhSmiiP2NO1uJVgF9XcBFfBIFSQk4cGq6GveMN/DaR7/VgVXfNxNqETvT09X4z9x8qKWYl4REwrM8T4fXZuYKfpxXj/diXUM/sf3dW2nAtDSpmh5fJJc+D+Z+VY99PEewqwpT8KoIP8Cv24awcmuT4MeRkJCITuZnabF+foHgxyG9fPf0dDU2CVwQKFGQLHwevDVnDHQKfpbzuoZ+vHSsl1CL2Fmckyx4yUwJCYnoZGq6Gu8KvJAXAPRa7bicoOcyVSnDW7MlVz4pJMHnQbFWiRdn8BfRe/a0Y3uXkUCLAnNBvh5/PzVH8ONIRC/JChmmpasxP0uq1ZAonGpQ4+N5BUgWIZfnkq3NaDKSWRQHcOVLjdFICziRQnLpE+CePe28rfQ0lRxbFhehSCv8ms5vn+zHLbtio+6+BH8WZSfj/8rTMC09CdlJ3p1nw7AV33ca8eSRnqhZZlmCHAuytFh3er6g69p7uHFnK9G4/a1laXh0ilRghySS4BOCRDy/TKfCxoWFSBO4xCUAvNcwIEoRIInIkZUkx3PTc3B2ni7od50AnqntxkMHu2B1SF1CPLA8TyeKGx8AHjvUhYcPkqsvMik1Cd8tKSa2PwkXkuATon7YitO+qIORZ63o0wwafLmwkFCrAvNx8yCu2ib8TAEJ8clVK/Dx/IKwS6b+t2UQV25rgU3qFmKaSwr1eI1nZdBQ+bBpAFdvJ2c86BQUvj+zBMUieDsTDSmGT4hirRJ/P5V/tv2ObqNoy9yeN0aHdafni3IsCfFIV8k5iT3gsgpfmiHlecQy15Wmiib2P/aYiIo9ALw4I08Se4GQBJ8gFxXocec4fqV3AVfm/p9FWuZ2WW4y1s8vECXGJyEOF+breS2GcklhCipTpLUYYpF7KjPwzDRxBmzNRhsu/o7sVN97Kw04b0zwEFRQjG3AoZeBg38Hhhr47y9OkFz6AnD+lkZsaue/FO7LM3JxWZE4y91+32XExVubMGiTyvDGOluXFGNyKr8iJU/WduP3+zsJtUhCDP42NVvw2vgehu0OnPH1SRwesBDb51k5yXh/LgGP45E1wLZfAXb3zCdlCnDuBiB1PP99xziShS8Aa2aNQWkyf5fUT3e14tsO/gOHUJiTocFXCwtRIE2BiWnyNQreYg8A54aQ6CcRPbw9e4xoYm92OHHx1iaiYl+hU+INEqVzj/wL2HrHqNgDgLUfOPgS/33HAZLgC0CqUoZ1p+cTWcLxsu+beWf/h8qElCR8u6QYU9Ol1ahiFRIDTQAoIrQfCWHRKWT4dEEBziHhBg+RS79rwtZOcnVDUhQyvDe3gHcRMwy3ANvuY/7M2MZv33GCJPgCMU6vwj8JjFgHbQ6c920jjg6SG00HIkMlx4YFhTg/X7LwYpFiQkKdJKOQqpS6h2gmR63AVwsLMS9TvCJKl3zXhI0EwpV0/jWbjEcUe/4KOCzArEeBRdVA+ZUA3IOIJHG8H9GO9IsWkOW5yfjNKRm899NtseOczY1oJFjBKhBqOYV/zRqDeyv5t11CXPhOC6UjdQ7RS2myEpsWFWFCingLyly/owUbWoeI7vPhyVlYSGSZcCdQ/xGQOxeYcDNQfB4w73lg2YeATAlopfK8gPSbFpz7KjNwUYGe935aTDas2NyADrOdQKtC47enZIg2vUdCQiI0Zmdo8M2iIuSLmG9z865WvN84QHSfV5ek4o4K/rOaAAA9BwFTJ9BbC1cZKTd584HUCkAbZMp0w2dk2hHlSIIvAq+flkdkFFs3ZMV53zai3ypeJv0lhXpsOKMQBhGq/0lISATmZ+Xp2HCGONU4PdzxYxvWniRXMhdweT+fn05w+qDJPY3Z2AoceN77s+G24IJ/8B+AUzxjKlJIgs8F2yC8RpEh8PacfJxCYG7zwX4zzt/SCKNdPNGfnaHBliXFmCKtRy0hETFempGLx6qyRD3mr/d24PUTfUT3WZWahGrSK+DZaYnNu/4AnFzv+rfDApi7AE0QT+VQM2ARftXSSCMJfqgYW4GttwNvFgP/KgTWjAE2XATUf4xQxD9ZTuGj+YXIU/N3w/3QY8JlBJegDIUCjQLfLi7GJYX8wxMSEhKhU6BVEwMo3wAAIABJREFU4vslxbhcpJocHu7e3Y4XjvYQ3WeBRoGP5hdALSNc6EtDW2THaQc2Xueaojfk7ieTAwj+YAPQfxSwm8i2KQqRBD8U+g4DH8xzPUDZM4Ez1wJnvgPkzgN2PAh8chbQsz/obrKTXCVP9QSWqdzUPozlmxswLHKhnNdm5uH3EzNFPaaERKKyKFuLbUuKMZFAbYVwuGlXK145TtbiNahk+GSBQOHB9FMAJc0YcdpcBtqW2wBKBqhZVt1z2oBt97q/I673JBJIgh8MpwP4+mqXWyitEljyNlCwDMhbAFTdDVy0A0ifAHy8BDj8WtDdjdOrsHYOmfr133UasfzbRvSJGNMHgF+ON+C90/Ohl6ZtSUgIxn2VGfhwXgFSRP6d3bCzBe8Sjtlr5BT+M68QY0lMvxtsANq2em+TKYHSC/2/2/YdAAqoeQmw+iQd9tUCX10FNH4OZM4AZPFfTlrqsYPRexDoO+L6t9MJOHyK4MjVwNxnXVNBvv+lq/CDM7AAz8/SYC2hZSt395iw7JsGdIqYvQ8AS3OTsXFhEcp18f8jkZAQk+wkBT6ZX0BkSm+4XLGtGe81kM3GB4C3ZudjGokcIIcV+Px84LNzXWJtoeUXVN0DKBiSo512YMf9wFtjgY/OAD5fCfx7BvCfWUDjBtd3xl3Dv20xgCT4waCP+voOA+umAt/9An5x+/wlrtdDLwObbw6a8bkiT4fnCGWpHuw3Y9Gmk2gcthLZX6iM06uwdUkxflZOaGqNhESCszgnGdvPKsaCLPGK6Xg4f0sj1jcPEt/vmlljsCSH0PkM1gMDda5/N3wKfLzQFX8HAF0hMOcJ9r912oDuvUDLN0D/sdHthslA+WVk2hflSIIfjNRxQNaM0ffmLqC22ts91LED+ObG0fcn3ge2/BzBkvmuKUklNoqvH7JiyaYGHBOpIp8HjZzCY1VZ2HCGVIdfQoIPj0/Jwgdz85Eh8hTYYbsDyzc3EFnwy5cnp+bgApJVO1PKgfM2AeNvAORJLvFfvxzoOeD6vOxyYPbjrph8KCSlA2e8ClCJ0XdJgh8KC//pGgV6mHKfawUmAKj/BPjvBYC52/tvjq11JYME4b7KDPyU0KIXLSYblmxqwKF+cUUfcE3d23FWCa4rTRX92BISsUyF21N2S5n4nrIuix1nb27EdwRr43u4f0IGbhwrQH+QMcVlyV+0C8g7w2WE/fcCYOCE6/PKm4DlH7kGB4FIGQss/8RVmCdBkJbHDYfeQ4BSByQXuN7XvAhsvx8BLfmpvwKm/jrorq/Z3owPmsi401KUMrw7Jx+nZ2qI7C9cvmwbws92taHdLE4pYIlRLirQ4/XTyFRHLP74KHpETghNNG4oTcNT01gyyAXmxJAV529pRP0Q+VDgDaWpeGoawcI6bDgdLsPq8Gsu4T7nC0DlHmQ4LMCxd4Gja4Gu3YBtCADlMt7KLgMqrwfkkekjI4Uk+JxwAjt/61/RiU7WDAAU0LETWPwvoOicoHu9eGsTvmgjV6v6tZl5EZs332914L697Xirnmy2r0RgJMGPDfLUCvxjRi4WEakjHz4/9piwcmsTeizkk31XFerxqtgluXc+CBx4ARizEDjrfWaXvm3QJfBU4lYNlVz64WI3A5tuCCz203/rGmmeswEYfz3w7f+5CvcE4f25+ViWm0ysqTfsbMHjh7qI7S8cUpQy/OPUXLx/ej6RYkMSEvHCtSWp2HVWScTEfn3zIJZtbhBE7C8lKfZOuysx7/i7wHCQQmMzHwZKLwaaNwGHXmH+jkKX0GIPSIIfHpZeYMOFQN0HzJ/LlMCCF13z8z2Mvw6w9gM7fhPSIdadno9zCa5t/aeDXbjth8itBX1WbjJ2SbF9CQnkqRX4cF4Bnp2eE7EaFq8c78UV25phIriqooeri1PwCimxt/YDny53Tb3bfAuwrsrlureyeQwpYO4zrrj9/x4ChhrItCPOkAQ/VAZPAuuXAm3fM3+uTHG5ksZe6r3d4R5Fn3h/dDpJEN6aPQaXFZIro7mmrg8XbGnEoMhV+TzolTI8My0H6+cXoEhLZr12CYlY4rrSyFr1APDgvk7cvbtdkH3fWpaG508NskBNOOx4EOjYNfreaXdZ7v+ZPVon3xeF1pXMZxsK2cBKNCTBD4WuPcD6s0YL8PiizQdWfOZaitGXpi9G/33snZAP+fLMXFxbQs4q3tg+jCWbGtBkjFwi3fwsLXacKc3bl0gcSpKV+HBePp6ZFjmrHgB+sr0Zzx7pDv5FDtwz3oBHpxBMPBw8CRx5k/mz4Rbg658AX6wanX9PJ28BYKgC6j9yVdKT8EIS/GA0fgF8dg5gZBkZp08Ezt3gquXsi6kTOPD30fed/wvr0M9Oz8HNZWSm7AFATb8ZizaexO6eyC0SoVXI8FhVFr5cWIip6eqItUNCQkh0ChkemZyJvctKsSibXF5OuDQZbZj7VT0+IjQDyJfVVVn4Hem1Neo/ARSawHPpm74E/jPH5eYfbvH+zFM3JQwDK1GQBD8QtdXAV1e4p3MwkHcGsOJTQMtQJtduBr65wXvJRXP4i1H8dUo27qskV2Kz1WTDgo0n8SrhhTHC5TSDBpsXFeGlGbnIlZL6JOKI60pTsWdZKW6vMES0HTu7jZj7VT329ZmDf5kDT0zNxm0eb12QcuJhMXgSuPgH4NIDQOlF7N9z2lxu/vemAt/e6krwa98GtGx2fd78Dbk2xQnStDw2flwN7HmM/fOyy11JIjKGmLR1ANh4LdC80Xt70TmuKXocePFYL+7dQzb+tqowBc9Nz4FGTnipyjAx2h14qrYHT9X2wGiXpoHxQZqWFzlmZ2jwxNRsTBZ5ZTsmXj3ei7sEitcDwGun5eGSAr2rRO03N7pqlCx4BSg+l//Ozd1AEm2wdPJTYNs9/pZ8MNSZwOUsYdgERbLwfXFYXdPoAol91T3AlHuZxb7/GLB+mb/YA0D+mZybdUtZGl4j1JF7WNfQjwVf14tejtcXjVyG+ydk4IelJbhU5DW/JST4UqhVYs2sPGw4ozAqxP6OH9sEE3u1jMJ/5ha4xN7S71qIpqfG1W/uXk3mIEk+npGiFcCF24FTbg29ZC7gKpIm4YXkS6VjG3Qthdu8iflzSu7KAh13LfDVlcCEm4Axi12fOW1AzSvADw8zhwD0pUD5Fbyad0mBHho5hSu+DzInNQwOD1gw9+uT+MepOViZH5kiPR7yNQq8MiMXt5en4f69ndjSSb62t4QEKTJUcvx6QgZuIZhnw4dOsx2Xfd+Mnd3ky+QCgE5B4aP5hZjhyb05+HeXN/PiXa5ZSkaO0387fwSOvu1KjrYOANocV/Ld2EuA5ELXd5R64LQ/AxU/AX78M3umPp2iFdzaE8dILn06X10JNHzG/JlCCyx8HSg4y/V+oM41TS9vPiBLApq/Yk/sU6W6ajYbJhFp5rYuI1ZuacQw4bm0PytPx2NVWUT3yYeN7UP43f5O7OkVJgYZj0gufeHRK2W4e5wB/1eeHvFwmIdd3SZcua0ZrSZhZuFkJsnx8fwCTEyheTA+nAtknwbMeZLbTq0DriXFj69j/lymAibeCkx7wH+t+u69wJ7HgZOfMa9MmjkdWPofQCV5DOlIgu/BbgLWsHSUmmzgzHeAjKne23v2A59fBJg62PerLwEWrSEm9h729JpxwZYGdFvIdsgzDGqsmTUG+VG08t0nzYN46GBnRBYFijUkwRcOjZzCreXpuLMiHWkir2gXiMcPdeFPB4WrqFmsVeLj+QUoSaaFMJ024I1sYOZDwMSfh79TS59rTfue/cG/mz3LlfukZpgNYGwHGj8H2ncAw62AMtmVTF1+BSCXZgH5Igk+nU+WAJ0/eG9LrQDOeg/QFTH/jbEN2Pc0cPh1wE5zpWmyXe4nbR6QOw9IqyTe3IZhGy7Y0oCjg2QXv0hRyvDqzDyiZX5J8F5DPx6u6cJxwucbT0iCLwzXl6bhgQkG5ETRjJJGow037mjB913CuPABYHq6Gv+emw+D7wDH1AmsrQCqfglM51Dk5otVrql1k253FSvr2QfsfRroO8z8fcNk4Oz1Lte+BGckwafTd9g16jR1ut7nzAEWv+laMzkYtiGgez9gHXSJvEfgmzcCX14GZE4DZv0FyDyVbJOtDqz6rgnbBPjR31KWhsdJFtQgxOsn+vDs0R4cGZAsfl8kwSeHQSXHzWVp+OnYNGQlRY9FDwCftQzipl2tGBDw/qzI02HtHIYpx4DLq7l2nEuIz98c3o5Pfgp8fZXLiLpkz+h2h8VVFpdtnZLC5cCSt8M7loQXkuD7MtTgqvKUnA+UX8l/sQVjO7BusuthlimBBS8BJSvJtJXGLbta8fZJ8ivTTU5Nwr9mj0FpcvSVxN3QOoTnjvZgU7uU3OdBEnz+jNUpccf/t3fe4VGVaR++J5nUSa+EhAQSQu8dUZAmoigKir2va117X7vrt7quZV1d3dV17ausig1FUAHpvUhNKAkJCYEU0utkvj+ejFPOGVInmSTvfV1zzZz3nDlzMpmZ532f8ntSw7ksMdRjYvRWKurquX/nCT7IKHbr69zXP+LUgjp1ZfBhQ0Ld1Pcg6fymn3zpfMj5uaFsLg1weo/T3od1d+vX9k99H5LOa/prKRxQBt+d1JTAD+dL9qkV31CpDdUr6WslL6cV8sSu/DY/b4C3F2+MjmVegme603YXV/P6gZN8mOneH8HOgDL4Lef0qED+kBrG7DjPLOfacbKaqzbkkOGG/vX2vDc+jgubUrHzQU8JY/qGwpwfpXFNU/ighwiTgevJwpHFsOI6KfezJ3wIzF3VtNdRaFB1+O6ithSWzXc09iDJKs0VkGgid/eL4MMJPfHzattVSaW5nms35nLb1jyPFMYZHOrHP0bHcvDcFB4aGKmNNyoULgjwNnB9nzBWT0viu8kJHmvs/7SngDN+znSrsQ/z8WLplMSmGXsAU4O7v6YYlswVhbzGqC21GXuADQ9BtU7CYeK5MOVtbd190S4R+VG0CGXw3UFdhcTt7bs9WQnpC6YEt730+T2D+HlqIj3dkGX/QUYxY5dlsibffUlCrSHaz5tHBkaSMSeFf4/twaSogI6+JIWHkhrsywvDY0g/J4VXRsYwLKzjBXP02F5UxfgfM/nLPvdl4QP0C/ZlzfTeTIhsRmZ7SLLtcUUOLDm/8b71RhN4273XFbmifWLW6e+RdD5M+rt23HkRpWgyyuC3NeYq0d931UY39Qo48BHsfAn2/dstHZ2GhvqxdnoSk6PbvhXnkYpaZv+SxfWbjnG8uuM67zXGxb1C+H5yLzbP7M1tqeGEdmCnMoXnsCAxhB+m9GLLzN7clBJGiAd/Lp7eU8Dk5UfYW+JeHYq58UGsmpZEr8BmLhKcXfhlmWL0TyXAY/CSRD978taJ0a/XScLte7ko7NlT1fZhy+6CiuG3JfU18NMVUm7ijMFL4vZmnS/vuD/DoJvdckmP7zrBK2lFbjl3sI8XTw+O4oZkz1Aaa4yFR0p4J6OYtR7qoWgLVAxfS/9gX65MCuG6Pp5t4K1sKazi91uOtUsVyvPDY7ilpUqB6R/Amju046H9YfY34O9CxGvPm7DxYe14r9lw5jva+nlzNSwaZwsZTPq7lDwrmo3nf/o7C/W1sPxaF8beW7JLrzoGC3bBpNdEkMfKvrfddllPD4nmg/E93ZJtXFpbz93bjzN9RRb7O0GJ3ILEEJZMltXdQwMjSQnybfxJnYy2/C9bDJ6Vod4cIn29uS01nFXTktg0szd39ovweGNfZbbw+K58pq444nZjH+nrzc9TE1tu7EG/JThIefOS810LkvW7GgLjteNZ30sGf41TtZG3Hwy4wbYdM65l16tQBr9NsJhh5e/0ZXkNXlKKl3iubAfGi1v/vJU25Sg3az7PjQ9i9fQkt5XWbSqsZOyyDB7blU9FneevCFODfXlkYCTbzurNxhm9eXhgJANDPDOG21za0l1n6ITOv0sSQ/hiUjyH56Tw56HRDPfQ2LwzP+aVM+GnDF5JK3T7a40O92f9jN42TfyWEjYQl1PMk/tcG31jIJz2kv5z89aKAFrRHsfxgAZvQdQoCO3Xmqvu1iiXfmux1MOqm13oQRvgjH9IK109vjxNtPjH/V/r6/2bQFmdhdu2HGPR0VK3vUZ8gJGnBkd1yq53+0trWJRdypdHy9jj5ripu+iOLv1ZPUycE2diQa8QTMbOtYbJLK/lwZ0n+C63rF1e765+4Tw9pA37ZSwaf+o8pLABcPbX+u59V659kPDngN9ByiWSF7X6Nig9LOeKndQ2194NUQa/VVhg9e1w4GP93ZNehdSrXD+9PNutGfuu+PhICfduy6O8jZvv2DMmwp+XhscworWriA7icHktS3LLWHKsnOWdSNinOxj8KD9vzo0L4uweJqbFBhLg3bmMPEg47Pn9hbzaDit6kAqW/4yLa/tE3l9uhEOfQVCSJO3pcSqjn/YerLtPtPkbY/xzMPCm1l1vN0cZ/NaQ9h6svUt/34QXZIbaFOoqoGA7lOeATyAExEH4QLc2fzhUXsuV63PYVezeleyCxBCeHhzlljLB9qK8rp6f8ir4Ia+c73PLyK/W6c7lIXRVgz88zJ/ZcSZm9zAxspNOIq28n1HME7vyKahpn8/RjNhA3hobR6Q79Cn2vAEbH4ExT8GJLZD5tf5xof3F6AfoSHWf2AwbHpA2uXr4R8PEvzZPzU+hizL4rWHXq7D5Ce342Gdh8K2NP7/kEGx/Xr4kznWoxiCJ7Q+/160xq4d3nuD1A+7J4rcS4O3Fvf3DeWBApFtfp73YXlTF98fKWV9QxfqCSo8SI+oqBn9MhD8TIwOZGOnPhMgAojxMy74lbC6s4s5tefzq5km2Pc8OjeYPqU3oBWKl8FfIWgLVhZKUlzT31C1mT2yExbMka37iS7D8GtctxkNTG4x+D52dFsj9BTK/gZP7pTeJKR56ToPki1TTnDZCGfzWUF0E35zpqDA1+nEYenfjz93/Lmx4UL/2FMTVX1UgCYGjHpWuUm7ix7wKbtyU6/YVR3yAkWeGRHNRr6715d1eVMWGwirWFlSyNr+SPDf1JG8KndHgm4xeTIgMYGKkPxMjAxgT4d8p3fSuSCut4ek9+Xx9tH3i9AApJh/em9CTYaFNTFqsKYZ198DhLxzHvQOg76WygNGTzjVXiaZ+2ACRvK2vkZr67KX6rxOSAmd/Iw3GFO2OMvitpTwLVt0q7qwR9zfN2O/6O2x+XH9f3GSY8BdxgZVnwxfjRK961KPSitJNFNbUc+uWXL7LLXfba1gZHOrHY4MiOcdDZUxbS3ZFLesLKtlcVM3ekmr2lNS02yTA0w1+gLeB4WH+jAz3Z2SYHyPD/ekf3PXKIwGOVtbx570FvO/mRjfO3No3nCeHROHfVIntiqPww4VQnH7q43rNhiG3aZPmvp0m6neXHwafEKmbX34VZC/TP09IcoPRd9GJT+E2lMFvb3KWw9J5+vsG3SzhAHv96E/7S8c9DHDecogc7tbL+yK7lHu2H6ewHeKLYyMCeG5YFGMjur4EbmGNmT0l1ewprmFvaQ17S6rZVVxNSRsbVE8y+DF+RpKDfBge5s+ocD+GhfoxuKkrzk5MUY2ZF9OK+NfBIqrcmBjrTG+TD2+NjWN8RDNyHKqLpAyu9HDTnxM5AobcDr3ngsEomfZ73oQZn0DCLDmmMaMf3Fvc+6ZeTX9dRatRBr89qauAz0fpS08OukXK8+zJ3yazZyt9L4fTXfSKbkNOVJu5Y2sei9upVOisHiYeHxTlsXrm7iS/2syh8hoOldVyqLyWg2W1HCqv4XBZbYsmXe1t8GP9jaQE+ZBs8iXZZCQ5yJeUIF9SgnwI6mQlcq2l0lzP6+lFvJxe5NY+9XrclBLG00Oimy+wtXSehA6H3yehyT1vimexKZgSZJHiEwxr7xS3/9hnbfvra2DF9dL5ztXzZ30pbn5LvSRB97+uedevaBadN3W6M5L2vr6x94sQ9aiSgxDcR1b4dWVa2cqmdKNqA6L9vPnvxJ4szCrl/u15bo/jLj1WztJj5VzUK5gnB0eRGOgegSBPJMrPmyi/AMbpeDnK6upJK5VwQH61mbyqOopqLZyolu38GjP51WayK9zTQW1GDxOB3l5E+XkT7edNlK93w/UaifLz7tSVF21JldnCexnFvLCvsN37SyQGGnl7bBwTIlvgJTu0UBLkLlgrLW4BEs6Cb6ZK0lxjlGfDpkdllQ+Q84vjfi9fmPourLwRMr7Uf/7isySEmb8dvNTnyd2oFX57snimtoOeXyREDBZlqap8UaEKGygTA+eZ9oiHYMSD7Xe9wPFqMw/uOM7n2e4T63HmiqRQ7u0fTt8uKH3rTirNFixAoBtklBVaimvref1AEf86eLJdQmDO3JkaziODoloum/3lRPEs9rvacfzw56IcChA9RoxxU+rkAS5N09bbW+ph7R2Q/pHr53n7w7xNHaJL0p1QBr+9sNTDBz1Ec9+eyW9J2QmIkS/aDYW7bfclB0SFr888qe337hi398oTFdy25RhHKtpvBTOzh4k7U8Pd0vVPoWgpmeW1vHagiPcziqlsxxi9lTHh/rw2ugeDQloxIS7aDV9PgSsypATYmXX3wP7/iJTtme/I4/3vSjb/qbD/PXPAApseg90uQpLj/k/bFU/R5iiD316YK+EDp6xUv0i4dJ/NJdYJeHZPAc+7uTe3M8PD/LgzNaLLlfMpOhc7Tlbxt/QiPstqP2+XPWE+Xjw5JJrr+4S2/mQHP4Edf4V5m/X3m6vg25lQtAuG3CHCOnXloiq6503RENEj5TKRE3fFnjdg4x9x6Pow9G4pZ1a4HWXw2w2L1Kvax8Z6nQ3T/9v8Ux1fDzkrJbO2rhL8IyFmPPQ8EwJi2+yKXXGovJabNuWyobCq8YPbkPgAI3ekhnNN71ACu1lCmKLj+PpoGf8+XMzy4+4vWXXFpYkhPDcsmoi2Usvb/y5s/RNclg4YxAP53Wwx9FPflVyi4rSGeH4FnPW5iOCAHJu9BHb9A/LWOJ7XPxou3c8p+zYeWy2TBpAkvfjpbfM3KRpFGfz25IcLIHelbbvf1XDa35r+/JzlMjs+uVd/v8Eb+l8PIx8Gv2aoa7WQDzKKebwdJUKthPl6c1VSKNf1CVFxfoVbyCyv5f3MEt7PKO5QIaX+wb68NCKWM6LbuHQ1exn8uEA6eSZfLIb7+zmyL2EmzFgojw98LI1r/KNh7mqtNG7hTtj1ugj2WOP88zZL5r3C41AGvz3J+ApWXGvbbvIK3wJbnoZfX9Hf7RMMUSNltX9iMwT1khm5njIWSF7AmrtENKjnVBjz9KnlM09BudnCS/sLeGFf+zQBcWZsRADX9A5hfkJwp+uUpvA8vsgu5b2Mkg5dzQNE+Hrx+OA2ct/rYa6ETwbIfZ/5shCpyJV94YNgrt3KfcV1kmUfNwXO+sJRJ8RKRS7sfQvCB0DyAvdcs6LVKIPf3tiv8r0DxP3VmE701mdg50vacYNR6meH3A5Gk4wdWwNL5oiwxdzVtnF7lpwnbjUrPU4X5atWcLSyjsd+PcFn7ZjNb4/J6MX8hGCu6R3SLYR8FG1HWmkN72WU8GFmMUUdkG3vzF39wrl/QCTB7p7A7vs3rL9POz7sHhj1mG275qS08q7IlfFh97j3uhRuQxn89qa6UFxnVrf8gN9J9r0rclbA0gu1497+4h3oeabjuNXgA4x+EobeqX3u15OlSYY987fJJKGVbCqs4sEdx9lc1L7xfXv6B/vyu+Qw5icEd4mmK4q250S1mS+yS1mYVcqmwsqOvhwA5sYH8ezQGBID2yuJ1yJxfPvFRNJ5MOVtqaG3J2eF/A4ZjDDnR7crfircgzL4HUFNiShTWcUoki+G0Y9pZSYtZvhirL7s5ZnvQG+niUBFjpTaVOXLtquQQfqHsMauGY+Xr3gafMNa/jc58WlWCX/aXUCmm0RhmsrEyAAuiA/ivPhgEpRQTLemoq6exbllfJpVytJjHeuyt2dEmB/PDYvhtKgO8kyVZ8PxjRDaFyKGuT5uw4Ow91/S9e78leKhVHQqlMHvSE5sEjnJnF/ESJviIWqEJNJgkI5TP16ifV7qFTDpNe34jhdgm508b+pVMOlVadaDRdrsxk0WcZ9D/5Mvr8UMw+6TVrxu4J3DxTy/t4DcDkx8sjImwp+5PYO4ID6YJFP3UfPr7vyYV86nWaV8k1NGRZ3ntDIeGurHo4OjmN1DJ+zmiZgr4avJkgPk7PZXdAqUwfdk1t8P+952HPMJgYt36K/Gj/4Iyy6Wx37hcO5SSdyryBF5y7wGCc2hd8PQOzhl6Uwb89qBIl7cV9juGf2uGB7mzwXxQZwTZ2JgSPfT8O/KVJotrDxeztK8Cr46WsqJas/4zFlJDfLl0cGRXBjfDF2Jk3vh8CJJrh34e63Lvb04vgG+O1sEwC7a7qK3vcJTUQbfk1k6T0rx7Bl+P4x8xPVzjq2Bgu3Q5wIIjLeNO5cEDrgBJvy1ba+3ESrMFl5NK+TV9ELK6jznY9cr0IfZcSbO7mHi9KhA/JU0bacjq6KWJcfK+aGhL4MnEh9g5LHBUVye2JyKGAts/wtsf57fxGrsy+Y6gtW3SbnesHulbbei06AMvifzw1zIdWpIMW+T63I7V2R9Bz9d4TRogCuzxb3fzhTV1vPPA0W8ll5EiQe5WEH6tU+JMTErNpBZcUEq7u/BrC+o/M3I7y6u7ujLcUkfkw/39o/g6t4tKLFzVaFzxj9E1a4jKMuEz0ZKrf28TR1zDYoWoQy+J7PqVjhol3TnGwqXZzTvHNVF8OUEqDzuOB4QA5fsb/UltoZys4X/HD7J39IKyavyLLerlSGhfszsYeKMqADGRwQQ7KNq/TuKdQWVrM2v/O2+zMMmi84MDPHl3v6RLGipJHT+VukmZ9H5bvhHicCNr84kwlwJ25469MvhAAAgAElEQVQTMRzfUEieD0P+0LYS3t+fKyHCq4+Dl8qH6Syo5Ysn03Oyo8H3aYE4zoYHtcYe2r3rnh4mbwO39w3n9r7hvJdRzMv7CzlU3rFZ/c7sKq5mV3E1LzfMjYaE+jExMoCJkf5MjAokXnkA3EJJbT0bCipZV1jF2vwK1uZ7RulcU5gQGcC9/SOY1dpkvGNrYMEuyFoqVT32VOWLGNfEFx3HzZXw/XmQv0W2y7Nhy24ozYTTXAh3tYSIIWLwLWZAGfzOglrhezLmKvjfMKg6IdtePnD5YX0xHT10Xfk0CO18zW9Je2VZkrVfkQtBibIiCOypfV47sDCrlFfSCtnlwS5aexIDfRgX6c/pUQGMDvdneJh/R19Sp2R3cTVbi6rYUVzNhoIqdpzsOB2HljIz1sQDAyMZH+GGz8BPl0HWEqdBg9TER42yDf36N9jypM4JDA2St8ltcz2rb5MEPlfNdxQeiTL4ns6RxfDzlbbtpraRdOXKN5rggrVi2EEmBStukMmFFYM3pFwC4549dW3+yX3wy01QvB9iJsDEvzY/v8AFa/IreS29iMW5ZW1yvvZkQIgvQ0L9GBziJ/ehfioXwI5DZbVsLapky8lqthZWsf1kVYe0mW0LArwNXNM7lFv6htPHnaWeZVmwaLys4O2JHA5zfha52/paWDhIdD1MPaUdrT1jn4XBt7b+WurK4LNRIuo1+LbWn0/RbiiD3xnY9xasfxCwiMLemf8RUZ1T8cuNcOgz7fiEv0qGPsik4H/D5AtsT9gAqMyT+N+sLyEoSf81nDP/A3vCvI1N90A0gezKOv6RXsS7GSc9KrO/uQT7eDE81J/BoX70DfKht8mHxEAjSYE+XbLzX15VHUcqasksr+VweS1ZlXUcLqtl68kqSms9O/beFHqbfLg5JYyreoe6XwLXys4XRRnPmQl/gQE3Sh+NlTdIuRwG6XRXsN12XFtU5ljqZIFQniVlv52otbdCGfzOw7E1sO5uKE6X7T7z5GaKF8Mc3Md2rLNXwErcZDHgVld++kew5nbHY0Y8JPF9cxWsuQMKd8HcX/S/2N/Nlla99sz+FmIntfjPdEWl2cLHmSW8cbCItNKaNj9/RxLp602iyToJ8CEp0EhioA+x/t5E+HoT6evtUZOC4tp6jlXVkVtZx7GqOnIq6zhaWUdGRS1HymvJrKilqpOu2BvjzJhAbk4J55y4DhDLqa+Br063/QZY8Q2FCzdKkl7+Npj8Txnf8jT8+rLtuEG3iIewORz4WMJ9vc4WZb30D8FcDbMWgV9E6/4eRbujpmedhR6T4IL1kPMzHP1Z5HYP/Bf8I0Ulz2rwq4tg7d3a5xtNMOnvOIjtVB7THtfvarn39hdxnq/OkNdLOEt77JA/wPKN0h8b5AehjVz6zgR4G7ghOZQbkkNZV1DJBxnFLMoupbwLGJaCGjMFNWa2NdJ/IM7fSISfTAJsNy8CvQ34ehnw8zLQL9iXabFtY4xe3l9IXrXZwbgf9rCkyvYg3MeLy5JCuTEljJSOVGj08pUV+g9zHcdrisV97xvqGKP3daoOiBza/NcsyxId/ZwVst3vagn1GYOafy5Fh6MMfmfC4AXxM+TmivX325L87Bn7jC1ub0WvnKa6CALjRE3r+AYZqylp2GmR5j9ePlIxkHiOdNlLex/q68RlGBDboj+tOUiWfAB/HRHLF9mlfJhZ3KmyuFtKblVdoxLF8xKC28zgv5JWSFEXcL+3lPER/lyXHNZMoRw3EzdZ2tke/txx/NBCMCVAv6tsY9VFtsfeAdCrBfLZg25qCO+FSF5P2MCWXbfCI1AGvyuR+a32hwDkR6L/tdpxPeNc+Kv0w7ZOBvwiRdkLxGW4+x9SH2xKkOSgoXfAGW+22Z/QHAK9DVyZFMKVSSHkVtXx6ZFSPj1Swu6SzpHhr/A8In29uahXMJcmhjA63EMrLsY9K302ap1aUZdnQ53dxPeknc5G0hz9mv3G8A2DiTrCP4pOiTL4XQVLnX5va2NQQ6MdHbnY8EHasdxfZCY/8zOR9Y0cavuh6DNfQgffTpcfl19fhoOfwDlLtN6DdibO38hd/cK5q184+0tr+CizhP9llXC0suOb9ig8Gz8vA+fEBXFpUojnNLLJWyeT96I9olufeI600sYgE/WRj8DGh7XPK8uSe4sZ8uzyaw79T7L4xz/XLl44hWeiDH5XwVwNNSe142OfgaBe2nGAsP6ykq+3i8se/Unuvf30KwGOfOe4XZEr3fgmvNCy63YD/YN9eXpIFE8PieKXExV8k1PGF9me10RF0XGYvA3M6GFidlwQ5/UMar9M+8aoLoK1d4i3zp6cFVB6RL7PAANvlIS6wl8dj8v6XjLoT6ZBbYnjvowvJR9n1CPQ/3qlkNcN8ZBPuaLVGE0w5ikcVvJxU/Rd+Va8fEUxy57KPCg5qH98ZR7seUM73hJXYTsxOTqQF4bHcPDcFH48M5E7UsNJClQ/dN2RxEAjN6WE8eXpCeTOTeWD8T25PDHEc4x9VT58O02M/eBb4exvwccu8W7/O7bJucFb39VeVwEbHhbPgB61JbDhIdHocJ5UKLo8HvJJV7QJA2+Cc5dA8kVys5bngLj00MloD0nRjuWt144BbH9OflDsMRghVacE0AMZF+HPn4ZG8+vZfVg1LYn7+keQGqSMf1dmbIQ/jw+OYt2MJHadncwLw2OYFtP+DaMaxVIHP10OpRnQa7aI5PSYBP2vsx1TXyvHWYkeA6lXaU7FkcUQ1k++/67kuEsOwfKrpArn0Gf6ev32mKsaP0bh8SiXflcjepzcnMleBsFJ2n3+0dpjK3K0YyUHIO0D7Xj/ayG4t3a8vhaK0+SHwpTgcXHD4WF+DA/z4/HBUewqrubn4xWsOF7OmvzKTqv6poCEACNTY01MjQlkWoyJCN9OsqZJ+wBONHSeS55vGx92ryTJFqeLRoZ3gOPzxjwlBr660HF8/QNw4XqIPQ3W3SPffz2KdolI16ZHJQm3zwWi3mevu1GRK9U/Q++SSYai06IMfneh1yzY+iyctUjK+6yUZmiPdV7FA2x5SjvDN5pgxAOOY6WHpX935teO5wlJltXIoJulxt+DGBIqErh3pIYDsDa/kuUNE4ANhZ1P0707EWz04ozoQKbFBDI1NpDUIN+OvqTmU18LO+xyYOwn4b4hUvrqCr9wGPOkiGTZU3YEdrwo/epnLJRV/KZHJSynR2Ue7H5NbsZACO0HfmFQVSDhgSG3K2PfBVBKe90FcxUsmiAu/FGPQHAyHPhIq7cNMP55GPh72/aJzbB4pvY4qyqflUOfyQ+Ps963t5/kC9SWSjb/9I8g3Cl3wEMpq7Pwy4kKlh8vZ11+JTs9vKnPvIRg3h0X1ybnSvrmgMfV4Uf4ejE6PIBxkf5MiQ5kQmRA40/ydHJ/cRTTmfxPSF7QjBNYYPHZcGKj47CXj/TNsIph1ZXBzlckD0dvUu+Kwbc1JAvqVPooOhXK4Hcncn+BpRfalPH08PaHi3ZAQIxt7Ps5kLfG8Tj/KLhom01x6/AXouPtTPJFklzk7Q8rfycrf2MQnPuDflmgh1NVb2F7URVbiqrYUljF1qIqj2rp25UMvr+XgeFhfoyJCGB0hD+jw/3d26DGHVTmQW2ZfF9cJbfuehU2P2Hb7nc1nPa35r1O0S74eor2ux03pUFO247qAtj9BqS9J4mCrgiIFZ3+pPObdy0Kj0W59LsTcZNhyjuw+nZtwxwrE15wNPZZS7TGHsSVbzX2xemwWqcLV8JMOOOfthDCoN83uPrLYPnVEmPsZM03/L0MTIgMcFhZFtfWs6Wois2FlWwtqmZPSTUZHjQJ6Az4exkY3NBZcGSYP6Mj/BkR5tfRlwV15VBb7vidaIzidHGNZ37rGFuPGCbZ98kXO4bVnI3u4S+bL18bPkSSdp2raHJXiofO3h3vFymu/hEPSLlf9jJpslOeAxggNBn6XCR6HN4e8D9QtBmd69dW0Xp6z4WYsbDzJXHB1xTLeFAijHla9lux1EsDDmeC+0C/a23bmx4VHQB7fEJE8MfgImmq5CAcXiQ/fp2cUB8vpsUEarK/95bUkF5WQ3ppDWmlcp9eVkOxh7nJ25uEACNDG4z70DA/hoT6e261xNeTIXZig3hVA9nLoGAbDLtHO2Hd8QJsf17yXZy7RhbuhFU3izdsytu2kjujU9VAbQns+ack7DWHkQ/Ld8q+R4aXDwS6SJj18pUeGXp9MhRdEmXwuyOBPaUJx/jnofyoGGVTgva4g5/Ayb3a8dGP2UQ7CneKzKczQ+/UrooKnERCspfZDH7ae7Dv35JsZDTJpGTAjVKa1EkZGOLLwBBtEllelZkDZTXSNrahhay101x2F1EGjPM3kmTyISmwoQugyYdkkw9Dw/wIade6dwvkrhbVyKLdsuI2miB6tExaXYlSWamrgoxv5PtiTTbd/IR8LwJ62JpNAWz6o0hPA0z7EBLPlS6Xy69y1LXPXioleLMWyYRBr8pl58uQsgBMjVxfcZp00QsfIhOI8c/Bimtln08InP564+dQdBuUwe/OGLxdS+Kaq2CrTivNyBHQ+wLbdvpH2mP8wsV970z2D47b9gI//a6RldSi8eJ1yPhKbme+A70vbPxv6UTE+nsT6x/ApCj9hLPD5bW/9ZLPrqwjv9pMYY3cCuwed0T5YExDt75Iu/soX2/iA3zEwJt8PGe1fvQn2PCgfM68fOSzXnIImQSslFX09P9C3Bn6z68utJWoZn1v+xxO/xg2P+74+c1eajP24YPF2INMWKd9AN+fh4MOxrHVsO15GPVHCbU5U1cOK38Ps785ddhr258dK2V6z5VKnMpjkDBLvosKRQPK4Cv0OfBfqDiqHXdW8zv6o/aYQbdo449lmZCz0nHMuczPuRkIwD57g2+BmlLwMclkpTUUp0FpJkQO8ziNgD4mH0lO05FIcCanso6CGjPFtfVUmS1E+rbyfbHjk4nx+HobfjPs7bsybyW7X5dQE0iJ2awvIDBe2kv/eKmUwtWVw5rb4aLt6GagH/jY9vjgQkicI5/3A5+IRO05djLT25+zPXYuO42dJHoV+//jdI2vwcAbxOMWP0P7XTq+HlbcAFPeEve7Mwc/hYId2g52Pc/UeUMUCmXwFa5wjskDxE93XI2Yq6DksOMx3n4w4Hrtc/f+C43Sn7Mr88An2ucZTfKjtvNFOLpcEv6MgeJlGPOUZD83l21/hh1/kcdevpKoaO+a7UT0DDDSM8A9X+OJLjwQHk/2DzZjD5KgFhgvj3tOkzKzX1+R7bIjUH1SuxKuOAo7/mp3zmXw6QDAIJUnF6yzhQMqj0P+NtuxetLUIx4Qb1h9jW3MXCVehtFPyDXm/KzNss/8GhZnwphnIO50ef2Ko+JN2PMmnPZKc94ZRTenE03ZFe3KgOsh5TLbtsFbBD7sMVejMeJ95ksWsD01xZD2ofY17DOHzdWSROhMwTZxyxqMYG6oHa6rkNXXd7NcVxu4wmKWyYOV+hrY8IB+4yFFJ8QCmx53HAru47g99G7wi5DHpgQRmLGnIgeWXmxLaAX53PQ+Hy7dJ3Fy+9i/fRtakM9SwQ7HsYAe+hLUh7+Q+8jhMORO/T+pYAf8cD58mAif9oeFQ8Tgx0/vNLLWCs9AGXyFPl6+cMY/4PxfYNyfYfa3WrEcY6DWtZ6iIxiy6+/azl0GL5kcWDmyWGt0vXxg/F+k/e6Z78hKyJ6SQ/pegVNi0LrwzdUSKlB0fop2S7jGntJDjtu+ITDjE3Gzn/UZDu783FXw1en6yaoFO/Tj6WYdEZtD/9OODbldO1Z2RNQpQZJhT2XA68rEmwDitj/zHZQYjqI5KIOvODURQ0UON2aCdp+Xj2O3PS8f7XFVJ8Rt6UzSeRBoJxCjl/yXeK5jmWDEUO0xBdtPff3OGLxgyr8cKwj6X994traic1Ccrh07uFA7Fj0WJr4Mof0dx/0jYcgdDcbUifxt0lPCmYAe2rEDnzi670E8DbE6VSe/XbMBJv1dMutd1f37hkr57MzPmlenr1CgYviK1pJyic19GRCrFerY8LDW7e7lA6OftG1XHJWyKWecVztVBdpjzC0QuImdBBftFHUyv0j9sihFJ0VnxXtkMRxa2DS52vBBDQqQFgh6Ulbg9hxcCCMfcRwL7Ssrf/tOdtUFkPmNoxcLIPUKrZCVs8xt38slTyD7R8jfIjkGvsFSIdNrlraBjkLRRJTBV7SOflfD3rfELVldKO5xq9Hf9284/Ln2OWOedjSyB/6LJhcgsCf0nOo4lr9Vey5Tz6Zd54nNUqZVmgleRvlR73OhZ2To1xSLC7k0U6RYzdVQXwdGf6ml9gsTb4gpXt4XLw8pe/NEwvrrj6+6RSaHqVc08UQG0Yiwz/cAfYNvNEH8VG1Hul9f1Rr8hBnal7LveW/FyxcSz5GbQtFGKIOvaB1GE0x7H364UCRCV90sNfVHl9nqku0ZdIuECOxJ/1h7XN/LtCp9eiWAkcMav0ZLPZSkS3JVxiLb+NZnYean0kK0vakrh/3vyfUU7ZEGJ6YEqc/Wy3f4LXvbIIY/uLesLMOHQOLZtiz07k7YQJnMFe1xHLfUSwne8Q0w7k+u+8Tbk3KJ1uCXZco5YsY7jve9XGvwC3eKdK19mZx/tNTpF+22jUUOb/xaFIo2QMXwFa0nfAjM+VEETDK+lAY9zsbeJ0Sa6IxzEvPJW2NLWrKn7+WO24W79OOzTTHWBi+pOOh7meN4XRnses1xrDJPErdyVsiPuzs48p1kWmcvEXnWyw7C+Suli6CzzCrAsPvgyixJoDzjDeg1W3qU738X1t8HX0w4dUOk7sbox13vS/8AFp3mOPFzRWiqvjHWywnoPVcMuTObn9DqTYSm2h7HTmxZaalC0QLUCl/RNgQlwayvxYAfbli11lVCYA+p3U+5VF/1K00nWS/2NAhJdhw7+Kn2uOhxzXPJF2zTjlm9CLUlsO4+iffax1TjpsDU9yWzuy04+Amsvk1q//s76xVYJMnRmYAYSdCKGCq3lEtkPG8NrH8I6qtd9yzojiTMguEP2LQWnKk4Ciuuh9h/w4TnTt2q2T5HxUrGIinNcwitGOR/uuQ8RwNfuFPq+e3bSNtXo9iPKxRuRhl8RdsSO0k/E1mPujLI/Eo77hxnra8VQ+lMn2ZK7mb/pB2zavX7hMDkf0m1wBq78qnclbDrbzDqMUnKOvId5K2DejPEjpfWoU2NqVceh/UPivdCY+yRkIjzahBk0qRH7CSYswxqSvT3dxXKjkhTGm8/KdNsyuRm5MOSA7HlGTT5IVby1khL2QE3wqhH9N38feaLiI+9B6W6SEJWvZzi67ETYfyfYf0DjuPbn5Nr6H+deI9yf5HxYffJhFKhaCeUwVd0HIcXaTOUjSbHUjwQtTHnFqLeAdD30qa/Vk0J5G/WjsdPd9z20jEmpRmQtxZW3ero5t/3lqy4Z33VNM3y7GXiSYgcob+/Mk9//FStWb39IcDf9f6uwO7XIb1BuKnPfDGsTWHo3fL/WXOHhED0sNTD3n+KVv6Z70DUaMf9ATGSPHrUabJ4cKHW4INMHnxDYe29jtUp25+XG8j/bNRj0ipXoWhHlB9Q0XEcWaId63OBtq3onje1x/W9FHzDtOOuyFmujXObeonOuj0ntmife3wjbHoM+l+j1QIo/BW2PNm0a7C6hrO+h5P7YNersHS+rZ2pVVTFGU+oJGgLKnJsyXQ5P0to47vZ0k3O2aDa0+8a2+MTm5r3mvEz4ML1+h4Ve8qOwOKz4eB/tfv0xKSyljgmV+bbfW6SF8BFWyU/I3ywfJ6NJvnsDLsX5m9Wxl7RIagVvqLjiBkLWd85jjnX3h9bLSV19hgDYfh9zXstPYMSP0075vxaIBnZk9+UWut+V8Mn/RwnD4e/bNA0b0T1zCfQdi3213PoMxh8e8tW+J5EzUk4tlYMYfRYCElp2GGBzU/KBMdigZA+4jWxJ/NbGPuMvA/OhA+Snu3ZS6FYR/imMXxCYOKLYrjX3q2vogcSsll9u6zQ7VfviXPEYNeV28bM1dLNMfUq+ft+fRWmvmfb7x8tq/hRjzX/ehUKN6FW+IqOY+idcNrfZOXjHSAJUs5KfVue1j5v+P1Sj94cjv6sHYt3qok2V0Lhbu1xY5+2Sar6RUr5nD21JVCu01nQGfu2wvZY+5VX6KzwfUO13dfaE3OVTLp2vw7b/k/c34W/Oh5TWwLr74dP+sPPV0jN+xdjRXgGpM3yrlflsQGoPKEvHrPpMUma1MMa5inLaPnfEjNeqiFGPeb6PbXUS4c6+wmJMdDW7taenS+Jx2HzkyrTXtEpUCt8RQdikBWzq0516R9qXbg9p4n0aXM4uVfb6tfgDT2d+pDnb3dUSwOZWDhPLvSSxpxzEfSIHCHSqevvF0MKYkgSZ8tjvRV+U935J/fC3rfFOFedkEnEiAf0DRUW2PhHSR4bfKu2BBLk+qwd2fQqBxJmwZn/BnONuObLjzpJyVpkshacZKtl94uQBEwvX5i5EJac77hqBllhXzDKUXYZbHoLZVlNez9c4eUjrvakObD8Wv3VvrlKJjeT/2UbS71c1PrsKc2AxWfJ4zmnCEkoFB6CWuErPJOCHbDhIcexmAkw7b3ml6Dpre5jxmmzsvXc+dGjtWN6Er8+Ju2YHqlXwqVpolswfytM+9DW61zX4DfBnb//P+Kq3v+ONI6pLpJysOVXa1fjIJUAae+J+Iue6JHVkG19Roz45LfEE2PfKCn7BzGKfuHiyj77K221QskB+OVmMd4zPoHLDsBF20QeNmqUNGdypuYkrLtXO25KlPu6ysbfj6YQ2g/O/UG0I/TI/NpxAhM3BXqcrj3O4AXjn5e/R6HwcJTBV3gW2UuljOn7ObbVn8EoPcxnfdmyhiF6Cn3O2fngwuCPddyuLoRa5856BonZNhWfYMkGD+7T0EdghSSzlWVrj3VVkmdPv2uko6BzdYOlHtLe1x5vMEpcGqCmyHFfyUH4doZtojD6SdF173c1DLrJ8djjG+Xey0cSKIOStK9lMcvkJmEWYJCQyOmvy76k86VjnTNZ32td+74h8r6Zq7XHtxSfYJj+CYQN0O4zV2vb3k7/SK7XP0rCOskLZGU/8Pdtd00KhRtRLn2F52Cpl/K3oj0QPVJW4DHjoM88bdy8qZgrpW7eGef4Pbgw+GMct/VWzCHJtlV6c8laCuvucb2/cLestANiG24xch8Ya6tmsHo8okZLIpk9zqIxVuJOFxe1vQG11MGK66Txi5xYqias9JrtqKAYOdLxnEEJ2m5yw+/XuuftGfuMeGCcm9RsfET+R/bNmLyMon/QlhgDRQHye50SO+eqCZ8Q6bA38eW2vQaFop1QBl/hORi8HLvotQW5q7WrQv8orQZ/Ra6UjTlcjzdEOdXM6zXwiTiFUltjpCyA2AmSyPbjpTJBsacqXzT3qwvRCMjM/MzRU2HS0dN3JQ9szaD3sfOYHPjUcUIT2NOx9NH+2KhRMPpRx3Nakw/tcVX/bsUYJBn0yy52uu4jonNgn7VvqZckxrYmdqLI3TpLN7eVuqJC4SEog6/o2uToxO97TkNTQqdX3x0+WJtNnrdBe1xrmu8YTdLwJSRFa+wBxj4lfQAsdbLirDwusf7K4xDhpN2uZ/Arj8t5nf8O67a9YFDau47HBNhlnteVwc6XZRI05A4Y+ZDWqxGk44Up1wlTOBM/A5LOs2X1W9nxV8l58A0DLJIYGZTY+PmcyVku74GeUI6VqDGOBt/br3UTOYXCA1EGX9G1OZmmHUtoYvw+xil+b6mH4+u1x9l3Q2spLmvwG7L0DUb9igF7nPsPWCk5pG3sYo3d+zckBdaVad8Da5Jezs+w5i5JTDx3GUQ5ufKtBOms8JuaVT/2GcnfsPfG1BTDjhdlX8UxyfBvSk6DPTk/i7gRiCteL2cAwOg0IUqco/rOK7ocKmlP0bUZfItjv3GjCeJnao9rSvw+f6sYIXvCB2vV+lpCRSMGvyn4R+vrwet1GbROMMIHyr2zEA5IGGHN7bBsgSTunb/StbEHfZd+U1b4IAl/g2/Tju97W67VGuMPddHv3hU5K2yPtzzp2LjGHvsEPe8AGPXH5r2OQtEJUAZf0bWJnwELdkvp2Pjn4bzl+rr3+du1Y84Z+lnfa4/pf13bXGdbyerat161oicmZJ1gWKWC6+u0x5RmiNTwucuk5WxjiYmtWeGD1McHOK3gzVUSSshv6HSol1F/KuyrJ2qKRX/AmZyfJVkUJI9kyltSQaFQdDGUwVd0fXyCpQRs4O/1DSJAcG/Hbb9IO2lYAAsc+tzxmKBErRRwS7Hq6dtj8Ab/yOadx9krAVCok6lfsFPurf3eXTX/mfruqVf19gT2RJMbUXPSsYnMqTCa9NvF7v+P1MWDJDg2h5RLHBP9DnwMa/4gXo/yLFEAXH4tYJH3YOZnLsSKFIrOjzL4CgXAWZ9JfDe0n6wiJzj1Us9eqs14n/CCY9lYa9Bb4QfE0Kg+vzMx47RjeRsctf8tZlHZix5jk4Q1Jdjkg+05plPS6AovH/0Yu56+gCv6XQkhfR3H6muktNLUy2kS1gQCYmD6x47St+kfwqJx8L9hsPkJeT8G3gTzNktnPIWii6KS9hQKkNWpq/rq+lrY+qzj2IgHpaFLW2GV2rXHOZGsKeitgGtLxGVtVYrLXiq19ol2JW8Gb6nNz1nh+Nw9b0LqFVoVPVeYemlL8cqzm+6KNxhh9GOw/Brtvl6zmnYOZ2JPE1XDgwvh2Brxpnj7ids+9jSRNnbu0KhQdEGUwVcoTkV9jcjWWuvTrQapuXr+jaGnUleRp19SdyoCe4pmf4FTTsLuN8Tgmyth659kzFmZr+8VWoNfvB+2PAVj/6T/eiUHZGIS2FASGJQAJzY6HtOcFT5I+CVqpC1ubyX1iuadxx6fYBhwg9wUim6KcjkWeGUAAAMhSURBVOkrFK5I/wA+Gylx34AYkZe9YG3bG3uA5PnSXMaeunLY8LBTU5oGakvgwH9FL9/ipD6nl1eQ9R38dAV8O1OUDHvN1iamJc/XJiqCdMpbe5do9Dufc9VtjpUBeol7Tc3Ut2fkI47bEUNlIqNQKFqMwWKxWBo/TKHohtTXSEmYb6h+uVtbk70UVlyv7SAXECtqcL6hUqdenAaFuyRePvElbV8AcyV8PkarHGjFYIS5q/Td7BU5sHiWvpE2miBussjRFu6S65z1lWP9/8FPYdXNjs87Vf37qVg801YuOe1DlUynULQSZfAVCk+iOB12vCCa+Hore4DwQdIwp9/Vrvu6H/0JflzgmKxnZfxzkqTmispjsOYOyF7m+pjki2Dcn7V94C1m+PUVadPrFwEJMyVTvrnJhwAHP4FVt0iPgDk6DZAUCkWzUAZfofBEzFUi9FOcDtUnpT7cFC8udz23uR4ZX0pjHqsr3hgIY56EATc27fkF2yHzW2mjW1chBjxymMTYm5st31zM1bLCP7lftBPCB7n39RSKboAy+ApFV6a2VJLf6mtkpeyq3t7TWHsXpL0nXoRBNzd+vEKhaBRl8BUKRcdQW+ooewyARdTw9rwBg2+Fsc/qPlWhUDQflaWvUCjan9xV8HEfUdGzUp4NS+eJsR92r+tSQIVC0SJUHb5CoWh/CrZLgt+6eyTBsL5ONO0DesD0j07dylahULQI5dJXKBTtT0WuaNjnbwbvQGlFnHQe9L287eSKFQqFA8rgKxSKDsRCi0r2FApFs1ExfIVC0YEoY69QtBfK4CsUCoVC0Q1QBl+hUCgUim6AMvgKhUKhUHQDlMFXKBQKhaIboAy+QqFQKBTdAGXwFQqFQqHoBiiDr1AoFApFN0AZfIVCoVAougHK4CsUCoVC0Q1QBl+hUCgUim6AMvgKhUKhUHQDlMFXKBQKhaIboAy+QqFQKBTdAGXwFQqFQqHoBiiDr1AoFApFN0AZfIVCoVAougHK4CsUCoVC0Q1QBl+hUCgUim6AMvgKhUKhUHQDlMFXKBQKhaIboAy+QqFQKBTdgP8HBOOoq8GFFx0AAAAASUVORK5CYII=;rounded=0;" parent="7026571954dc6520-1" vertex="1">
          <mxGeometry x="36.44" y="120" width="157.11" height="180" as="geometry" />
        </mxCell>
        <mxCell id="SUnPFek8i2u0DkHHfLXl-34" value="" style="verticalLabelPosition=bottom;shadow=0;dashed=0;align=center;html=1;verticalAlign=top;strokeWidth=1;shape=mxgraph.mockup.graphics.columnChart;strokeColor=none;strokeColor2=none;strokeColor3=#666666;fillColor2=#008cff;fillColor3=#dddddd;rounded=0;" parent="7026571954dc6520-1" vertex="1">
          <mxGeometry x="5" y="605" width="220" height="210" as="geometry" />
        </mxCell>
        <mxCell id="SUnPFek8i2u0DkHHfLXl-40" value="" style="shape=mxgraph.signs.tech.at_2;html=1;pointerEvents=1;fillColor=#000000;strokeColor=none;verticalLabelPosition=bottom;verticalAlign=top;align=center;rounded=0;" parent="7026571954dc6520-1" vertex="1">
          <mxGeometry x="790" y="740" width="36.47" height="35" as="geometry" />
        </mxCell>
        <mxCell id="SUnPFek8i2u0DkHHfLXl-42" value="" style="pointerEvents=1;shadow=0;dashed=0;html=1;strokeColor=none;fillColor=#505050;labelPosition=center;verticalLabelPosition=bottom;verticalAlign=top;outlineConnect=0;align=center;shape=mxgraph.office.devices.phone_traditional;rounded=0;" parent="7026571954dc6520-1" vertex="1">
          <mxGeometry x="784.24" y="670" width="48" height="40" as="geometry" />
        </mxCell>
        <mxCell id="SUnPFek8i2u0DkHHfLXl-44" value="" style="sketch=0;outlineConnect=0;fontColor=#232F3E;gradientColor=none;strokeColor=#232F3E;fillColor=#ffffff;dashed=0;verticalLabelPosition=bottom;verticalAlign=top;align=center;html=1;fontSize=12;fontStyle=0;aspect=fixed;shape=mxgraph.aws4.resourceIcon;resIcon=mxgraph.aws4.inventory;" parent="7026571954dc6520-1" vertex="1">
          <mxGeometry x="640" y="465" width="115" height="115" as="geometry" />
        </mxCell>
        <mxCell id="SUnPFek8i2u0DkHHfLXl-56" value="" style="shape=mxgraph.signs.transportation.truck_1;html=1;pointerEvents=1;fillColor=#000000;strokeColor=none;verticalLabelPosition=bottom;verticalAlign=top;align=center;fontColor=#FFFFFF;" parent="7026571954dc6520-1" vertex="1">
          <mxGeometry x="648" y="360" width="99" height="51" as="geometry" />
        </mxCell>
        <mxCell id="SUnPFek8i2u0DkHHfLXl-62" value="" style="shape=doubleArrow;direction=south;whiteSpace=wrap;html=1;strokeColor=#FFFFFF;fontColor=#FFFFFF;fillColor=#182E3E;" parent="7026571954dc6520-1" vertex="1">
          <mxGeometry x="677.5" y="411" width="40" height="61" as="geometry" />
        </mxCell>
        <mxCell id="SUnPFek8i2u0DkHHfLXl-65" value="" style="shape=mxgraph.cisco.people.androgenous_person;html=1;pointerEvents=1;dashed=0;fillColor=#036897;strokeColor=#ffffff;strokeWidth=2;verticalLabelPosition=bottom;verticalAlign=top;align=center;outlineConnect=0;fontColor=#FFFFFF;" parent="7026571954dc6520-1" vertex="1">
          <mxGeometry x="880" y="120" width="44" height="50" as="geometry" />
        </mxCell>
        <mxCell id="7026571954dc6520-36" value="Lorem ipsum dolor sit amet, consectetur adipisicing elit, sed do eiusmod tempor incididunt ut labore et dolore magna aliqua. Ut enim ad minim veniam, quis nostrud exercitation ullamco laboris nisi ut aliquip ex ea commodo consequat. Duis aute irure dolor in reprehenderit in voluptate velit esse cillum dolore eu fugiat nulla pariatur. Excepteur sint occaecat cupidatat non proident, sunt in culpa qui officia deserunt mollit anim id est laborum.&lt;br&gt;Sed ut perspiciatis unde omnis iste natus error sit voluptatem accusantium doloremque laudantium, totam rem aperiam, eaque ipsa quae ab illo inventore veritatis et quasi architecto beatae vitae dicta sunt explicabo.&amp;nbsp;" style="text;spacingTop=-5;whiteSpace=wrap;html=1;align=left;fontSize=12;fontFamily=Helvetica;fillColor=none;strokeColor=none;rounded=0;shadow=1;labelBackgroundColor=none;" parent="1" vertex="1">
          <mxGeometry x="300" y="705" width="490" height="125" as="geometry" />
        </mxCell>
      </root>
    </mxGraphModel>
  </diagram>
</mxfile>
